<?xml version="1.0" encoding="UTF-8" standalone="no"?>
<!-- Created with Inkscape (http://www.inkscape.org/) -->

<svg
   xmlns:dc="http://purl.org/dc/elements/1.1/"
   xmlns:cc="http://creativecommons.org/ns#"
   xmlns:rdf="http://www.w3.org/1999/02/22-rdf-syntax-ns#"
   xmlns:svg="http://www.w3.org/2000/svg"
   xmlns="http://www.w3.org/2000/svg"
   xmlns:sodipodi="http://sodipodi.sourceforge.net/DTD/sodipodi-0.dtd"
   xmlns:inkscape="http://www.inkscape.org/namespaces/inkscape"
   version="1.0"
   width="208.86046"
   height="244.65999"
   id="svg2780"
   inkscape:version="0.92.4 (5da689c313, 2019-01-14)"
   sodipodi:docname="Wangen SZ-blazon.svg">
  <metadata
     id="metadata27">
    <rdf:RDF>
      <cc:Work
         rdf:about="">
        <dc:format>image/svg+xml</dc:format>
        <dc:type
           rdf:resource="http://purl.org/dc/dcmitype/StillImage" />
        <dc:title></dc:title>
      </cc:Work>
    </rdf:RDF>
  </metadata>
  <sodipodi:namedview
     pagecolor="#ffffff"
     bordercolor="#666666"
     borderopacity="1"
     objecttolerance="10"
     gridtolerance="10"
     guidetolerance="10"
     inkscape:pageopacity="0"
     inkscape:pageshadow="2"
     inkscape:window-width="1627"
     inkscape:window-height="1408"
     id="namedview25"
     showgrid="false"
     inkscape:zoom="4"
     inkscape:cx="89.527481"
     inkscape:cy="114.33261"
     inkscape:window-x="-7"
     inkscape:window-y="0"
     inkscape:window-maximized="0"
     inkscape:current-layer="svg2780"
     inkscape:measure-start="104.255,149.787"
     inkscape:measure-end="104.255,126.383"
     showguides="true"
     inkscape:object-paths="true"
     inkscape:snap-intersection-paths="true"
     inkscape:snap-global="false" />
  <defs
     id="defs2782" />
  <path
     inkscape:connector-curvature="0"
     style="fill:#1b63c6;fill-opacity:1;fill-rule:evenodd;stroke:#000000;stroke-width:1.99999988;stroke-linecap:butt;stroke-miterlimit:4;stroke-dashoffset:0;stroke-opacity:1"
     id="path4212"
     d="m 1,1 3.761095,158.00304 c 2.686489,112.85918 196.651755,112.85918 199.338255,0 L 207.86045,1 Z" />
  <path
     style="opacity:1;fill:#009645;fill-opacity:1;stroke:#000000;stroke-width:1;stroke-miterlimit:8;stroke-dasharray:none;stroke-dashoffset:4.57999992;stroke-opacity:1"
     d="m 114.63149,243.24122 c 10.66403,-47.18783 42.01498,-77.77148 89.59803,-89.70672 -0.0888,59.12867 -41.25119,84.17166 -89.59803,89.70672 z"
     id="path7675"
     inkscape:connector-curvature="0"
     sodipodi:nodetypes="ccc" />
  <path
     style="opacity:1;fill:#ffffff;fill-opacity:1;stroke:#000000;stroke-width:1;stroke-miterlimit:8;stroke-dasharray:none;stroke-dashoffset:4.57999992;stroke-opacity:1"
     d="m 90.332891,90.245545 c -3.029629,-3.288487 -4.067347,-7.008169 -3.889087,-10.960155 0.32254,-7.150642 7.28968,-13.352118 16.705396,-14.142136 11.27252,-0.945811 26.04827,5.070183 42.69157,20.152543 9.11799,8.26283 18.35302,12.746879 27.70975,12.993087 -4.0933,5.584596 -8.3131,10.897836 -8.7394,19.003496 -2.15176,-0.62613 -4.16116,-1.71035 -7.25889,-3.88909 -3.82879,4.59048 -7.77216,9.08685 -5.17072,18.9593 8.13991,6.97324 15.72118,8.30786 23.24349,9.0474 -16.567,12.95306 -42.70522,3.4645 -49.63185,-21.98557 -2.47508,-9.09403 -5.64129,-14.47368 -9.93925,-16.27418 z"
     id="path7681"
     inkscape:connector-curvature="0"
     sodipodi:nodetypes="cssscccccscc" />
  <path
     style="opacity:1;fill:none;fill-opacity:1;stroke:#000000;stroke-width:1;stroke-miterlimit:8;stroke-dasharray:none;stroke-dashoffset:4.57999992;stroke-opacity:1"
     d="m 115.96551,80.34605 c 8.79604,5.557337 15.98881,14.870782 20.68288,29.07977 3.15843,9.56061 8.77422,16.93236 15.73312,22.93677"
     id="path7683"
     inkscape:connector-curvature="0"
     sodipodi:nodetypes="csc" />
  <path
     style="opacity:1;fill:none;fill-opacity:1;stroke:#000000;stroke-width:1;stroke-miterlimit:8;stroke-dasharray:none;stroke-dashoffset:4.57999992;stroke-opacity:1"
     d="m 119.50105,78.136341 c 9.90969,3.753502 17.45344,10.352288 23.33452,19.975767 3.44729,5.640962 8.08194,10.599182 14.71666,15.291182"
     id="path7685"
     inkscape:connector-curvature="0"
     sodipodi:nodetypes="csc" />
  <path
     style="opacity:1;fill:#feeb00;fill-opacity:1;stroke:#000000;stroke-width:1;stroke-miterlimit:8;stroke-dasharray:none;stroke-dashoffset:4.57999992;stroke-opacity:1"
     d="M 76.84099,64.118015 C 63.488553,63.311243 61.261485,50.828351 61.261485,45.172551 c 0,-12.316543 10.369735,-23.063234 24.06802,-28.255216 6.808678,2.435116 10.89261,4.991925 4.857995,13.73193 -5.76017,3.045881 -11.836718,5.698306 -15.291592,13.090228 -3.140015,6.71826 -1.137812,14.607689 1.945082,20.378522 z"
     id="path7758"
     inkscape:connector-curvature="0"
     sodipodi:nodetypes="csccsc" />
  <path
     id="path7702-7-2"
     style="opacity:1;fill:#feeb00;fill-opacity:1;stroke:#000000;stroke-width:1;stroke-miterlimit:8;stroke-dasharray:none;stroke-dashoffset:4.57999992;stroke-opacity:1"
     d="m 90.064624,35.697197 c -1.85341,-4.507705 -1.667778,-8.965856 0.65751,-13.372012 -4.620649,-1.86302 -7.64106,-5.147331 -9.136488,-9.7861 3.623376,1.58521 7.068132,2.282961 9.046299,1.77991 9.858455,-2.291355 20.457155,-1.348032 30.022535,4.14607 9.85185,5.658639 15.13767,14.799683 17.04979,24.453249 -4.76775,6.675653 -9.6797,8.84017 -15.68111,2.180577 -0.92814,-7.977267 -10.41894,-16.660528 -19.70097,-16.660528 -5.140064,0 -9.707494,2.698 -12.257566,7.258834 z"
     inkscape:connector-curvature="0"
     sodipodi:nodetypes="ccccsccsc" />
  <path
     id="path7702-7-0"
     style="opacity:1;fill:#feeb00;fill-opacity:1;stroke:#000000;stroke-width:1;stroke-miterlimit:8;stroke-dasharray:none;stroke-dashoffset:4.57999992;stroke-opacity:1"
     d="m 116.74633,43.724785 c 4.81352,-0.764627 9.10887,0.443476 12.8605,3.72165 2.87779,-4.066888 6.76979,-6.249055 11.62834,-6.635131 -1.73965,3.016149 -2.83585,6.175695 -2.74876,9.692846 0.19858,8.019683 -3.03911,15.000629 -7.2545,20.579102 -4.51973,5.981228 -11.04681,11.396211 -18.56986,13.934541 L 94.703281,84.034988 v -6.5625 c 0,-1.117149 0.859724,-1.607821 1.893821,-1.847909 13.224258,-3.070302 24.351968,-11.558957 25.350048,-24.342636 0.24667,-3.159441 -2.71892,-5.551697 -5.20082,-7.557158 z"
     inkscape:connector-curvature="0"
     sodipodi:nodetypes="cccsscccssc" />
  <circle
     style="opacity:1;fill:#feeb00;fill-opacity:1;stroke:#000000;stroke-width:1;stroke-miterlimit:8;stroke-dasharray:none;stroke-dashoffset:4.57999992;stroke-opacity:1"
     id="path7679"
     cx="104.43024"
     cy="94.972488"
     r="15.75726" />
  <path
     id="path7677-4"
     style="opacity:1;fill:#feeb00;fill-opacity:1;stroke:#000000;stroke-width:1;stroke-miterlimit:8;stroke-dasharray:none;stroke-dashoffset:4.57999992;stroke-opacity:1"
     d="M 94.30918,210.71885 V 105.49253 c 0,-5.4496 5.18176,-8.662053 10.12106,-8.662053 4.9393,0 10.12106,3.212453 10.12106,8.662053 v 105.22633 l -10.12106,23.68807 z"
     inkscape:connector-curvature="0"
     sodipodi:nodetypes="cscsccc" />
  <path
     style="opacity:1;fill:#009645;fill-opacity:1;stroke:#000000;stroke-width:1;stroke-miterlimit:8;stroke-dasharray:none;stroke-dashoffset:4.57999992;stroke-opacity:1"
     d="M 94.228992,243.24122 C 83.564962,196.05339 52.214012,165.46974 4.6309645,153.5345 c 0.0888,59.12867 41.2511875,84.17166 89.5980275,89.70672 z"
     id="path7675-4"
     inkscape:connector-curvature="0"
     sodipodi:nodetypes="ccc" />
  <path
     inkscape:connector-curvature="0"
     style="fill:none;fill-opacity:1;fill-rule:evenodd;stroke:#000000;stroke-width:1.99999988;stroke-linecap:butt;stroke-miterlimit:4;stroke-dashoffset:0;stroke-opacity:1"
     id="path4212-9"
     d="M 1,0.99999834 4.761095,159.00304 c 2.686489,112.85918 196.651755,112.85918 199.338255,0 l 3.7611,-158.00304166 z" />
</svg>
