<svg xmlns="http://www.w3.org/2000/svg" version="1.1" xmlns:xlink="http://www.w3.org/1999/xlink" xmlns:svgjs="http://svgjs.com/svgjs" width="1000" height="1000"><rect width="1000" height="1000" rx="200" ry="200" fill="#ffffff"></rect><g transform="matrix(9,0,0,9,50,221)"><svg xmlns="http://www.w3.org/2000/svg" version="1.1" xmlns:xlink="http://www.w3.org/1999/xlink" xmlns:svgjs="http://svgjs.com/svgjs" width="100" height="62"><svg version="1.1" x="0px" y="0px" viewBox="462 462 100 62" enable-background="new 462 462 100 100" xml:space="preserve" id="svg16" sodipodi:docname="logo.svg" width="100" height="62" inkscape:version="1.1.1 (3bf5ae0d25, 2021-09-20)" xmlns:inkscape="http://www.inkscape.org/namespaces/inkscape" xmlns:sodipodi="http://sodipodi.sourceforge.net/DTD/sodipodi-0.dtd" xmlns="http://www.w3.org/2000/svg" xmlns:svg="http://www.w3.org/2000/svg"><defs id="defs20"><rect x="127.95549" y="160.98747" width="143.60223" height="61.543812" id="rect5662"></rect><linearGradient id="linearGradient7135"><stop style="stop-color:#ff0000;stop-opacity:1;" offset="0" id="stop7137"></stop><stop style="stop-color:#df0000;stop-opacity:1;" offset="1" id="stop7139"></stop></linearGradient><linearGradient id="linearGradient7053"><stop style="stop-color:#ffffff;stop-opacity:1;" offset="0" id="stop7055"></stop><stop style="stop-color:#f3f3f3;stop-opacity:1;" offset="1" id="stop7057"></stop></linearGradient><linearGradient id="linearGradient4122"><stop style="stop-color:#ffff7f;stop-opacity:1;" offset="0" id="stop4124"></stop><stop id="stop8178" offset="0.69999999" style="stop-color:#efef5f;stop-opacity:1;"></stop><stop style="stop-color:#dfdf3f;stop-opacity:1;" offset="1" id="stop4126"></stop></linearGradient></defs><sodipodi:namedview id="namedview18" pagecolor="#ffffff" bordercolor="#666666" borderopacity="1.0" inkscape:pageshadow="2" inkscape:pageopacity="0.0" inkscape:pagecheckerboard="0" showgrid="false" inkscape:zoom="4.0672782" inkscape:cx="52.492106" inkscape:cy="44.009775" inkscape:window-width="1920" inkscape:window-height="1010" inkscape:window-x="3833" inkscape:window-y="-6" inkscape:window-maximized="1" inkscape:current-layer="svg16" fit-margin-top="0" fit-margin-left="0" fit-margin-right="0" fit-margin-bottom="0"></sodipodi:namedview><polygon points="462,483.11 462,545.11 490,545.11 470.399,483.11 " id="polygon2" style="fill:#000000;fill-opacity:1" transform="translate(0,-21.11)"></polygon><polygon points="534,545.11 562,545.11 562,483.11 553.602,483.11 " id="polygon4" style="fill:#000000;fill-opacity:1" transform="translate(0,-21.11)"></polygon><path d="m 511.999,523.35599 c 4.159,0 6.934,-3.001 11.093,-3.001 2.07,0 4.293,0.959 6.019,1.703 l 2.39,-8.114 c -2.823,-0.817 -5.207,-2.588 -8.408,-2.588 -4.159,0 -6.933,2.999 -11.093,2.999 v 0 c -4.161,0 -6.933,-2.999 -11.093,-2.999 -3.201,0 -5.584,1.771 -8.407,2.588 l 2.39,8.114 c 1.724,-0.744 3.948,-1.703 6.017,-1.703 4.16,0 6.934,3.001 11.092,3.001 z" id="path6" style="fill:#2563eb;fill-opacity:1"></path><path d="m 512.001,479.21999 c 4.13,0 6.883,-3 11.013,-3 4.131,0 6.884,3 11.014,3 3.409,0 5.891,-2.022 8.973,-2.736 l -3.09,10.429 c -1.016,0.347 -4.708,1.308 -5.885,1.308 -4.129,0 -6.882,-3.001 -11.013,-3.001 -4.13,0 -6.884,3.001 -11.013,3.001 v 0 c -4.13,0 -6.883,-3.001 -11.013,-3.001 -4.13,0 -6.884,3.001 -11.014,3.001 -1.176,0 -4.868,-0.96 -5.884,-1.308 L 481,476.48399 c 3.082,0.714 5.562,2.736 8.972,2.736 4.13,0 6.883,-3 11.014,-3 4.13,0 6.882,3 11.013,3 z" id="path8" style="fill:#2563eb;fill-opacity:1"></path><path d="m 512.001,496.78799 c 4.159,0 6.931,-3.001 11.089,-3.001 4.159,0 6.932,3.001 11.091,3.001 1.008,0 1.934,-0.175 2.819,-0.439 l -2.821,9.438 c -4.158,0 -6.93,-2.999 -11.09,-2.999 -4.158,0 -6.931,2.999 -11.089,2.999 v 0 c -4.158,0 -6.93,-2.999 -11.089,-2.999 -4.159,0 -6.931,2.999 -11.09,2.999 l -2.82,-9.438 c 0.885,0.265 1.812,0.439 2.819,0.439 4.159,0 6.931,-3.001 11.09,-3.001 4.159,0 6.931,3.001 11.089,3.001 z" id="path10" style="fill:#2563eb;fill-opacity:1"></path><text xml:space="preserve" transform="translate(462,440.88999)" id="text5660" style="font-style:normal;font-weight:normal;font-size:40px;line-height:1.25;font-family:sans-serif;white-space:pre;shape-inside:url(#rect5662);fill:#000000;fill-opacity:1;stroke:none" svgjs:data="{&quot;leading&quot;:&quot;1.3&quot;}"></text></svg></svg></g></svg>