<?xml version="1.0" encoding="UTF-8" standalone="no"?>
<!-- Created with Inkscape (http://www.inkscape.org/) -->

<svg
   version="1.0"
   width="208.86046"
   height="244.65999"
   id="svg2780"
   inkscape:version="1.1.1 (3bf5ae0d25, 2021-09-20)"
   sodipodi:docname="Wappen_Nuolen.svg"
   xmlns:inkscape="http://www.inkscape.org/namespaces/inkscape"
   xmlns:sodipodi="http://sodipodi.sourceforge.net/DTD/sodipodi-0.dtd"
   xmlns="http://www.w3.org/2000/svg"
   xmlns:svg="http://www.w3.org/2000/svg"
   xmlns:rdf="http://www.w3.org/1999/02/22-rdf-syntax-ns#"
   xmlns:cc="http://creativecommons.org/ns#"
   xmlns:dc="http://purl.org/dc/elements/1.1/">
  <metadata
     id="metadata27">
    <rdf:RDF>
      <cc:Work
         rdf:about="">
        <dc:format>image/svg+xml</dc:format>
        <dc:type
           rdf:resource="http://purl.org/dc/dcmitype/StillImage" />
      </cc:Work>
    </rdf:RDF>
  </metadata>
  <sodipodi:namedview
     pagecolor="#ffffff"
     bordercolor="#666666"
     borderopacity="1"
     objecttolerance="10"
     gridtolerance="10"
     guidetolerance="10"
     inkscape:pageopacity="0"
     inkscape:pageshadow="2"
     inkscape:window-width="1920"
     inkscape:window-height="1009"
     id="namedview25"
     showgrid="false"
     inkscape:zoom="2.8284271"
     inkscape:cx="99.171727"
     inkscape:cy="157.15448"
     inkscape:window-x="3832"
     inkscape:window-y="-8"
     inkscape:window-maximized="1"
     inkscape:current-layer="svg2780"
     inkscape:measure-start="104.255,149.787"
     inkscape:measure-end="104.255,126.383"
     showguides="true"
     inkscape:object-paths="true"
     inkscape:snap-intersection-paths="true"
     inkscape:snap-global="false"
     inkscape:pagecheckerboard="0" />
  <defs
     id="defs2782" />
  <path
     inkscape:connector-curvature="0"
     style="fill:#ffffff;fill-opacity:1;fill-rule:evenodd;stroke:#000000;stroke-width:2;stroke-linecap:butt;stroke-miterlimit:4;stroke-dashoffset:0;stroke-opacity:1"
     id="path4212-9"
     d="M 1,0.99999834 4.761095,159.00304 c 2.0869797,87.67371 119.607425,107.23883 173.214295,58.69537 15.39931,-13.94478 25.52445,-33.5099 26.12396,-58.69537 l 3.7611,-158.00304166 z"
     sodipodi:nodetypes="cssscc" />
  <g
     id="l64IuzCzcFayKAFXGR3f1MA"
     fill="#0000cb"
     transform="matrix(0.11904898,0,0,0.11904898,2.0155608,-1.669321)"
     style="stroke:none;stroke-opacity:0.61147904;stroke-width:55.59896439;stroke-miterlimit:4;stroke-dasharray:none">
    <g
       id="g9"
       style="stroke:#000000;stroke-opacity:1;stroke-width:16.79980794;stroke-miterlimit:4;stroke-dasharray:none">
      <path
         id="p18RcwgqrC"
         d="m 1253.6551,1500.1629 c 0,217.2588 -176.123,393.3818 -393.38171,393.3818 -217.25873,0 -393.38173,-176.123 -393.38173,-393.3818 0,-217.2587 176.123,-393.3817 393.38173,-393.3817 217.25871,0 393.38171,176.123 393.38171,393.3817 z M 796,1889"
         style="stroke:#000000;stroke-opacity:1;stroke-width:16.79980794;stroke-miterlimit:4;stroke-dasharray:none" />
    </g>
  </g>
  <g
     id="l1Un9r6Sl2XXlwfHgYKekLE"
     fill="#ffffff"
     transform="matrix(0.11904898,0,0,0.11904898,-210.51326,-1.669321)">
    <g
       id="g24" />
  </g>
  <path
     style="fill:none;stroke:#000000;stroke-width:2.001;stroke-linecap:butt;stroke-linejoin:miter;stroke-opacity:1;stroke-miterlimit:4;stroke-dasharray:none"
     d="M 3.9997163,113.50011 C 204.87479,114.49976 204.87479,113.99993 204.87479,113.99993"
     id="path1270" />
  <path
     style="fill:#ff0000;stroke:#000000;stroke-width:1px;stroke-linecap:butt;stroke-linejoin:miter;stroke-opacity:1;fill-opacity:1"
     d="m 3.75,113.375 201.31097,0.64597 2.89472,-113.04869817 H 0.92807765 Z"
     id="path1385" />
  <path
     id="pLkEbxMl8"
     d="m 101.46176,85.402114 c 0.98003,-2.060877 0.49003,-1.030436 0,0 z"
     sodipodi:nodetypes="cc"
     style="fill:#080707;stroke-width:0.0631167" />
  <g
     id="g13030"
     transform="matrix(2.0038078,0,0,2.0038078,-248.29427,-167.5929)">
    <path
       style="fill:#fffe02;fill-opacity:1;stroke:#fffe02;stroke-width:4.15748;stroke-miterlimit:4;stroke-dasharray:none;stroke-opacity:1"
       d="m 371.86137,411.33696 c -2.15096,-0.79569 -2.44241,-1.66284 -9.17312,-27.29313 -7.12123,-27.11739 -11.12687,-39.5441 -15.72095,-48.77109 -4.59324,-9.22531 -6.96715,-11.85771 -16.76853,-18.59438 -10.12067,-6.95611 -10.64717,-8.26041 -4.47508,-11.08608 10.21696,-4.67748 23.83443,-6.34504 31.23167,-3.82454 4.46636,1.52184 8.85738,6.16356 9.60609,10.15452 0.33641,1.79321 0.0397,5.23427 -0.78046,9.05086 -0.72777,3.38672 -1.10413,6.84797 -0.83635,7.69166 0.73534,2.31688 5.01928,1.96031 11.56969,-0.963 7.43009,-3.31589 15.15542,-3.89618 19.86733,-1.49234 6.07514,3.09931 9.53645,10.0277 9.53645,19.08886 0,6.33155 -2.21017,10.85273 -6.51503,13.3273 -4.73184,2.72001 -7.66638,3.0841 -15.82709,1.96367 -4.01806,-0.55166 -7.56409,-0.7445 -7.88006,-0.42853 -0.88888,0.88888 2.68051,10.4455 6.0285,16.14054 8.29388,14.10819 18.93604,17.42121 32.77042,10.20178 l 6.36664,-3.32241 5.36735,1.22078 c 14.92239,3.39402 25.1274,-0.48273 30.04779,-11.41477 1.66586,-3.70117 2.23241,-6.19157 2.27546,-10.0022 0.0525,-4.6483 -0.0862,-5.0944 -1.65358,-5.31746 -0.94099,-0.13392 -4.5597,0.65645 -8.04157,1.75638 -13.92512,4.39894 -25.23966,0.77992 -27.00652,-8.63818 -1.31865,-7.02901 1.79792,-16.71006 6.05529,-18.80962 3.57376,-1.76244 5.07122,-1.74173 13.00747,0.17994 4.42092,1.07047 8.55934,1.94631 9.19649,1.94631 1.69937,0 4.98698,-3.8575 4.98698,-5.85146 0,-1.68091 -0.8925,-3.03342 -8.1604,-12.36635 -7.07122,-9.08038 -4.82795,-13.63169 13.86943,-28.13924 5.38142,-4.17553 8.31282,-5.94394 9.85294,-5.94394 4.43601,0 24.98643,16.50866 27.71918,22.26751 1.83051,3.8575 1.04578,6.53296 -3.6105,12.30978 -7.13921,8.85726 -8.711,14.1494 -4.93687,16.6223 2.20466,1.44456 4.52043,1.19898 13.15746,-1.39527 6.13217,-1.84188 9.58397,-1.30213 13.67218,2.13788 4.25882,3.58355 5.99193,12.36052 3.5804,18.13212 -3.95356,9.4622 -13.79742,11.96875 -27.86993,7.09653 -6.87422,-2.38001 -7.11289,-2.40848 -8.17919,-0.97576 -1.53398,2.0611 -0.64066,8.97533 1.8248,14.12373 2.41424,5.04147 8.19028,10.33321 13.2514,12.14033 4.7569,1.69849 12.46347,1.75975 18.22683,0.14488 l 4.34457,-1.21733 6.24489,2.88664 c 8.30072,3.83695 16.36593,4.5481 21.79176,1.9215 4.29538,-2.07935 8.69114,-6.90286 12.0729,-13.24768 2.78301,-5.22147 5.55624,-12.75327 5.55624,-15.09019 0,-1.69472 -1.02936,-1.66951 -11.04941,0.27062 -4.11813,0.79737 -5.8501,0.80952 -8.3564,0.0586 -3.66621,-1.09842 -7.51776,-4.10733 -9.02225,-7.04837 -3.06348,-5.98858 -1.99319,-16.69823 2.22095,-22.22332 5.65877,-7.41916 12.65602,-8.60055 23.86527,-4.02935 10.9429,4.46259 13.94316,3.41724 12.44674,-4.33667 -1.77712,-9.20835 -0.14701,-16.00159 4.66134,-19.42543 1.27149,-0.90538 4.68374,-2.23148 7.58276,-2.94689 4.85573,-1.19827 5.82807,-1.20392 12.34235,-0.0717 7.87818,1.36925 14.88658,3.78499 17.93314,6.18142 2.74819,2.16173 1.77723,3.72412 -4.49382,7.23109 -6.91889,3.86927 -12.34198,8.98484 -16.92385,15.96418 -6.2687,9.54881 -11.14278,23.90597 -19.52437,57.51112 -5.95066,23.85865 -5.89572,23.69798 -8.31231,24.30451 -1.98657,0.4986 -3.0709,0.23875 -20.1533,-4.82956 -27.11241,-8.04418 -49.94432,-11.33635 -78.4736,-11.31522 -28.6469,0.0212 -48.66591,2.96993 -79.58912,11.72315 -19.64818,5.56168 -18.84763,5.38227 -20.79749,4.66096 z"
       id="path9879"
       transform="matrix(0.26458333,0,0,0.26458333,49.901308,14.052386)" />
    <path
       style="fill:#fffe02;fill-opacity:1;stroke:#fffe02;stroke-width:1.56094;stroke-miterlimit:4;stroke-dasharray:none;stroke-opacity:1"
       d="m 374.25791,429.24863 c -0.69104,-1.33632 -1.44169,-4.23434 -1.66811,-6.44005 -0.54422,-5.30145 -1.03678,-6.83523 11.08478,-10.69146 21.4803,-6.83352 45.60875,-12.27986 65.75205,-14.17375 12.44099,-1.16971 43.53929,-1.00314 56.01557,0.71853 24.1419,3.33146 59.3988,12.21447 65.53904,16.51495 1.72796,1.21022 -0.35406,3.94094 -0.35406,6.43172 0,1.7019 -0.50899,4.31254 -1.13108,5.80143 -1.41909,3.39636 -2.46598,3.43137 -12.62326,0.42216 -29.89815,-8.85767 -52.0237,-12.01327 -84.60274,-12.06627 -33.70526,-0.0548 -61.15823,4.11904 -86.25759,13.11432 -4.29337,1.53869 -8.41183,2.79772 -9.15215,2.79785 -0.74031,1.3e-4 -1.91141,-1.09312 -2.60245,-2.42943 z"
       id="path9918"
       transform="matrix(0.26458333,0,0,0.26458333,49.901308,14.052386)"
       sodipodi:nodetypes="sssssssssssss" />
    <path
       style="fill:#fffe02;fill-opacity:1;stroke:#fffe02;stroke-width:1.56094;stroke-miterlimit:4;stroke-dasharray:none;stroke-opacity:1"
       d="m 444.21207,458.17714 c -21.10951,-2.00686 -52.3409,-9.93447 -61.30029,-16.42462 -3.2199,-2.33248 -4.91502,-4.68559 -3.50046,-6.27653 1.85286,-2.08388 9.12188,-4.81185 11.8656,-4.83381 1.17809,-0.009 8.32084,2.38677 15.10868,4.91736 16.63965,6.20346 27.85831,9.92938 54.56238,11.87031 10.18458,0.74024 15.70386,0.7399 25.45535,-0.002 22.88802,-1.74036 36.38495,-6.20217 57.39588,-14.2724 7.95646,-3.05605 18.27748,-2.97984 20.26756,0.73865 0.64542,1.20598 -0.65338,3.72402 -1.76895,4.95859 -4.85977,5.3782 -33.03058,14.72449 -54.90019,18.21434 -9.59434,1.53101 -51.08834,2.25973 -63.18556,1.10967 z"
       id="path9957"
       transform="matrix(0.26458333,0,0,0.26458333,49.901308,14.052386)"
       sodipodi:nodetypes="csscsscsssscc" />
  </g>
  <path
     style="fill:#000000;fill-opacity:1;stroke:none;stroke-width:0.530174"
     d="M 82.785149,105.38964 C 64.677205,102.90646 48.71477,95.925035 47.566684,89.986312 47.28952,88.552548 44.327154,75.214882 42.974283,69.309501 42.37306,66.685153 41.442549,63.106473 40.906467,61.356888 40.370414,59.607324 39.15891,55.551496 38.214257,52.343941 33.818499,37.418378 29.680163,31.958022 18.994874,26.984932 c -3.958541,-1.842362 -3.834448,-2.727503 0.699545,-4.990203 16.023529,-7.996615 29.08034,-5.390142 28.786366,5.74648 -0.131054,4.96281 0.108807,5.132994 4.650257,3.298648 8.60974,-3.477628 16.119727,2.135278 16.090651,12.026033 -0.02143,7.329909 -3.593968,11.343736 -10.158445,11.413549 -5.291993,0.0563 -5.632375,1.784852 -1.358338,6.897968 4.049139,4.844065 8.737128,5.160046 14.261725,0.961267 1.940029,-1.474462 2.895062,-1.533855 6.254922,-0.389039 5.279261,1.798818 9.618677,0.469172 12.704601,-3.892858 2.755704,-3.895222 1.14801,-5.166718 -4.797548,-3.79433 -6.144925,1.418416 -11.581257,-1.513877 -12.885406,-6.950248 -2.11591,-8.82004 3.342003,-15.599984 10.9819,-13.641983 5.552654,1.423083 6.865574,0.591704 3.932075,-2.489872 -7.224527,-7.589161 -5.797171,-11.702759 7.268973,-20.948909 6.826978,-4.8310599 6.360038,-4.96257 19.304358,5.437133 5.71843,4.59431 5.90398,10.611104 0.47549,15.418018 -2.52082,2.232182 -0.77432,4.276707 2.37172,2.776476 8.06085,-3.843944 15.64465,4.514158 12.44758,13.718449 -2.15583,6.206614 -6.93111,8.33011 -14.38469,6.396655 -4.84124,-1.255786 -5.79403,1.194871 -2.04559,5.261459 3.34275,3.626451 6.39574,4.204069 12.21373,2.310751 l 3.52561,-1.14734 3.29451,2.2 c 5.16299,3.447712 8.9979,2.925099 13.15015,-1.792105 4.18179,-4.750748 3.41463,-7.141551 -2.29156,-7.141551 -6.16564,0 -9.27542,-3.632282 -9.27542,-10.833788 0,-9.996395 6.8614,-15.383032 15.91183,-12.491777 4.12526,1.317863 4.70272,0.970043 4.35732,-2.624527 -1.12065,-11.662823 13.01492,-14.746122 29.48594,-6.431583 4.6354,2.339947 4.56757,2.863602 -0.69492,5.363813 -12.56467,5.969463 -17.0487,15.503742 -24.92461,52.996388 -2.58325,12.297309 -3.04154,13.507829 -5.76466,15.226875 -6.23258,3.93446 -15.61565,7.149509 -29.2609,10.026069 -5.63587,1.18813 -33.028695,1.51841 -40.536891,0.48879 z m 34.860951,-2.14423 c 10.72147,-1.26995 22.66384,-4.624508 30.483,-8.562513 6.71579,-3.382307 -0.98567,-7.388199 -8.15171,-4.240117 -2.52433,1.108967 -6.41647,2.497626 -11.33217,4.043223 -4.5204,1.421281 -18.4667,3.177037 -25.28694,3.183485 -10.019657,0.01 -28.921753,-2.471572 -32.122332,-4.216268 -1.136867,-0.619717 -11.254389,-4.26218 -11.838917,-4.26218 -2.050645,0 -6.346625,2.33045 -6.199486,3.363052 0.454561,3.189881 18.703168,9.238058 32.238482,10.684868 8.618359,0.92122 24.460343,0.9244 32.210073,0.006 z m -4.37594,-7.691738 c 8.10402,-0.884781 24.65311,-4.977198 24.65311,-6.096465 0,-0.09879 0.13786,-0.538524 0.3062,-0.977398 0.64246,-1.674261 -3.85839,-2.875684 -17.27178,-4.61036 -19.06124,-2.465105 -29.41169,-2.019037 -50.884894,2.192987 -18.663245,3.660837 19.598679,12.06765 43.197364,9.491236 z M 55.58222,88.191181 c 25.590722,-9.43559 61.46588,-9.973172 89.56481,-1.34209 8.41031,2.583369 8.49046,2.561868 9.41966,-2.525519 0.5234,-2.865566 -0.67551,-3.656829 -9.3724,-6.185715 -23.95531,-6.965737 -46.316281,-8.469774 -67.710877,-4.554355 -9.753216,1.784952 -26.244753,6.391707 -28.023395,7.828076 -0.951481,0.76838 -0.543043,5.131833 0.650918,6.954074 1.07663,1.643144 0.491016,1.661818 5.471284,-0.174532 z M 58.598269,76.51357 c 30.876192,-9.407938 59.531011,-9.093039 90.396541,0.993348 6.62743,2.165735 6.74567,2.08398 8.47875,-5.86234 1.42407,-6.529328 3.49108,-14.327105 6.38101,-24.072204 3.31664,-11.183953 7.80715,-17.616777 14.75553,-21.137788 4.59169,-2.326781 4.08856,-3.848313 -1.98412,-6.000402 -12.8507,-4.554095 -21.64936,0.170724 -18.97039,10.187118 1.18857,4.443985 -0.62381,5.438796 -5.38974,2.958401 -9.18191,-4.77868 -16.58094,0.171527 -15.8274,10.588922 0.46057,6.367401 5.97171,9.116965 13.17774,6.574514 3.11011,-1.097305 3.43376,-0.497545 1.91249,3.544075 -4.4125,11.722937 -10.45668,15.094784 -19.20387,10.713158 -3.83964,-1.923335 -3.83964,-1.923335 -6.37239,-1.060335 -8.89624,3.031261 -17.71891,-3.024307 -17.71891,-12.161651 0,-2.361567 0.51646,-2.545858 3.52293,-1.257149 9.12193,3.910131 16.62369,0.924337 16.62369,-6.616453 0,-6.964515 -4.69798,-10.280876 -11.02074,-7.779663 -7.35444,2.909329 -9.24108,-0.959103 -3.56836,-7.316664 4.99868,-5.602126 4.05862,-8.002667 -6.14348,-15.687791 -6.09946,-4.5946717 -6.34162,-4.6447067 -9.808734,-2.026992 -12.773789,9.644387 -13.868077,12.112777 -8.161408,18.409884 3.411259,3.764193 3.745394,4.795312 2.180223,6.728226 -1.08704,1.342451 -1.073745,1.343432 -8.715557,-0.648673 -4.51707,-1.177537 -7.62826,1.684 -8.193598,7.53612 -0.738544,7.645109 5.974738,11.200284 14.994021,7.940429 5.306117,-1.917804 5.769676,-1.5055 4.531307,4.030279 -1.717729,7.678512 -7.89951,11.005033 -16.460223,8.857492 -3.446124,-0.864482 -3.446124,-0.864482 -6.595989,1.055907 -8.317824,5.071176 -15.570607,0.906783 -19.947023,-11.453185 -0.895064,-2.527883 -0.476855,-2.888289 2.44474,-2.106883 9.602182,2.5682 15.218015,-2.654845 12.872006,-11.97169 -1.797898,-7.140068 -8.070001,-9.37746 -15.6475,-5.581767 -5.344573,2.677187 -6.794651,1.712815 -5.224109,-3.474322 2.675343,-8.836031 -5.187015,-13.408059 -17.10096,-9.944337 -8.496876,2.470294 -8.925389,3.758202 -2.54728,7.655748 4.851309,2.964553 6.783976,5.042221 9.214954,9.906325 2.772713,5.547782 5.095827,13.058675 10.180863,32.915749 2.460645,9.608719 1.300435,9.109611 12.934986,5.564594 z"
     id="path6187" />
</svg>
