<?xml version="1.0" encoding="UTF-8" standalone="no"?>
<!-- Created with Inkscape (http://www.inkscape.org/) -->

<svg
   version="1.0"
   width="1200mm"
   height="600mm"
   id="svg2780"
   inkscape:version="1.1.1 (3bf5ae0d25, 2021-09-20)"
   sodipodi:docname="quiz_wappen_wangen.svg"
   inkscape:export-filename="C:\repos\wasserrad\docs\images\quiz\quiz_wappen_wangen.png"
   inkscape:export-xdpi="25.4"
   inkscape:export-ydpi="25.4"
   xmlns:inkscape="http://www.inkscape.org/namespaces/inkscape"
   xmlns:sodipodi="http://sodipodi.sourceforge.net/DTD/sodipodi-0.dtd"
   xmlns="http://www.w3.org/2000/svg"
   xmlns:svg="http://www.w3.org/2000/svg"
   xmlns:rdf="http://www.w3.org/1999/02/22-rdf-syntax-ns#"
   xmlns:cc="http://creativecommons.org/ns#"
   xmlns:dc="http://purl.org/dc/elements/1.1/">
  <metadata
     id="metadata27">
    <rdf:RDF>
      <cc:Work
         rdf:about="">
        <dc:format>image/svg+xml</dc:format>
        <dc:type
           rdf:resource="http://purl.org/dc/dcmitype/StillImage" />
      </cc:Work>
    </rdf:RDF>
  </metadata>
  <sodipodi:namedview
     pagecolor="#f1f1f1"
     bordercolor="#666666"
     borderopacity="1"
     objecttolerance="10"
     gridtolerance="10"
     guidetolerance="10"
     inkscape:pageopacity="1"
     inkscape:pageshadow="2"
     inkscape:window-width="1920"
     inkscape:window-height="1010"
     id="namedview25"
     showgrid="false"
     inkscape:zoom="0.125"
     inkscape:cx="812"
     inkscape:cy="1096"
     inkscape:window-x="3833"
     inkscape:window-y="-6"
     inkscape:window-maximized="1"
     inkscape:current-layer="svg2780"
     inkscape:measure-start="104.255,149.787"
     inkscape:measure-end="104.255,126.383"
     showguides="true"
     inkscape:object-paths="true"
     inkscape:snap-intersection-paths="true"
     inkscape:snap-global="false"
     inkscape:pagecheckerboard="0"
     units="mm"
     width="1024mm"
     inkscape:document-units="mm" />
  <defs
     id="defs2782">
    <rect
       x="3592"
       y="2272"
       width="3900"
       height="944"
       id="rect27902" />
    <rect
       x="292"
       y="1448"
       width="924"
       height="284"
       id="rect8060" />
  </defs>
  <g
     id="g6826"
     transform="matrix(1.2499999,0,0,1.2499999,-20.863852,-26.42948)">
    <path
       inkscape:connector-curvature="0"
       style="fill:#1b63c6;fill-opacity:1;fill-rule:evenodd;stroke:#000000;stroke-width:7.65885;stroke-linecap:butt;stroke-miterlimit:4;stroke-dashoffset:0;stroke-opacity:1"
       id="path4212"
       d="m 219.89759,347.82943 14.4028,605.06087 c 10.28772,432.1857 753.06331,432.1857 763.35101,0 l 14.4029,-605.06087 z" />
    <path
       style="opacity:1;fill:#009645;fill-opacity:1;stroke:#000000;stroke-width:3.82943;stroke-miterlimit:8;stroke-dasharray:none;stroke-dashoffset:4.58;stroke-opacity:1"
       d="M 655.04089,1275.474 C 695.87801,1094.7719 815.93413,977.6539 998.1499,931.9491 997.8098,1158.3779 840.1815,1254.2783 655.04089,1275.474 Z"
       id="path7675"
       inkscape:connector-curvature="0"
       sodipodi:nodetypes="ccc" />
    <path
       style="opacity:1;fill:#ffffff;fill-opacity:1;stroke:#000000;stroke-width:3.82943;stroke-miterlimit:8;stroke-dasharray:none;stroke-dashoffset:4.58;stroke-opacity:1"
       d="m 668.31675,689.5887 c 11.60174,-12.5931 15.57562,-26.8372 14.89298,-41.9712 -1.23514,-27.3828 -27.91528,-51.131 -63.97208,-54.1563 -43.16728,-3.6219 -99.7499,19.416 -163.48419,77.1728 -34.91665,31.6419 -70.28148,48.8131 -106.11238,49.756 15.6749,21.3859 31.8344,41.7324 33.4668,72.7724 8.2401,-2.3976 15.9349,-6.5496 27.79742,-14.8929 14.66207,17.5789 29.76291,34.7973 19.80088,72.6032 -31.17117,26.7036 -60.2031,31.8144 -89.0092,34.6464 63.44208,49.6025 163.53645,13.2669 190.06147,-84.192 9.47814,-34.8251 21.6029,-55.426 38.06162,-62.3208 z"
       id="path7681"
       inkscape:connector-curvature="0"
       sodipodi:nodetypes="cssscccccscc" />
    <path
       style="opacity:1;fill:none;fill-opacity:1;stroke:#000000;stroke-width:3.82943;stroke-miterlimit:8;stroke-dasharray:none;stroke-dashoffset:4.58;stroke-opacity:1"
       d="m 570.15855,651.6792 c -33.68378,21.2815 -61.22796,56.9467 -79.20354,111.3588 -12.09499,36.6116 -33.60023,64.8412 -60.24883,87.8347"
       id="path7683"
       inkscape:connector-curvature="0"
       sodipodi:nodetypes="csc" />
    <path
       style="opacity:1;fill:none;fill-opacity:1;stroke:#000000;stroke-width:3.82943;stroke-miterlimit:8;stroke-dasharray:none;stroke-dashoffset:4.58;stroke-opacity:1"
       d="m 556.61947,643.2172 c -37.94842,14.3739 -66.83666,39.6435 -89.35782,76.4959 -13.20115,21.6016 -30.94919,40.5888 -56.35635,58.5564"
       id="path7685"
       inkscape:connector-curvature="0"
       sodipodi:nodetypes="csc" />
    <path
       style="opacity:1;fill:#feeb00;fill-opacity:1;stroke:#000000;stroke-width:3.82943;stroke-miterlimit:8;stroke-dasharray:none;stroke-dashoffset:4.58;stroke-opacity:1"
       d="m 719.98299,589.5352 c 51.13216,-3.0895 59.66056,-50.8918 59.66056,-72.5503 0,-47.16526 -39.71013,-88.3189 -92.16668,-108.20123 -26.07334,9.32509 -41.71244,19.11621 -18.60336,52.5854 22.05814,11.66396 45.32784,21.82124 58.55803,50.12803 12.02445,25.7271 4.35716,55.939 -7.44855,78.0381 z"
       id="path7758"
       inkscape:connector-curvature="0"
       sodipodi:nodetypes="csccsc" />
    <path
       id="path7702-7-2"
       style="opacity:1;fill:#feeb00;fill-opacity:1;stroke:#000000;stroke-width:3.82943;stroke-miterlimit:8;stroke-dasharray:none;stroke-dashoffset:4.58;stroke-opacity:1"
       d="m 669.34407,480.69976 c 7.0975,-17.26193 6.3866,-34.33408 -2.51788,-51.20713 17.69444,-7.13431 29.26088,-19.71132 34.98748,-37.47515 -13.87544,6.07044 -27.06688,8.74243 -34.6421,6.81603 -37.75224,-8.77455 -78.33918,-5.16219 -114.96908,15.87708 -37.72692,21.66933 -57.96858,56.67429 -65.29091,93.64191 18.25775,25.5639 37.06769,33.8527 60.04965,8.3503 3.55424,-30.54832 39.89856,-63.80021 75.4434,-63.80021 19.68348,0 37.1741,10.33177 46.93944,27.79717 z"
       inkscape:connector-curvature="0"
       sodipodi:nodetypes="ccccsccsc" />
    <path
       id="path7702-7-0"
       style="opacity:1;fill:#feeb00;fill-opacity:1;stroke:#000000;stroke-width:3.82943;stroke-miterlimit:8;stroke-dasharray:none;stroke-dashoffset:4.58;stroke-opacity:1"
       d="m 567.16845,511.4408 c -18.433,-2.9281 -34.88172,1.6983 -49.24832,14.2518 -11.02028,-15.5738 -25.9244,-23.9303 -44.52987,-25.4088 6.66187,11.5502 10.85968,23.6494 10.52619,37.1181 -0.76047,30.7108 11.63804,57.4438 27.78056,78.8061 17.30796,22.9047 42.30294,43.6411 71.1119,53.3612 l 68.77176,-3.7633 v -25.1307 c 0,-4.2781 -3.29222,-6.1571 -7.25224,-7.0765 -50.64132,-11.7575 -93.25406,-44.2642 -97.07612,-93.2183 -0.9446,-12.0989 10.4119,-21.2599 19.91614,-28.9396 z"
       inkscape:connector-curvature="0"
       sodipodi:nodetypes="cccsscccssc" />
    <circle
       style="opacity:1;fill:#feeb00;fill-opacity:1;stroke:#000000;stroke-width:3.82943;stroke-miterlimit:8;stroke-dasharray:none;stroke-dashoffset:4.58;stroke-opacity:1"
       id="path7679"
       cx="-614.33203"
       cy="707.68994"
       r="60.341255"
       transform="scale(-1,1)" />
    <path
       id="path7677-4"
       style="opacity:1;fill:#feeb00;fill-opacity:1;stroke:#000000;stroke-width:3.82943;stroke-miterlimit:8;stroke-dasharray:none;stroke-dashoffset:4.58;stroke-opacity:1"
       d="M 653.08985,1150.932 V 747.9759 c 0,-20.8688 -19.84316,-33.1707 -38.75784,-33.1707 -18.91468,0 -38.75784,12.3019 -38.75784,33.1707 v 402.9565 l 38.75784,90.7115 z"
       inkscape:connector-curvature="0"
       sodipodi:nodetypes="cscsccc" />
    <path
       style="opacity:1;fill:#009645;fill-opacity:1;stroke:#000000;stroke-width:3.82943;stroke-miterlimit:8;stroke-dasharray:none;stroke-dashoffset:4.58;stroke-opacity:1"
       d="M 576.91105,1275.474 C 536.07393,1094.7719 416.0178,977.6539 233.80207,931.9491 c 0.34005,226.4288 157.96836,322.3292 343.10898,343.5249 z"
       id="path7675-4"
       inkscape:connector-curvature="0"
       sodipodi:nodetypes="ccc" />
    <path
       inkscape:connector-curvature="0"
       style="fill:none;fill-opacity:1;fill-rule:evenodd;stroke:#000000;stroke-width:7.65885;stroke-linecap:butt;stroke-miterlimit:4;stroke-dashoffset:0;stroke-opacity:1"
       id="path4212-9"
       d="m 219.89759,347.82943 14.4028,605.06087 c 10.28772,432.1857 753.06331,432.1857 763.35101,0 l 14.4029,-605.06087 z" />
  </g>
  <g
     id="g6840"
     transform="matrix(1.2499998,0,0,1.2499998,-98.88177,-20.892571)">
    <path
       inkscape:connector-curvature="0"
       style="fill:#1b63c6;fill-opacity:1;fill-rule:evenodd;stroke:#000000;stroke-width:7.65885;stroke-linecap:butt;stroke-miterlimit:4;stroke-dashoffset:0;stroke-opacity:1"
       id="path4212-8"
       d="m 1507.9216,343.39993 14.4028,605.06087 c 10.2878,432.1857 753.0633,432.1857 763.3511,0 l 14.4029,-605.06087 z" />
    <path
       style="fill:#009645;fill-opacity:1;stroke:#000000;stroke-width:3.82943;stroke-miterlimit:8;stroke-dasharray:none;stroke-dashoffset:4.58;stroke-opacity:1"
       d="m 1943.0649,1271.0445 c 40.8372,-180.7021 160.8933,-297.8201 343.109,-343.5249 -0.34,226.4288 -157.9683,322.3292 -343.109,343.5249 z"
       id="path7675-2"
       inkscape:connector-curvature="0"
       sodipodi:nodetypes="ccc" />
    <path
       style="fill:#feeb00;fill-opacity:1;stroke:#000000;stroke-width:3.82943;stroke-miterlimit:8;stroke-dasharray:none;stroke-dashoffset:4.58;stroke-opacity:1"
       d="m 1850.0153,685.1592 c -11.6018,-12.5931 -15.5756,-26.8372 -14.893,-41.9712 1.2351,-27.3828 27.9153,-51.131 63.9721,-54.1563 43.1673,-3.6219 99.7499,19.416 163.4842,77.1728 34.9166,31.6419 70.2815,48.8131 106.1124,49.756 -15.6749,21.3859 -31.8344,41.7324 -33.4668,72.7724 -8.2401,-2.3976 -15.9349,-6.5496 -27.7975,-14.8929 -14.662,17.5789 -29.7629,34.7973 -19.8008,72.6032 31.1711,26.7036 60.2031,31.8144 89.0091,34.6464 -63.442,49.6025 -163.5364,13.2669 -190.0614,-84.192 -9.4782,-34.8251 -21.6029,-55.426 -38.0616,-62.3208 z"
       id="path7681-4"
       inkscape:connector-curvature="0"
       sodipodi:nodetypes="cssscccccscc" />
    <path
       style="fill:none;fill-opacity:1;stroke:#000000;stroke-width:3.82943;stroke-miterlimit:8;stroke-dasharray:none;stroke-dashoffset:4.58;stroke-opacity:1"
       d="m 1948.1735,647.2497 c 33.6838,21.2815 61.2279,56.9467 79.2035,111.3588 12.095,36.6116 33.6003,64.8412 60.2489,87.8347"
       id="path7683-2"
       inkscape:connector-curvature="0"
       sodipodi:nodetypes="csc" />
    <path
       style="fill:none;fill-opacity:1;stroke:#000000;stroke-width:3.82943;stroke-miterlimit:8;stroke-dasharray:none;stroke-dashoffset:4.58;stroke-opacity:1"
       d="m 1961.7126,638.7877 c 37.9484,14.3739 66.8366,39.6435 89.3578,76.4959 13.2011,21.6016 30.9492,40.5888 56.3563,58.5564"
       id="path7685-6"
       inkscape:connector-curvature="0"
       sodipodi:nodetypes="csc" />
    <path
       style="fill:#feeb00;fill-opacity:1;stroke:#000000;stroke-width:3.82943;stroke-miterlimit:8;stroke-dasharray:none;stroke-dashoffset:4.58;stroke-opacity:1"
       d="m 1798.349,585.1057 c -51.1321,-3.0895 -59.6605,-50.8918 -59.6605,-72.5503 0,-47.16526 39.7101,-88.3189 92.1667,-108.20123 26.0733,9.32509 41.7124,19.11621 18.6033,52.5854 -22.0581,11.66396 -45.3278,21.82124 -58.558,50.12803 -12.0245,25.7271 -4.3572,55.939 7.4485,78.0381 z"
       id="path7758-2"
       inkscape:connector-curvature="0"
       sodipodi:nodetypes="csccsc" />
    <path
       id="path7702-7-2-7"
       style="fill:#feeb00;fill-opacity:1;stroke:#000000;stroke-width:3.82943;stroke-miterlimit:8;stroke-dasharray:none;stroke-dashoffset:4.58;stroke-opacity:1"
       d="m 1848.988,476.27026 c -7.0975,-17.26193 -6.3866,-34.33408 2.5178,-51.20713 -17.6944,-7.13431 -29.2608,-19.71132 -34.9874,-37.47515 13.8754,6.07044 27.0668,8.74243 34.6421,6.81603 37.7522,-8.77455 78.3391,-5.16219 114.969,15.87708 37.727,21.66933 57.9686,56.67429 65.291,93.64191 -18.2578,25.5639 -37.0677,33.8527 -60.0497,8.3503 -3.5542,-30.54832 -39.8986,-63.80021 -75.4434,-63.80021 -19.6835,0 -37.1741,10.33177 -46.9394,27.79717 z"
       inkscape:connector-curvature="0"
       sodipodi:nodetypes="ccccsccsc" />
    <path
       id="path7702-7-0-5"
       style="fill:#feeb00;fill-opacity:1;stroke:#000000;stroke-width:3.82943;stroke-miterlimit:8;stroke-dasharray:none;stroke-dashoffset:4.58;stroke-opacity:1"
       d="m 1951.1636,507.0113 c 18.433,-2.9281 34.8817,1.6983 49.2483,14.2518 11.0203,-15.5738 25.9244,-23.9303 44.5299,-25.4088 -6.6619,11.5502 -10.8597,23.6494 -10.5262,37.1181 0.7605,30.7108 -11.6381,57.4438 -27.7806,78.8061 -17.3079,22.9047 -42.3029,43.6411 -71.1119,53.3612 l -68.7717,-3.7633 v -25.1307 c 0,-4.2781 3.2922,-6.1571 7.2522,-7.0765 50.6413,-11.7575 93.2541,-44.2642 97.0761,-93.2183 0.9446,-12.0989 -10.4119,-21.2599 -19.9161,-28.9396 z"
       inkscape:connector-curvature="0"
       sodipodi:nodetypes="cccsscccssc" />
    <circle
       style="fill:#feeb00;fill-opacity:1;stroke:#000000;stroke-width:3.82943;stroke-miterlimit:8;stroke-dasharray:none;stroke-dashoffset:4.58;stroke-opacity:1"
       id="path7679-6"
       cx="1904"
       cy="703.26044"
       r="60.341255" />
    <path
       id="path7677-4-8"
       style="fill:#feeb00;fill-opacity:1;stroke:#000000;stroke-width:3.82943;stroke-miterlimit:8;stroke-dasharray:none;stroke-dashoffset:4.58;stroke-opacity:1"
       d="M 1865.2422,1146.5025 V 743.5464 c 0,-20.8688 19.8431,-33.1707 38.7578,-33.1707 18.9147,0 38.7579,12.3019 38.7579,33.1707 v 402.9565 L 1904,1237.2144 Z"
       inkscape:connector-curvature="0"
       sodipodi:nodetypes="cscsccc" />
    <path
       style="fill:#009645;fill-opacity:1;stroke:#000000;stroke-width:3.82943;stroke-miterlimit:8;stroke-dasharray:none;stroke-dashoffset:4.58;stroke-opacity:1"
       d="m 1864.9351,1271.0445 c -40.8371,-180.7021 -160.8933,-297.8201 -343.109,-343.5249 0.3401,226.4288 157.9684,322.3292 343.109,343.5249 z"
       id="path7675-4-0"
       inkscape:connector-curvature="0"
       sodipodi:nodetypes="ccc" />
    <path
       inkscape:connector-curvature="0"
       style="fill:none;fill-opacity:1;fill-rule:evenodd;stroke:#000000;stroke-width:7.65885;stroke-linecap:butt;stroke-miterlimit:4;stroke-dashoffset:0;stroke-opacity:1"
       id="path4212-9-8"
       d="m 1507.9216,343.39993 14.4028,605.06087 c 10.2878,432.1857 753.0633,432.1857 763.3511,0 l 14.4029,-605.06087 z" />
  </g>
  <g
     id="g6854"
     transform="matrix(1.2499998,0,0,1.2499998,-171.86961,-0.892575)">
    <path
       inkscape:connector-curvature="0"
       style="fill:#1b63c6;fill-opacity:1;fill-rule:evenodd;stroke:#000000;stroke-width:7.65885;stroke-linecap:butt;stroke-miterlimit:4;stroke-dashoffset:0;stroke-opacity:1"
       id="path4212-8-3"
       d="m 2791.9216,327.39993 14.4028,605.06087 c 10.2878,432.1857 753.0633,432.1857 763.3511,0 l 14.4029,-605.06087 z" />
    <path
       style="fill:#009645;fill-opacity:1;stroke:#000000;stroke-width:3.82943;stroke-miterlimit:8;stroke-dasharray:none;stroke-dashoffset:4.58;stroke-opacity:1"
       d="m 3227.0649,1255.0445 c 40.8372,-180.7021 160.8933,-297.8201 343.109,-343.5249 -0.34,226.4288 -157.9683,322.3292 -343.109,343.5249 z"
       id="path7675-2-8"
       inkscape:connector-curvature="0"
       sodipodi:nodetypes="ccc" />
    <path
       style="fill:#ffffff;fill-opacity:1;stroke:#000000;stroke-width:3.82943;stroke-miterlimit:8;stroke-dasharray:none;stroke-dashoffset:4.58;stroke-opacity:1"
       d="m 3134.0153,669.1592 c -11.6018,-12.5931 -15.5756,-26.8372 -14.893,-41.9712 1.2351,-27.3828 27.9153,-51.131 63.9721,-54.1563 43.1673,-3.6219 99.7499,19.416 163.4842,77.1728 34.9166,31.6419 70.2815,48.8131 106.1124,49.756 -15.6749,21.3859 -31.8344,41.7324 -33.4668,72.7724 -8.2401,-2.3976 -15.9349,-6.5496 -27.7975,-14.8929 -14.662,17.5789 -29.7629,34.7973 -19.8008,72.6032 31.1711,26.7036 60.2031,31.8144 89.0091,34.6464 -63.442,49.6025 -163.5364,13.2669 -190.0614,-84.192 -9.4782,-34.8251 -21.6029,-55.426 -38.0616,-62.3208 z"
       id="path7681-4-8"
       inkscape:connector-curvature="0"
       sodipodi:nodetypes="cssscccccscc" />
    <path
       style="fill:none;fill-opacity:1;stroke:#000000;stroke-width:3.82943;stroke-miterlimit:8;stroke-dasharray:none;stroke-dashoffset:4.58;stroke-opacity:1"
       d="m 3232.1735,631.2497 c 33.6838,21.2815 61.2279,56.9467 79.2035,111.3588 12.095,36.6116 33.6003,64.8412 60.2489,87.8347"
       id="path7683-2-0"
       inkscape:connector-curvature="0"
       sodipodi:nodetypes="csc" />
    <path
       style="fill:none;fill-opacity:1;stroke:#000000;stroke-width:3.82943;stroke-miterlimit:8;stroke-dasharray:none;stroke-dashoffset:4.58;stroke-opacity:1"
       d="m 3245.7126,622.7877 c 37.9484,14.3739 66.8366,39.6435 89.3578,76.4959 13.2011,21.6016 30.9492,40.5888 56.3563,58.5564"
       id="path7685-6-5"
       inkscape:connector-curvature="0"
       sodipodi:nodetypes="csc" />
    <path
       style="fill:#feeb00;fill-opacity:1;stroke:#000000;stroke-width:3.82943;stroke-miterlimit:8;stroke-dasharray:none;stroke-dashoffset:4.58;stroke-opacity:1"
       d="m 3082.349,569.1057 c -51.1321,-3.0895 -59.6605,-50.8918 -59.6605,-72.5503 0,-47.16526 39.7101,-88.3189 92.1667,-108.20123 26.0733,9.32509 41.7124,19.11621 18.6033,52.5854 -22.0581,11.66396 -45.3278,21.82124 -58.558,50.12803 -12.0245,25.7271 -4.3572,55.939 7.4485,78.0381 z"
       id="path7758-2-3"
       inkscape:connector-curvature="0"
       sodipodi:nodetypes="csccsc" />
    <path
       id="path7702-7-2-7-0"
       style="fill:#feeb00;fill-opacity:1;stroke:#000000;stroke-width:3.82943;stroke-miterlimit:8;stroke-dasharray:none;stroke-dashoffset:4.58;stroke-opacity:1"
       d="m 3132.988,460.27026 c -7.0975,-17.26193 -6.3866,-34.33408 2.5178,-51.20713 -17.6944,-7.13431 -29.2608,-19.71132 -34.9874,-37.47515 13.8754,6.07044 27.0668,8.74243 34.6421,6.81603 37.7522,-8.77455 78.3391,-5.16219 114.969,15.87708 37.727,21.66933 57.9686,56.67429 65.291,93.64191 -18.2578,25.5639 -37.0677,33.8527 -60.0497,8.3503 -3.5542,-30.54832 -39.8986,-63.80021 -75.4434,-63.80021 -19.6835,0 -37.1741,10.33177 -46.9394,27.79717 z"
       inkscape:connector-curvature="0"
       sodipodi:nodetypes="ccccsccsc" />
    <path
       id="path7702-7-0-5-8"
       style="fill:#feeb00;fill-opacity:1;stroke:#000000;stroke-width:3.82943;stroke-miterlimit:8;stroke-dasharray:none;stroke-dashoffset:4.58;stroke-opacity:1"
       d="m 3235.1636,491.0113 c 18.433,-2.9281 34.8817,1.6983 49.2483,14.2518 11.0203,-15.5738 25.9244,-23.9303 44.5299,-25.4088 -6.6619,11.5502 -10.8597,23.6494 -10.5262,37.1181 0.7605,30.7108 -11.6381,57.4438 -27.7806,78.8061 -17.3079,22.9047 -42.3029,43.6411 -71.1119,53.3612 l -68.7717,-3.7633 v -25.1307 c 0,-4.2781 3.2922,-6.1571 7.2522,-7.0765 50.6413,-11.7575 93.2541,-44.2642 97.0761,-93.2183 0.9446,-12.0989 -10.4119,-21.2599 -19.9161,-28.9396 z"
       inkscape:connector-curvature="0"
       sodipodi:nodetypes="cccsscccssc" />
    <circle
       style="fill:#feeb00;fill-opacity:1;stroke:#000000;stroke-width:3.82943;stroke-miterlimit:8;stroke-dasharray:none;stroke-dashoffset:4.58;stroke-opacity:1"
       id="path7679-6-0"
       cx="3188"
       cy="687.26044"
       r="60.341255" />
    <path
       id="path7677-4-8-1"
       style="fill:#feeb00;fill-opacity:1;stroke:#000000;stroke-width:3.82943;stroke-miterlimit:8;stroke-dasharray:none;stroke-dashoffset:4.58;stroke-opacity:1"
       d="M 3149.2422,1130.5025 V 727.5464 c 0,-20.8688 19.8431,-33.1707 38.7578,-33.1707 18.9147,0 38.7579,12.3019 38.7579,33.1707 v 402.9565 L 3188,1221.2144 Z"
       inkscape:connector-curvature="0"
       sodipodi:nodetypes="cscsccc" />
    <path
       style="fill:#009645;fill-opacity:1;stroke:#000000;stroke-width:3.82943;stroke-miterlimit:8;stroke-dasharray:none;stroke-dashoffset:4.58;stroke-opacity:1"
       d="m 3148.9351,1255.0445 c -40.8371,-180.7021 -160.8933,-297.8201 -343.109,-343.5249 0.3401,226.4288 157.9684,322.3292 343.109,343.5249 z"
       id="path7675-4-0-1"
       inkscape:connector-curvature="0"
       sodipodi:nodetypes="ccc" />
    <path
       inkscape:connector-curvature="0"
       style="fill:none;fill-opacity:1;fill-rule:evenodd;stroke:#000000;stroke-width:7.65885;stroke-linecap:butt;stroke-miterlimit:4;stroke-dashoffset:0;stroke-opacity:1"
       id="path4212-9-8-2"
       d="m 2791.9216,327.39993 14.4028,605.06087 c 10.2878,432.1857 753.0633,432.1857 763.3511,0 l 14.4029,-605.06087 z" />
  </g>
  <text
     xml:space="preserve"
     style="font-style:normal;font-weight:normal;font-size:240px;line-height:1.25;font-family:sans-serif;fill:#000000;fill-opacity:1;stroke:none"
     x="667.07477"
     y="1974.8427"
     id="text11612"><tspan
       sodipodi:role="line"
       id="tspan11610"
       x="667.07477"
       y="1974.8427"
       style="font-size:240px">A</tspan></text>
  <text
     xml:space="preserve"
     style="font-style:normal;font-weight:normal;font-size:240px;line-height:1.25;font-family:sans-serif;fill:#000000;fill-opacity:1;stroke:none"
     x="2191.8796"
     y="1974.8427"
     id="text11612-0"><tspan
       sodipodi:role="line"
       id="tspan11610-7"
       x="2191.8796"
       y="1974.8427"
       style="font-size:240px">B</tspan></text>
  <text
     xml:space="preserve"
     style="font-style:normal;font-weight:normal;font-size:240px;line-height:1.25;font-family:sans-serif;fill:#000000;fill-opacity:1;stroke:none"
     x="3727.2898"
     y="1974.8427"
     id="text11612-1"><tspan
       sodipodi:role="line"
       id="tspan11610-4"
       x="3727.2898"
       y="1974.8427"
       style="font-size:240px">C</tspan></text>
  <text
     xml:space="preserve"
     id="text27900"
     style="font-style:normal;font-weight:normal;font-size:40px;line-height:1.25;font-family:sans-serif;white-space:pre;shape-inside:url(#rect27902);fill:#000000;fill-opacity:1;stroke:none" />
</svg>
