<svg xmlns="http://www.w3.org/2000/svg" data-name="Layer 1" viewBox="0 0 48 60" x="0px" y="0px"><title>superhero solid icons</title><path d="M23.67,9.64a4.82,4.82,0,1,0-4.82-4.82A4.82,4.82,0,0,0,23.67,9.64Z"/><path d="M17.16,26.74a3.38,3.38,0,0,1-3.22-.48,19.09,19.09,0,0,1-1.81-1.57L8,38s2.12.24,5.27.53Z"/><path d="M28.68,26.35a2.33,2.33,0,0,0-.11-.28c.65-3.6,1.37-7.24,2.15-10.86,1.37.87,2.2,1.84,2.27,2.69.1,1.07-.93,2.48-2.9,4a2.14,2.14,0,0,0,1.3,3.85,2.13,2.13,0,0,0,1.3-.44c3.27-2.5,4.81-5.11,4.58-7.77a7,7,0,0,0-2.36-4.47,14.19,14.19,0,0,0-3.25-2.24,2,2,0,0,0-.61-.19,1.68,1.68,0,0,0-.65-.1H16.94a1.73,1.73,0,0,0-.66.11,1.82,1.82,0,0,0-.57.19,13.86,13.86,0,0,0-3.25,2.23,7,7,0,0,0-2.35,4.47c-.24,2.66,1.3,5.27,4.57,7.77a2.15,2.15,0,0,0,3-.4,2.15,2.15,0,0,0-.41-3c-2-1.5-3-2.91-2.9-4,.07-.84.89-1.81,2.25-2.68.76,3.56,1.47,7.14,2.12,10.68a2.88,2.88,0,0,0-.13.31l-5.94,18a2.76,2.76,0,0,0,1.76,3.49,2.64,2.64,0,0,0,.87.14A2.78,2.78,0,0,0,17.94,46L23.63,28.7l5.74,17.4A2.76,2.76,0,0,0,32,48a2.93,2.93,0,0,0,.87-.14,2.76,2.76,0,0,0,1.76-3.49ZM26,20.49,23.69,19.3l-2.27,1.19L21.85,18,20,16.18l2.53-.37,1.14-2.3,1.13,2.3,2.53.37L25.52,18Z"/><path d="M21.47,39.14q2.18.12,4.38.18l-2.22-6.73Z"/><path d="M33.43,26.26a3.35,3.35,0,0,1-2,.69,3.4,3.4,0,0,1-1.31-.26L34.2,39.2A17,17,0,0,0,40,38L35.5,24.43A20,20,0,0,1,33.43,26.26Z"/><text x="0" y="63" fill="#000000" font-size="5px" font-weight="bold" font-family="'Helvetica Neue', Helvetica, Arial-Unicode, Arial, Sans-serif">Created by tulpahn</text><text x="0" y="68" fill="#000000" font-size="5px" font-weight="bold" font-family="'Helvetica Neue', Helvetica, Arial-Unicode, Arial, Sans-serif">from the Noun Project</text></svg>