<?xml version="1.0" encoding="UTF-8" standalone="no"?>
<svg
   version="1.1"
   x="0px"
   y="0px"
   viewBox="0 0 300.00002 299.99997"
   xml:space="preserve"
   id="svg22"
   sodipodi:docname="superhero_10.svg"
   inkscape:version="1.1.1 (3bf5ae0d25, 2021-09-20)"
   width="300"
   height="300"
   inkscape:export-filename="C:\repos\wasserrad\public\result\hero_03_c3a7eb209a4d.png"
   inkscape:export-xdpi="409.60001"
   inkscape:export-ydpi="409.60001"
   xmlns:inkscape="http://www.inkscape.org/namespaces/inkscape"
   xmlns:sodipodi="http://sodipodi.sourceforge.net/DTD/sodipodi-0.dtd"
   xmlns:xlink="http://www.w3.org/1999/xlink"
   xmlns="http://www.w3.org/2000/svg"
   xmlns:svg="http://www.w3.org/2000/svg"><defs
     id="defs26"><rect
       x="-180.85938"
       y="-19.53125"
       width="508.20313"
       height="338.28125"
       id="rect146218" /><rect
       x="-115.25014"
       y="133.07661"
       width="144.68453"
       height="70.062139"
       id="rect23962" /><rect
       x="-147.15852"
       y="289.62671"
       width="393.39987"
       height="40.453934"
       id="rect9779" /><rect
       x="127.95549"
       y="160.98747"
       width="143.60223"
       height="61.543812"
       id="rect5662" /><linearGradient
       id="linearGradient7135"><stop
         style="stop-color:#ff0000;stop-opacity:1;"
         offset="0"
         id="stop7137" /><stop
         style="stop-color:#df0000;stop-opacity:1;"
         offset="1"
         id="stop7139" /></linearGradient><linearGradient
       id="linearGradient7053"><stop
         style="stop-color:#ffffff;stop-opacity:1;"
         offset="0"
         id="stop7055" /><stop
         style="stop-color:#f3f3f3;stop-opacity:1;"
         offset="1"
         id="stop7057" /></linearGradient><linearGradient
       id="linearGradient4122"><stop
         style="stop-color:#ffff7f;stop-opacity:1;"
         offset="0"
         id="stop4124" /><stop
         id="stop8178"
         offset="0.69999999"
         style="stop-color:#efef5f;stop-opacity:1;" /><stop
         style="stop-color:#dfdf3f;stop-opacity:1;"
         offset="1"
         id="stop4126" /></linearGradient><rect
       x="127.95549"
       y="160.98747"
       width="143.60223"
       height="61.543812"
       id="rect5662-9" /><rect
       x="-147.15852"
       y="289.62671"
       width="393.39987"
       height="40.453934"
       id="rect9779-8" /><rect
       x="-115.25014"
       y="133.07661"
       width="144.68452"
       height="70.062141"
       id="rect23962-2" /><rect
       x="127.95549"
       y="160.98747"
       width="143.60223"
       height="61.543812"
       id="rect5662-9-1" /><rect
       x="-115.25014"
       y="133.07661"
       width="144.68452"
       height="70.062141"
       id="rect23962-2-2" /><radialGradient
       inkscape:collect="always"
       xlink:href="#linearGradient7135"
       id="radialGradient7141"
       cx="78.5"
       cy="59.333332"
       fx="78.5"
       fy="59.333332"
       r="62.5"
       gradientTransform="matrix(0.23622052,0,0,0.28346461,461.43463,527.75021)"
       gradientUnits="userSpaceOnUse" /><radialGradient
       inkscape:collect="always"
       xlink:href="#linearGradient7053"
       id="radialGradient7067"
       cx="71.5"
       cy="44.536083"
       fx="71.5"
       fy="44.536083"
       r="62.75"
       gradientTransform="matrix(0.23622052,0,0,0.09128841,461.43463,541.9208)"
       gradientUnits="userSpaceOnUse" /><radialGradient
       inkscape:collect="always"
       xlink:href="#linearGradient4122"
       id="radialGradient4128"
       cx="70.484375"
       cy="69.663376"
       fx="70.484375"
       fy="69.663376"
       r="32.492985"
       gradientTransform="matrix(0.23622052,0,0,0.46915874,461.43463,514.40979)"
       gradientUnits="userSpaceOnUse" /></defs><sodipodi:namedview
     id="namedview24"
     pagecolor="#ffffff"
     bordercolor="#666666"
     borderopacity="1.0"
     inkscape:pageshadow="2"
     inkscape:pageopacity="0"
     inkscape:pagecheckerboard="false"
     showgrid="false"
     inkscape:zoom="1.4142136"
     inkscape:cx="179.25157"
     inkscape:cy="97.934289"
     inkscape:window-width="1920"
     inkscape:window-height="1009"
     inkscape:window-x="3832"
     inkscape:window-y="-8"
     inkscape:window-maximized="1"
     inkscape:current-layer="layer8"
     fit-margin-top="0"
     fit-margin-left="0"
     fit-margin-right="0"
     fit-margin-bottom="0"
     showguides="true"
     inkscape:guide-bbox="true"><sodipodi:guide
       position="7.4218749,300.97656"
       orientation="1,0"
       id="guide163060" /><sodipodi:guide
       position="7.4218755,292.38278"
       orientation="0,-1"
       id="guide163062" /><sodipodi:guide
       position="292.38283,302.14841"
       orientation="1,0"
       id="guide163064" /><sodipodi:guide
       position="-0.27621358,8.0422388"
       orientation="0,-1"
       id="guide163066" /></sodipodi:namedview><style
     type="text/css"
     id="style1553">
	.st0{fill-rule:evenodd;clip-rule:evenodd;}
</style><g
     id="g12891"
     transform="translate(-143.83918,-291.82469)"><text
       xml:space="preserve"
       transform="translate(462,460.29902)"
       id="text5660"
       style="font-style:normal;font-weight:normal;font-size:40px;line-height:1.25;font-family:sans-serif;white-space:pre;shape-inside:url(#rect5662);fill:#000000;fill-opacity:1;stroke:none" /><circle
       style="fill:none;fill-opacity:1;stroke-width:2.07663"
       id="path43294"
       cx="338.96094"
       cy="-460.10513"
       r="100"
       transform="rotate(90)" /></g><g
     inkscape:groupmode="layer"
     id="layer1"
     inkscape:label="Background"
     style="display:inline"
     sodipodi:insensitive="true"><rect
       style="fill:#f1f1f1;fill-opacity:1;stroke-width:1.70305"
       id="rect154281"
       width="300.37231"
       height="300"
       x="-1.0099289e-08"
       y="0" /></g><g
     inkscape:groupmode="layer"
     id="layer2"
     inkscape:label="Content"
     style="display:inline"><text
       xml:space="preserve"
       id="text146216"
       style="font-style:normal;font-weight:normal;font-size:40px;line-height:1.25;font-family:sans-serif;white-space:pre;shape-inside:url(#rect146218);fill:#000000;fill-opacity:1;stroke:none" /><text
       xml:space="preserve"
       transform="translate(-553.96907,89.607388)"
       id="text9777"
       style="font-style:normal;font-weight:normal;font-size:40px;line-height:1.25;font-family:sans-serif;white-space:pre;shape-inside:url(#rect9779-8);fill:#000000;fill-opacity:1;stroke:none"><tspan
         x="-147.1582"
         y="366.57329"
         id="tspan45429"><tspan
           dx="0 16.835938"
           id="tspan45427">Ic</tspan></tspan></text><text
       xml:space="preserve"
       transform="translate(-731.81174,233.98117)"
       id="text5660-9"
       style="font-style:normal;font-weight:normal;font-size:40px;line-height:1.25;font-family:sans-serif;white-space:pre;shape-inside:url(#rect5662-9-1);fill:#000000;fill-opacity:1;stroke:none" /><text
       xml:space="preserve"
       style="font-style:normal;font-weight:normal;font-size:18.6667px;line-height:1.25;font-family:sans-serif;fill:#000000;fill-opacity:1;stroke:none"
       id="text3684"
       transform="translate(-308.69165,-217.87264)"><textPath
         xlink:href="#path43294"
         startOffset="50%"
         id="textPath49368"><tspan
           id="tspan3682"
           style="font-style:normal;font-variant:normal;font-weight:normal;font-stretch:normal;font-size:18.6667px;font-family:'Roboto Black';-inkscape-font-specification:'Roboto Black, ';fill:#1a1a1a"><tspan
             style="text-align:center;text-anchor:middle"
             id="tspan45584">Mühlebach Wasserrad Quiz</tspan></tspan></textPath></text><text
       xml:space="preserve"
       style="font-style:normal;font-weight:normal;font-size:13.3333px;line-height:1.25;font-family:sans-serif;fill:#000000;fill-opacity:1;stroke:none"
       x="-292.07098"
       y="17.452393"
       id="text37297"
       transform="rotate(-90)"><tspan
         sodipodi:role="line"
         id="tspan37295"
         x="-292.07098"
         y="17.452393"
         style="font-style:normal;font-variant:normal;font-weight:normal;font-stretch:normal;font-size:13.3333px;font-family:'Roboto Black';-inkscape-font-specification:'Roboto Black, '">Wie viele Punkte machst</tspan><tspan
         sodipodi:role="line"
         x="-292.07098"
         y="34.616753"
         style="font-style:normal;font-variant:normal;font-weight:normal;font-stretch:normal;font-size:13.3333px;font-family:Roboto;-inkscape-font-specification:Roboto"
         id="tspan83036"><tspan
   id="tspan172836"
   style="font-style:normal;font-variant:normal;font-weight:normal;font-stretch:normal;font-size:13.3333px;font-family:'Roboto Black';-inkscape-font-specification:'Roboto Black, '">du? </tspan>www.nuolenbach.ch</tspan></text></g><g
     inkscape:groupmode="layer"
     id="layer9"
     inkscape:label="Flags"
     style="display:inline"><g
       id="g1030"
       transform="translate(-454.24897,-523.95975)"
       style="display:inline"><path
         style="fill:url(#radialGradient7141);fill-opacity:1;fill-rule:nonzero;stroke:none;stroke-width:0.118111;stroke-linecap:round;stroke-linejoin:miter;stroke-miterlimit:4;stroke-dasharray:none;stroke-dashoffset:0;stroke-opacity:1"
         d="m 461.67085,531.57697 v 20.6693 c 0,8.17795 6.58583,14.76377 14.76378,14.76377 8.17796,0 14.76378,-6.58582 14.76378,-14.76377 v -20.6693 h -14.76378 z"
         id="rect1370" /><path
         style="fill:url(#radialGradient7067);fill-opacity:1;fill-rule:nonzero;stroke:#000000;stroke-width:0.0708661;stroke-linecap:round;stroke-linejoin:miter;stroke-miterlimit:4;stroke-dasharray:none;stroke-dashoffset:0;stroke-opacity:1"
         d="m 461.67085,542.91555 v 9.33072 c 0,0.68244 0.0514,1.35051 0.14025,2.00787 h 29.24706 c 0.0889,-0.65736 0.14025,-1.32543 0.14025,-2.00787 v -9.33072 z"
         id="path35371" /><path
         id="path3133"
         style="fill:url(#radialGradient4128);fill-opacity:1;stroke:#000000;stroke-width:0.0708661;stroke-miterlimit:4;stroke-dasharray:none;stroke-opacity:1"
         d="m 476.07292,533.26742 c -0.11924,0.002 -0.23285,0.008 -0.33957,0.0148 -0.42684,0.026 -0.81871,0.0874 -1.17372,0.18454 -0.71003,0.19435 -1.27944,0.53805 -1.72736,1.07038 -1.04806,1.24555 -1.67151,3.23814 0.15502,4.90157 1.09458,0.99685 0.95359,1.56116 0.72342,1.92667 -0.45435,0.72151 -0.93428,0.50585 -2.08907,-0.25836 -0.84408,-0.55859 -1.55787,-0.67074 -1.99311,-0.406 -0.43525,0.26472 -0.59113,0.90345 -0.62746,1.56496 -0.053,0.96544 0.26216,1.07821 1.57234,1.74212 1.88402,0.95471 2.69439,1.8081 2.69439,2.84203 0,1.08424 -0.56209,1.2926 -1.88977,0.6939 -1.27751,-0.57608 -2.03885,-0.38053 -2.46555,0.64961 -0.50145,1.21061 0.189,2.25747 2.19981,3.32923 1.86194,0.99241 2.46448,1.70675 2.5246,3.01919 0.0401,0.87559 -0.0485,1.07739 -1.02607,0.70128 -1.63611,-0.62949 -1.77428,0.19679 -1.66093,0.74557 0.15082,0.73024 0.88297,1.03471 2.15551,2.16289 1.02584,0.90947 1.95222,2.07116 2.4434,2.55413 0.21562,0.21202 0.71963,0.81302 0.71998,1.40257 l 7.1e-4,1.63878 c 0,0 0.0453,0.007 0.15747,0.007 0.007,9e-5 0.007,-6e-5 0.0148,0 0.11226,-9.3e-4 0.15748,-0.007 0.15748,-0.007 l -0.007,-1.6314 c -0.002,-0.58955 0.4896,-1.21406 0.71998,-1.40995 0.47544,-0.40422 1.41757,-1.64466 2.44341,-2.55413 1.27253,-1.12818 2.00468,-1.43265 2.15551,-2.16289 0.11334,-0.54878 -0.0249,-1.37506 -1.66093,-0.74557 -0.97754,0.3761 -1.06619,0.18169 -1.02608,-0.6939 0.0601,-1.31244 0.66266,-2.03416 2.52461,-3.02657 2.01081,-1.07176 2.70126,-2.11862 2.1998,-3.32923 -0.4267,-1.03014 -1.18066,-1.22569 -2.45817,-0.64961 -1.32768,0.5987 -1.89714,0.39034 -1.89714,-0.6939 0,-1.03393 0.81037,-1.88732 2.69438,-2.84203 1.31019,-0.66391 1.63277,-0.76931 1.57973,-1.73474 -0.0364,-0.6615 -0.1996,-1.30762 -0.63484,-1.57234 -0.43524,-0.26474 -1.14165,-0.15259 -1.98573,0.406 -1.1548,0.76421 -1.63473,0.97987 -2.08908,0.25836 -0.23017,-0.36551 -0.37854,-0.92982 0.71604,-1.92667 1.82653,-1.66343 1.20309,-3.65602 0.15503,-4.90157 -0.44793,-0.53233 -1.01735,-0.87603 -1.72738,-1.07038 -0.355,-0.0972 -0.73949,-0.15857 -1.16634,-0.18454 -0.21341,-0.013 -0.46912,-0.018 -0.70128,-0.0148 -0.11607,-9.3e-4 -0.24247,-0.002 -0.36171,0 z m 0.18848,30.47491 0.17323,-21.28347 m 0.16536,21.28347 -0.0229,-3.50513 -0.10018,-15.27359 -0.0422,-2.50475" /><path
         style="fill:none;fill-opacity:1;fill-rule:nonzero;stroke:#000000;stroke-width:0.47244;stroke-linecap:round;stroke-linejoin:miter;stroke-miterlimit:4;stroke-dasharray:none;stroke-dashoffset:0;stroke-opacity:1"
         d="m 461.67085,531.57697 v 20.6693 c 0,8.17795 6.58583,14.76377 14.76378,14.76377 8.17796,0 14.76378,-6.58582 14.76378,-14.76377 v -20.6693 h -14.76378 z"
         id="path5073" /></g><g
       id="g1010"
       transform="translate(-496.30459,-477.46922)"
       style="display:inline"><path
         inkscape:connector-curvature="0"
         style="fill:#1b63c6;fill-opacity:1;fill-rule:evenodd;stroke:#000000;stroke-width:0.287207;stroke-linecap:butt;stroke-miterlimit:4;stroke-dashoffset:0;stroke-opacity:1"
         id="path4212"
         d="m 503.63731,531.86882 0.5401,22.68979 c 0.38579,16.20697 28.23987,16.20697 28.62567,0 l 0.5401,-22.68979 z" /><path
         style="fill:#009645;fill-opacity:1;stroke:#000000;stroke-width:0.143603;stroke-miterlimit:8;stroke-dasharray:none;stroke-dashoffset:4.58;stroke-opacity:1"
         d="m 519.95518,566.6555 c 1.53139,-6.77634 6.03349,-11.16825 12.86659,-12.88219 -0.0128,8.49107 -5.92382,12.08734 -12.86659,12.88219 z"
         id="path7675"
         inkscape:connector-curvature="0"
         sodipodi:nodetypes="ccc" /><path
         style="fill:#ffffff;fill-opacity:1;stroke:#000000;stroke-width:0.143603;stroke-miterlimit:8;stroke-dasharray:none;stroke-dashoffset:4.58;stroke-opacity:1"
         d="m 516.46582,544.6848 c -0.43507,-0.47225 -0.58409,-1.00641 -0.55849,-1.57393 0.0463,-1.02685 1.04682,-1.9174 2.39895,-2.03085 1.61877,-0.13582 3.74062,0.72809 6.13066,2.89397 1.30938,1.18657 2.63556,1.83049 3.97922,1.86585 -0.58781,0.80197 -1.19379,1.56497 -1.25501,2.72897 -0.309,-0.0899 -0.59756,-0.24561 -1.04241,-0.55849 -0.54982,0.65921 -1.1161,1.30491 -0.74252,2.72263 1.16891,1.00138 2.25761,1.19303 3.33784,1.29923 -2.37908,1.86011 -6.13262,0.49752 -7.12731,-3.1572 -0.35543,-1.30594 -0.8101,-2.07847 -1.42731,-2.33703 z"
         id="path7681"
         inkscape:connector-curvature="0"
         sodipodi:nodetypes="cssscccccscc" /><path
         style="fill:none;fill-opacity:1;stroke:#000000;stroke-width:0.143603;stroke-miterlimit:8;stroke-dasharray:none;stroke-dashoffset:4.58;stroke-opacity:1"
         d="m 520.14675,543.26319 c 1.26314,0.79805 2.29605,2.13549 2.97013,4.17596 0.45356,1.37293 1.26001,2.43154 2.25934,3.2938"
         id="path7683"
         inkscape:connector-curvature="0"
         sodipodi:nodetypes="csc" /><path
         style="fill:none;fill-opacity:1;stroke:#000000;stroke-width:0.143603;stroke-miterlimit:8;stroke-dasharray:none;stroke-dashoffset:4.58;stroke-opacity:1"
         d="m 520.65447,542.94587 c 1.42306,0.53901 2.50637,1.48663 3.35091,2.86859 0.49505,0.81006 1.1606,1.52208 2.11336,2.19586"
         id="path7685"
         inkscape:connector-curvature="0"
         sodipodi:nodetypes="csc" /><path
         style="fill:#feeb00;fill-opacity:1;stroke:#000000;stroke-width:0.143603;stroke-miterlimit:8;stroke-dasharray:none;stroke-dashoffset:4.58;stroke-opacity:1"
         d="m 514.52833,540.93279 c -1.91745,-0.11586 -2.23727,-1.90845 -2.23727,-2.72064 0,-1.76869 1.48913,-3.31196 3.45625,-4.05754 0.97775,0.34969 1.56422,0.71686 0.69763,1.97195 -0.82718,0.4374 -1.69979,0.8183 -2.19593,1.8798 -0.45092,0.96477 -0.16339,2.09772 0.27932,2.92643 z"
         id="path7758"
         inkscape:connector-curvature="0"
         sodipodi:nodetypes="csccsc" /><path
         id="path7702-7-2"
         style="fill:#feeb00;fill-opacity:1;stroke:#000000;stroke-width:0.143603;stroke-miterlimit:8;stroke-dasharray:none;stroke-dashoffset:4.58;stroke-opacity:1"
         d="m 516.4273,536.85146 c -0.26617,-0.64732 -0.23951,-1.28753 0.0944,-1.92027 -0.66354,-0.26753 -1.09728,-0.73917 -1.31203,-1.40531 0.52033,0.22764 1.01501,0.32784 1.29909,0.2556 1.4157,-0.32905 2.93771,-0.19358 4.31133,0.59538 1.41476,0.8126 2.17382,2.12529 2.44841,3.51158 -0.68467,0.95865 -1.39004,1.26948 -2.25186,0.31314 -0.13329,-1.14557 -1.4962,-2.39251 -2.82913,-2.39251 -0.73813,0 -1.39402,0.38744 -1.76022,1.04239 z"
         inkscape:connector-curvature="0"
         sodipodi:nodetypes="ccccsccsc" /><path
         id="path7702-7-0"
         style="fill:#feeb00;fill-opacity:1;stroke:#000000;stroke-width:0.143603;stroke-miterlimit:8;stroke-dasharray:none;stroke-dashoffset:4.58;stroke-opacity:1"
         d="m 520.25888,538.00425 c 0.69123,-0.1098 1.30806,0.0637 1.84681,0.53444 0.41326,-0.58402 0.97217,-0.89739 1.66987,-0.95283 -0.24982,0.43313 -0.40723,0.88686 -0.39473,1.39193 0.0285,1.15165 -0.43643,2.15414 -1.04177,2.95523 -0.64905,0.85893 -1.58636,1.63653 -2.6667,2.00105 l -2.57894,-0.14114 v -0.94239 c 0,-0.16043 0.12346,-0.23089 0.27196,-0.26537 1.89905,-0.44091 3.49702,-1.6599 3.64036,-3.49569 0.0354,-0.4537 -0.39045,-0.79724 -0.74686,-1.08523 z"
         inkscape:connector-curvature="0"
         sodipodi:nodetypes="cccsscccssc" /><circle
         style="fill:#feeb00;fill-opacity:1;stroke:#000000;stroke-width:0.143603;stroke-miterlimit:8;stroke-dasharray:none;stroke-dashoffset:4.58;stroke-opacity:1"
         id="path7679"
         cx="518.49023"
         cy="545.36359"
         r="2.2627969" /><path
         id="path7677-4"
         style="fill:#feeb00;fill-opacity:1;stroke:#000000;stroke-width:0.143603;stroke-miterlimit:8;stroke-dasharray:none;stroke-dashoffset:4.58;stroke-opacity:1"
         d="m 517.03683,561.98517 v -15.11086 c 0,-0.78258 0.74411,-1.2439 1.45342,-1.2439 0.7093,0 1.45342,0.46132 1.45342,1.2439 v 15.11087 l -1.45342,3.40168 z"
         inkscape:connector-curvature="0"
         sodipodi:nodetypes="cscsccc" /><path
         style="fill:#009645;fill-opacity:1;stroke:#000000;stroke-width:0.143603;stroke-miterlimit:8;stroke-dasharray:none;stroke-dashoffset:4.58;stroke-opacity:1"
         d="m 517.02531,566.6555 c -1.53139,-6.77634 -6.0335,-11.16825 -12.86659,-12.88219 0.0128,8.49107 5.92382,12.08734 12.86659,12.88219 z"
         id="path7675-4"
         inkscape:connector-curvature="0"
         sodipodi:nodetypes="ccc" /><path
         inkscape:connector-curvature="0"
         style="fill:none;fill-opacity:1;fill-rule:evenodd;stroke:#000000;stroke-width:0.287207;stroke-linecap:butt;stroke-miterlimit:4;stroke-dashoffset:0;stroke-opacity:1"
         id="path4212-9"
         d="m 503.63731,531.86882 0.5401,22.68979 c 0.38579,16.20697 28.23987,16.20697 28.62567,0 l 0.5401,-22.68979 z" /></g><g
       id="g1203"
       transform="matrix(0.14360345,0,0,0.14360345,11.95659,107.96789)"
       style="display:inline"><path
         inkscape:connector-curvature="0"
         style="fill:#ffffff;fill-opacity:1;fill-rule:evenodd;stroke:#000000;stroke-width:2;stroke-linecap:butt;stroke-miterlimit:4;stroke-dashoffset:0;stroke-opacity:1"
         id="path4212-9-5"
         d="m -32.198889,-33.723923 3.761095,158.003043 c 2.08698,87.67371 119.607425,107.23883 173.214294,58.69537 15.39931,-13.94478 25.52445,-33.5099 26.12396,-58.69537 l 3.7611,-158.003043 z"
         sodipodi:nodetypes="cssscc" /><g
         id="l64IuzCzcFayKAFXGR3f1MA"
         fill="#0000cb"
         transform="matrix(0.11904898,0,0,0.11904898,-31.183328,-36.393242)"
         style="stroke:none;stroke-width:55.599;stroke-miterlimit:4;stroke-dasharray:none;stroke-opacity:0.611479"><g
           id="g9"
           style="stroke:#000000;stroke-width:16.7998;stroke-miterlimit:4;stroke-dasharray:none;stroke-opacity:1"><path
             id="p18RcwgqrC"
             d="m 1253.6551,1500.1629 c 0,217.2588 -176.123,393.3818 -393.38171,393.3818 -217.25873,0 -393.38173,-176.123 -393.38173,-393.3818 0,-217.2587 176.123,-393.3817 393.38173,-393.3817 217.25871,0 393.38171,176.123 393.38171,393.3817 z M 796,1889"
             style="stroke:#000000;stroke-width:16.7998;stroke-miterlimit:4;stroke-dasharray:none;stroke-opacity:1" /></g></g><g
         id="l1Un9r6Sl2XXlwfHgYKekLE"
         fill="#ffffff"
         transform="matrix(0.11904898,0,0,0.11904898,-210.51326,-1.669321)"><g
           id="g24" /></g><path
         style="fill:none;stroke:#000000;stroke-width:2.001;stroke-linecap:butt;stroke-linejoin:miter;stroke-miterlimit:4;stroke-dasharray:none;stroke-opacity:1"
         d="M -29.199173,78.776189 C 171.6759,79.775839 171.6759,79.276009 171.6759,79.276009"
         id="path1270" /><path
         style="fill:#ff0000;fill-opacity:1;stroke:#000000;stroke-width:1px;stroke-linecap:butt;stroke-linejoin:miter;stroke-opacity:1"
         d="m -29.448889,78.651079 201.310969,0.64597 2.89472,-113.048698 H -32.270811 Z"
         id="path1385" /><path
         id="pLkEbxMl8"
         d="m 68.262871,50.678193 c 0.98003,-2.060877 0.49003,-1.030436 0,0 z"
         sodipodi:nodetypes="cc"
         style="fill:#080707;stroke-width:0.0631167" /><g
         id="g13030"
         transform="matrix(2.0038078,0,0,2.0038078,-281.49316,-202.31682)"><path
           style="fill:#fffe02;fill-opacity:1;stroke:#fffe02;stroke-width:4.15748;stroke-miterlimit:4;stroke-dasharray:none;stroke-opacity:1"
           d="m 371.86137,411.33696 c -2.15096,-0.79569 -2.44241,-1.66284 -9.17312,-27.29313 -7.12123,-27.11739 -11.12687,-39.5441 -15.72095,-48.77109 -4.59324,-9.22531 -6.96715,-11.85771 -16.76853,-18.59438 -10.12067,-6.95611 -10.64717,-8.26041 -4.47508,-11.08608 10.21696,-4.67748 23.83443,-6.34504 31.23167,-3.82454 4.46636,1.52184 8.85738,6.16356 9.60609,10.15452 0.33641,1.79321 0.0397,5.23427 -0.78046,9.05086 -0.72777,3.38672 -1.10413,6.84797 -0.83635,7.69166 0.73534,2.31688 5.01928,1.96031 11.56969,-0.963 7.43009,-3.31589 15.15542,-3.89618 19.86733,-1.49234 6.07514,3.09931 9.53645,10.0277 9.53645,19.08886 0,6.33155 -2.21017,10.85273 -6.51503,13.3273 -4.73184,2.72001 -7.66638,3.0841 -15.82709,1.96367 -4.01806,-0.55166 -7.56409,-0.7445 -7.88006,-0.42853 -0.88888,0.88888 2.68051,10.4455 6.0285,16.14054 8.29388,14.10819 18.93604,17.42121 32.77042,10.20178 l 6.36664,-3.32241 5.36735,1.22078 c 14.92239,3.39402 25.1274,-0.48273 30.04779,-11.41477 1.66586,-3.70117 2.23241,-6.19157 2.27546,-10.0022 0.0525,-4.6483 -0.0862,-5.0944 -1.65358,-5.31746 -0.94099,-0.13392 -4.5597,0.65645 -8.04157,1.75638 -13.92512,4.39894 -25.23966,0.77992 -27.00652,-8.63818 -1.31865,-7.02901 1.79792,-16.71006 6.05529,-18.80962 3.57376,-1.76244 5.07122,-1.74173 13.00747,0.17994 4.42092,1.07047 8.55934,1.94631 9.19649,1.94631 1.69937,0 4.98698,-3.8575 4.98698,-5.85146 0,-1.68091 -0.8925,-3.03342 -8.1604,-12.36635 -7.07122,-9.08038 -4.82795,-13.63169 13.86943,-28.13924 5.38142,-4.17553 8.31282,-5.94394 9.85294,-5.94394 4.43601,0 24.98643,16.50866 27.71918,22.26751 1.83051,3.8575 1.04578,6.53296 -3.6105,12.30978 -7.13921,8.85726 -8.711,14.1494 -4.93687,16.6223 2.20466,1.44456 4.52043,1.19898 13.15746,-1.39527 6.13217,-1.84188 9.58397,-1.30213 13.67218,2.13788 4.25882,3.58355 5.99193,12.36052 3.5804,18.13212 -3.95356,9.4622 -13.79742,11.96875 -27.86993,7.09653 -6.87422,-2.38001 -7.11289,-2.40848 -8.17919,-0.97576 -1.53398,2.0611 -0.64066,8.97533 1.8248,14.12373 2.41424,5.04147 8.19028,10.33321 13.2514,12.14033 4.7569,1.69849 12.46347,1.75975 18.22683,0.14488 l 4.34457,-1.21733 6.24489,2.88664 c 8.30072,3.83695 16.36593,4.5481 21.79176,1.9215 4.29538,-2.07935 8.69114,-6.90286 12.0729,-13.24768 2.78301,-5.22147 5.55624,-12.75327 5.55624,-15.09019 0,-1.69472 -1.02936,-1.66951 -11.04941,0.27062 -4.11813,0.79737 -5.8501,0.80952 -8.3564,0.0586 -3.66621,-1.09842 -7.51776,-4.10733 -9.02225,-7.04837 -3.06348,-5.98858 -1.99319,-16.69823 2.22095,-22.22332 5.65877,-7.41916 12.65602,-8.60055 23.86527,-4.02935 10.9429,4.46259 13.94316,3.41724 12.44674,-4.33667 -1.77712,-9.20835 -0.14701,-16.00159 4.66134,-19.42543 1.27149,-0.90538 4.68374,-2.23148 7.58276,-2.94689 4.85573,-1.19827 5.82807,-1.20392 12.34235,-0.0717 7.87818,1.36925 14.88658,3.78499 17.93314,6.18142 2.74819,2.16173 1.77723,3.72412 -4.49382,7.23109 -6.91889,3.86927 -12.34198,8.98484 -16.92385,15.96418 -6.2687,9.54881 -11.14278,23.90597 -19.52437,57.51112 -5.95066,23.85865 -5.89572,23.69798 -8.31231,24.30451 -1.98657,0.4986 -3.0709,0.23875 -20.1533,-4.82956 -27.11241,-8.04418 -49.94432,-11.33635 -78.4736,-11.31522 -28.6469,0.0212 -48.66591,2.96993 -79.58912,11.72315 -19.64818,5.56168 -18.84763,5.38227 -20.79749,4.66096 z"
           id="path9879"
           transform="matrix(0.26458333,0,0,0.26458333,49.901308,14.052386)" /><path
           style="fill:#fffe02;fill-opacity:1;stroke:#fffe02;stroke-width:1.56094;stroke-miterlimit:4;stroke-dasharray:none;stroke-opacity:1"
           d="m 374.25791,429.24863 c -0.69104,-1.33632 -1.44169,-4.23434 -1.66811,-6.44005 -0.54422,-5.30145 -1.03678,-6.83523 11.08478,-10.69146 21.4803,-6.83352 45.60875,-12.27986 65.75205,-14.17375 12.44099,-1.16971 43.53929,-1.00314 56.01557,0.71853 24.1419,3.33146 59.3988,12.21447 65.53904,16.51495 1.72796,1.21022 -0.35406,3.94094 -0.35406,6.43172 0,1.7019 -0.50899,4.31254 -1.13108,5.80143 -1.41909,3.39636 -2.46598,3.43137 -12.62326,0.42216 -29.89815,-8.85767 -52.0237,-12.01327 -84.60274,-12.06627 -33.70526,-0.0548 -61.15823,4.11904 -86.25759,13.11432 -4.29337,1.53869 -8.41183,2.79772 -9.15215,2.79785 -0.74031,1.3e-4 -1.91141,-1.09312 -2.60245,-2.42943 z"
           id="path9918"
           transform="matrix(0.26458333,0,0,0.26458333,49.901308,14.052386)"
           sodipodi:nodetypes="sssssssssssss" /><path
           style="fill:#fffe02;fill-opacity:1;stroke:#fffe02;stroke-width:1.56094;stroke-miterlimit:4;stroke-dasharray:none;stroke-opacity:1"
           d="m 444.21207,458.17714 c -21.10951,-2.00686 -52.3409,-9.93447 -61.30029,-16.42462 -3.2199,-2.33248 -4.91502,-4.68559 -3.50046,-6.27653 1.85286,-2.08388 9.12188,-4.81185 11.8656,-4.83381 1.17809,-0.009 8.32084,2.38677 15.10868,4.91736 16.63965,6.20346 27.85831,9.92938 54.56238,11.87031 10.18458,0.74024 15.70386,0.7399 25.45535,-0.002 22.88802,-1.74036 36.38495,-6.20217 57.39588,-14.2724 7.95646,-3.05605 18.27748,-2.97984 20.26756,0.73865 0.64542,1.20598 -0.65338,3.72402 -1.76895,4.95859 -4.85977,5.3782 -33.03058,14.72449 -54.90019,18.21434 -9.59434,1.53101 -51.08834,2.25973 -63.18556,1.10967 z"
           id="path9957"
           transform="matrix(0.26458333,0,0,0.26458333,49.901308,14.052386)"
           sodipodi:nodetypes="csscsscsssscc" /></g><path
         style="fill:#000000;fill-opacity:1;stroke:none;stroke-width:0.530174"
         d="M 49.58626,70.665719 C 31.478316,68.182539 15.515881,61.201114 14.367795,55.262391 14.090631,53.828627 11.128265,40.490961 9.7753941,34.58558 9.1741711,31.961232 8.2436601,28.382552 7.7075781,26.632967 7.1715251,24.883403 5.9600211,20.827575 5.0153681,17.62002 0.61961014,2.6944569 -3.5187259,-2.7658991 -14.204015,-7.7389891 c -3.958541,-1.842362 -3.834448,-2.7275029 0.699545,-4.9902029 16.0235291,-7.996615 29.08034,-5.390142 28.786366,5.7464799 -0.131054,4.96281 0.108807,5.132994 4.650257,3.298648 8.60974,-3.477628 16.119727,2.135278 16.090651,12.026033 -0.02143,7.3299091 -3.593968,11.3437361 -10.158445,11.4135491 -5.291993,0.0563 -5.632375,1.784852 -1.358338,6.897968 4.049139,4.844065 8.737128,5.160046 14.261725,0.961267 1.940029,-1.474462 2.895062,-1.533855 6.254922,-0.389039 5.279261,1.798818 9.618677,0.469172 12.704601,-3.892858 2.755704,-3.895222 1.14801,-5.166718 -4.797548,-3.79433 -6.144925,1.418416 -11.581257,-1.513877 -12.885406,-6.950248 -2.11591,-8.8200401 3.342003,-15.5999841 10.9819,-13.6419831 5.552654,1.42308296 6.865574,0.59170396 3.932075,-2.489872 -7.224527,-7.5891609 -5.797171,-11.7027589 7.268973,-20.9489089 6.826978,-4.83106 6.360038,-4.96257 19.304358,5.437133 5.71843,4.59431 5.90398,10.6111039 0.47549,15.4180179 -2.52082,2.232182 -0.77432,4.27670696 2.37172,2.77647596 8.06085,-3.84394396 15.644649,4.51415804 12.44758,13.71844914 -2.15583,6.206614 -6.93111,8.33011 -14.38469,6.396655 -4.84124,-1.255786 -5.79403,1.194871 -2.04559,5.261459 3.34275,3.626451 6.39574,4.204069 12.21373,2.310751 l 3.52561,-1.14734 3.29451,2.2 c 5.162989,3.447712 8.997899,2.925099 13.150149,-1.792105 4.18179,-4.750748 3.41463,-7.141551 -2.29156,-7.141551 -6.16564,0 -9.27542,-3.632282 -9.27542,-10.8337881 0,-9.996395 6.8614,-15.383032 15.91183,-12.491777 4.12526,1.317863 4.70272,0.970043 4.35732,-2.624527 -1.12065,-11.6628229 13.01492,-14.7461219 29.48594,-6.4315829 4.6354,2.339947 4.56757,2.863602 -0.69492,5.3638129 -12.56467,5.969463 -17.0487,15.503742 -24.92461,52.9963881 -2.58325,12.297309 -3.04154,13.507829 -5.76466,15.226875 -6.23258,3.93446 -15.61565,7.149509 -29.260899,10.026069 -5.63587,1.18813 -33.028695,1.51841 -40.536891,0.48879 z m 34.860951,-2.14423 c 10.72147,-1.26995 22.663839,-4.624508 30.482999,-8.562513 6.71579,-3.382307 -0.98567,-7.388199 -8.15171,-4.240117 -2.52433,1.108967 -6.41647,2.497626 -11.332169,4.043223 -4.5204,1.421281 -18.4667,3.177037 -25.28694,3.183485 -10.019657,0.01 -28.921753,-2.471572 -32.122332,-4.216268 -1.136867,-0.619717 -11.254389,-4.26218 -11.838917,-4.26218 -2.050645,0 -6.346625,2.33045 -6.199486,3.363052 0.454561,3.189881 18.703168,9.238058 32.238482,10.684868 8.618359,0.92122 24.460343,0.9244 32.210073,0.006 z m -4.37594,-7.691738 c 8.10402,-0.884781 24.653109,-4.977198 24.653109,-6.096465 0,-0.09879 0.13786,-0.538524 0.3062,-0.977398 0.64246,-1.674261 -3.85839,-2.875684 -17.271779,-4.61036 -19.06124,-2.465105 -29.41169,-2.019037 -50.884894,2.192987 -18.663245,3.660837 19.598679,12.06765 43.197364,9.491236 z M 22.383331,53.46726 c 25.590722,-9.43559 61.46588,-9.973172 89.564809,-1.34209 8.41031,2.583369 8.49046,2.561868 9.41966,-2.525519 0.5234,-2.865566 -0.67551,-3.656829 -9.3724,-6.185715 -23.955309,-6.965737 -46.31628,-8.469774 -67.710876,-4.554355 -9.753216,1.784952 -26.244753,6.391707 -28.023395,7.828076 -0.951481,0.76838 -0.543043,5.131833 0.650918,6.954074 1.07663,1.643144 0.491016,1.661818 5.471284,-0.174532 z M 25.39938,41.789649 c 30.876192,-9.407938 59.531011,-9.093039 90.39654,0.993348 6.62743,2.165735 6.74567,2.08398 8.47875,-5.86234 1.42407,-6.529328 3.49108,-14.327105 6.38101,-24.072204 3.31664,-11.1839531 7.80715,-17.6167771 14.75553,-21.1377881 4.59169,-2.3267809 4.08856,-3.8483129 -1.98412,-6.0004019 -12.8507,-4.554095 -21.64936,0.170724 -18.97039,10.1871179 1.18857,4.44398496 -0.62381,5.438796 -5.38974,2.958401 -9.18191,-4.77868 -16.58094,0.17152696 -15.8274,10.588922 0.46057,6.3674011 5.97171,9.1169651 13.17774,6.5745141 3.11011,-1.097305 3.43376,-0.497545 1.91249,3.544075 -4.4125,11.722937 -10.45668,15.094784 -19.203869,10.713158 -3.83964,-1.923335 -3.83964,-1.923335 -6.37239,-1.060335 -8.89624,3.031261 -17.71891,-3.024307 -17.71891,-12.161651 0,-2.361567 0.51646,-2.545858 3.52293,-1.257149 9.12193,3.910131 16.62369,0.924337 16.62369,-6.6164531 0,-6.964515 -4.69798,-10.280876 -11.02074,-7.779663 -7.35444,2.909329 -9.24108,-0.95910304 -3.56836,-7.316664 4.99868,-5.6021259 4.05862,-8.0026669 -6.14348,-15.6877909 -6.09946,-4.594672 -6.34162,-4.644707 -9.808734,-2.026992 -12.773789,9.644387 -13.868077,12.112777 -8.161408,18.4098839 3.411259,3.764193 3.745394,4.79531196 2.180223,6.728226 -1.08704,1.342451 -1.073745,1.343432 -8.715557,-0.64867304 -4.51707,-1.177537 -7.62826,1.68400004 -8.193598,7.53612004 -0.738544,7.6451091 5.974738,11.2002841 14.994021,7.9404291 5.306117,-1.917804 5.769676,-1.5055 4.531307,4.030279 -1.717729,7.678512 -7.89951,11.005033 -16.460223,8.857492 -3.446124,-0.864482 -3.446124,-0.864482 -6.595989,1.055907 -8.317824,5.071176 -15.570607,0.906783 -19.947023,-11.453185 -0.895064,-2.527883 -0.476855,-2.888289 2.44474,-2.106883 9.602182,2.5682 15.218015,-2.654845 12.872006,-11.9716901 -1.797898,-7.140068 -8.070001,-9.37746 -15.6475,-5.58176704 -5.344573,2.67718704 -6.794651,1.712815 -5.224109,-3.47432196 2.675343,-8.8360309 -5.1870149,-13.4080589 -17.1009599,-9.9443369 -8.4968761,2.470294 -8.9253891,3.758202 -2.54728,7.6557479 4.851309,2.964553 6.78397604,5.042221 9.214954,9.906325 2.772713,5.547782 5.095827,13.0586751 10.1808629,32.9157491 2.460645,9.608719 1.300435,9.109611 12.934986,5.564594 z"
         id="path6187" /></g></g><g
     inkscape:groupmode="layer"
     id="layer5"
     inkscape:label="Hero 1"
     style="display:inline"><path
       d="m 141.2115,249.01731 c 3.076,-0.167 6.025,-0.259 8.788,-0.259 2.761,0 5.71,0.092 8.785,0.259 l -8.786,-51.419 z"
       id="path2"
       style="fill:#217844;fill-opacity:1" /><path
       d="m 192.2505,176.37231 c -1.826,1.234 -3.953,1.887 -6.151,1.887 -3.413,0 -6.606,-1.571 -8.682,-4.234 l 13.4,78.404 c 21.069,3.028 39.453,6.83 39.453,6.83 0,0 -6.687,-51.855 -21.733,-96.969 -4.057,4.786 -9.407,9.424 -16.287,14.082 z"
       id="path4"
       style="fill:#217844;fill-opacity:1" /><path
       d="m 109.1805,252.42931 13.398,-78.4 c -2.078,2.662 -5.27,4.23 -8.68,4.23 -2.195,0 -4.321,-0.652 -6.149,-1.887 -6.886,-4.665 -12.235,-9.301 -16.287,-14.082 -15.046,45.114 -21.733,96.968 -21.733,96.968 0,0 18.383,-3.801 39.451,-6.829 z"
       id="path6"
       style="fill:#217844;fill-opacity:1" /><path
       d="m 193.1505,146.31131 c 2.209,-3.141 2.511,-4.996 2.525,-6.258 -0.006,-1.555 -0.622,-3.105 -1.998,-4.999 -1.45,-1.989 -3.825,-4.188 -6.684,-6.189 -0.318,-0.226 -0.649,-0.451 -0.986,-0.676 l -7.243,30.86 c 0.367,-0.324 0.755,-0.626 1.166,-0.904 7.649,-5.159 11.41,-9.283 13.22,-11.834 z"
       id="path8"
       style="fill:#217844;fill-opacity:1" /><path
       d="m 106.4725,134.85031 c -1.486,1.979 -2.146,3.59 -2.152,5.231 0.016,1.234 0.318,3.09 2.531,6.237 1.804,2.545 5.567,6.669 13.214,11.823 0.415,0.282 0.805,0.586 1.169,0.91 l -7.242,-30.864 c -3.261,2.193 -5.981,4.591 -7.52,6.663 z"
       id="path10"
       style="fill:#217844;fill-opacity:1" /><path
       d="m 108.8695,174.71631 c 1.544,1.043 3.296,1.543 5.03,1.543 2.889,0 5.727,-1.388 7.467,-3.961 2.782,-4.118 1.699,-9.713 -2.419,-12.495 -7.024,-4.737 -11.361,-8.988 -13.732,-12.332 -2.381,-3.386 -2.873,-5.637 -2.895,-7.394 0.006,-1.997 0.742,-4.011 2.546,-6.418 2.336,-3.146 6.507,-6.326 10.431,-8.661 l 10.292,43.851 c -0.142,0.49 -0.265,0.989 -0.353,1.503 l -18.089,105.85 c -1.255,7.351 3.683,14.325 11.034,15.58 0.77,0.132 1.537,0.195 2.292,0.195 6.456,0 12.163,-4.648 13.289,-11.228 l 15.532,-90.897 h 1.409 l 15.532,90.897 c 1.125,6.579 6.833,11.228 13.291,11.228 0.756,0 1.521,-0.063 2.292,-0.195 7.349,-1.255 12.288,-8.23 11.032,-15.58 l -18.087,-105.85 c -0.088,-0.514 -0.211,-1.013 -0.352,-1.502 l 10.291,-43.847 c 1.141,0.678 2.304,1.42 3.44,2.224 2.862,2.002 5.493,4.374 7.155,6.651 1.686,2.322 2.373,4.26 2.379,6.198 -0.02,1.756 -0.512,4.006 -2.894,7.392 -2.373,3.347 -6.707,7.597 -13.731,12.333 -4.119,2.783 -5.201,8.377 -2.417,12.496 1.739,2.574 4.576,3.962 7.465,3.962 1.734,0 3.486,-0.499 5.031,-1.544 8.244,-5.582 14.202,-11.06 18.307,-16.795 4.093,-5.694 6.26,-11.877 6.24,-17.845 0.006,-6.874 -2.763,-12.796 -6.212,-17.306 -5.233,-6.808 -12.043,-11.276 -17.564,-14.391 -5.531,-3.076 -9.847,-4.665 -10.145,-4.778 -1.257,-0.462 -2.549,-0.616 -3.802,-0.517 -0.499,-0.084 -1.006,-0.142 -1.526,-0.142 h -52.857 c -0.521,0 -1.028,0.059 -1.529,0.143 -1.253,-0.098 -2.544,0.056 -3.801,0.517 -0.401,0.163 -7.925,2.891 -15.989,8.379 -4.031,2.768 -8.242,6.232 -11.72,10.788 -3.45,4.51 -6.218,10.433 -6.212,17.307 -0.021,5.968 2.146,12.15 6.24,17.845 4.104,5.736 10.064,11.212 18.309,16.796 z"
       id="path14" /><circle
       style="fill:#ffffff;fill-opacity:1;stroke-width:1.63025"
       id="path966"
       cx="140.94585"
       cy="70.647514"
       r="3.5" /><circle
       style="fill:#ffffff;fill-opacity:1;stroke-width:1.63025"
       id="path966-3"
       cx="158.40569"
       cy="71.251549"
       r="3.5" /><g
       id="g1577"
       transform="translate(-58.65451,-15.314712)"><g
         id="g1559"
         transform="matrix(0.47368421,0,0,0.47368421,184.9698,67.646808)"><g
           id="g1557"><path
             d="M 50,2.5000007 C 23.804033,2.5000007 2.5,23.804034 2.5,50.000001 2.5,76.195967 23.804033,97.5 50,97.5 76.195967,97.5 97.5,76.195969 97.5,50 97.5,23.804031 76.195969,2.5000007 50,2.5000007 Z M 65.625862,24.502834 c 2.92643,0 5.296013,3.647156 5.296013,8.135071 0,4.498844 -2.369583,8.146 -5.296013,8.146 -2.92643,0 -5.295952,-3.647156 -5.295952,-8.146 0,-4.487915 2.369522,-8.135071 5.295952,-8.135071 z m -31.25172,0 c 2.926426,0 5.296016,3.647156 5.296016,8.135071 0,4.498844 -2.36959,8.146 -5.296016,8.146 -2.92643,0 -5.295952,-3.647156 -5.295952,-8.146 0,-4.487915 2.369522,-8.135071 5.295952,-8.135071 z m 46.014957,34.178215 c -0.316643,0.393086 -0.78624,0.600559 -1.26664,0.600559 -0.360359,0 -0.731651,-0.120098 -1.026436,-0.360363 C 77.517258,58.451713 76.92762,58.080421 76.305199,57.80743 75.245972,72.057487 63.856899,83.315529 50,83.315529 c -13.856899,0 -25.245972,-11.258042 -26.305136,-25.508099 -0.622421,0.272991 -1.212118,0.644284 -1.790819,1.113816 -0.294849,0.240264 -0.666077,0.360363 -1.02644,0.360363 -0.480463,0 -0.949995,-0.207474 -1.266637,-0.60056 -0.578768,-0.709797 -0.469599,-1.736236 0.229267,-2.304077 2.981014,-2.413173 6.50807,-3.079315 10.504593,-1.976433 0.87355,0.240265 1.386802,1.135674 1.146537,2.009224 -0.240198,0.873551 -1.135606,1.386803 -2.009157,1.146542 -0.89541,-0.251129 -1.736236,-0.38216 -2.544271,-0.393089 C 27.680458,69.906303 37.737377,80.039665 50,80.039665 c 12.262688,0 22.319542,-10.133362 23.062065,-22.876449 -0.808037,0.01093 -1.648865,0.14196 -2.544205,0.393089 -0.862686,0.229332 -1.768959,-0.272991 -2.009223,-1.146542 -0.240204,-0.87355 0.272987,-1.768959 1.146537,-2.009224 3.99659,-1.102882 7.534508,-0.43674 10.504593,1.976433 0.698868,0.567841 0.808029,1.59428 0.229332,2.304077 z"
             id="path1555" /></g></g></g><g
       id="g2076"
       transform="translate(69.82722,53.516307)"><polygon
         points="462,483.11 462,545.11 490,545.11 470.399,483.11 "
         id="polygon2"
         style="fill:#ffffff;fill-opacity:1"
         transform="matrix(0.36477352,0,0,0.36477352,-106.59177,-106.07093)" /><polygon
         points="534,545.11 562,545.11 562,483.11 553.602,483.11 "
         id="polygon4"
         style="fill:#ffffff;fill-opacity:1"
         transform="matrix(0.36477352,0,0,0.36477352,-106.59177,-106.07093)" /><path
         d="m 80.171904,92.535841 c 1.51709,0 2.52934,-1.094685 4.04643,-1.094685 0.75508,0 1.56598,0.349818 2.19558,0.621209 l 0.8718,-2.959772 c -1.02975,-0.29802 -1.89937,-0.944034 -3.06701,-0.944034 -1.51709,0 -2.52898,1.093956 -4.04643,1.093956 v 0 c -1.51783,0 -2.52898,-1.093956 -4.04644,-1.093956 -1.16764,0 -2.03689,0.646014 -3.06665,0.944034 l 0.87181,2.959772 c 0.62887,-0.271391 1.44013,-0.621209 2.19484,-0.621209 1.51746,0 2.52934,1.094685 4.04607,1.094685 z"
         id="path6-1"
         style="fill:#2563eb;fill-opacity:1;stroke-width:0.364774" /><path
         d="m 80.172634,76.436197 c 1.50652,0 2.51074,-1.09432 4.01725,-1.09432 1.50688,0 2.5111,1.09432 4.01762,1.09432 1.24351,0 2.14888,-0.737572 3.27311,-0.99802 l -1.12715,3.804223 c -0.37061,0.126576 -1.71735,0.477124 -2.14669,0.477124 -1.50615,0 -2.51037,-1.094686 -4.01725,-1.094686 -1.50652,0 -2.5111,1.094686 -4.01725,1.094686 v 0 c -1.50652,0 -2.51074,-1.094686 -4.01725,-1.094686 -1.50652,0 -2.51111,1.094686 -4.01762,1.094686 -0.42897,0 -1.77572,-0.350183 -2.14633,-0.477124 l -1.12678,-3.804223 c 1.12423,0.260448 2.02887,0.99802 3.27274,0.99802 1.50652,0 2.51074,-1.09432 4.01762,-1.09432 1.50651,0 2.51037,1.09432 4.01725,1.09432 z"
         id="path8-0"
         style="fill:#2563eb;fill-opacity:1;stroke-width:0.364774" /><path
         d="m 80.172634,82.844538 c 1.51709,0 2.52825,-1.094685 4.04497,-1.094685 1.5171,0 2.52861,1.094685 4.04571,1.094685 0.36769,0 0.70547,-0.06384 1.02829,-0.160135 l -1.02902,3.442732 c -1.51673,0 -2.52788,-1.093955 -4.04534,-1.093955 -1.51673,0 -2.52825,1.093955 -4.04497,1.093955 v 0 c -1.51673,0 -2.52788,-1.093955 -4.04498,-1.093955 -1.51709,0 -2.52824,1.093955 -4.04534,1.093955 l -1.02866,-3.442732 c 0.32283,0.09667 0.66097,0.160135 1.0283,0.160135 1.51709,0 2.52824,-1.094685 4.04534,-1.094685 1.51709,0 2.52824,1.094685 4.04497,1.094685 z"
         id="path10-4"
         style="fill:#2563eb;fill-opacity:1;stroke-width:0.364774" /></g><g
       id="g2096"
       transform="translate(-114.44194,54.318737)"><g
         id="g2080"
         transform="matrix(2.5179097,0,0,2.5179097,242.93736,-31.038628)"
         style="fill:#ffcc00"><path
           style="color:#000000;fill:#ffcc00"
           d="m 8.4646014,2.6955846 a 0.85947485,0.85947485 0 0 0 -0.739376,0.418783 l -2.860994,4.818117 -3.460215,-2.839173 A 0.85947485,0.85947485 0 0 0 0.02093841,5.9468266 L 1.7397154,13.568868 a 0.85947485,0.85947485 0 0 0 0.837569,0.66888 H 14.351919 a 0.85947485,0.85947485 0 0 0 0.840086,-0.66888 l 1.719617,-7.6220414 a 0.85947485,0.85947485 0 0 0 -1.386435,-0.853515 l -3.45686,2.839173 -2.8643486,-4.818117 a 0.85947485,0.85947485 0 0 0 -0.739377,-0.418783 z"
           fill="#000000"
           stroke-width="1"
           stroke-linecap="round"
           stroke-linejoin="round"
           id="path2078" /></g></g></g><g
     inkscape:groupmode="layer"
     id="g183483"
     inkscape:label="Hero 2"
     style="display:none"><path
       d="m 141.2115,235.01731 c 3.076,-0.167 6.025,-0.259 8.788,-0.259 2.761,0 5.71,0.092 8.785,0.259 l -8.786,-51.419 z"
       id="path183441"
       style="fill:#217844;fill-opacity:1" /><path
       d="m 192.2505,162.37231 c -1.826,1.234 -3.953,1.887 -6.151,1.887 -3.413,0 -6.606,-1.571 -8.682,-4.234 l 13.4,78.404 c 21.069,3.028 39.453,6.83 39.453,6.83 0,0 -6.687,-51.855 -21.733,-96.969 -4.057,4.786 -9.407,9.424 -16.287,14.082 z"
       id="path183443"
       style="fill:#217844;fill-opacity:1" /><path
       d="m 109.1805,238.42931 13.398,-78.4 c -2.078,2.662 -5.27,4.23 -8.68,4.23 -2.195,0 -4.321,-0.652 -6.149,-1.887 -6.886,-4.665 -12.235,-9.301 -16.287,-14.082 -15.046,45.114 -21.733,96.968 -21.733,96.968 0,0 18.383,-3.801 39.451,-6.829 z"
       id="path183445"
       style="fill:#217844;fill-opacity:1" /><path
       d="m 193.1505,132.31131 c 2.209,-3.141 2.511,-4.996 2.525,-6.258 -0.006,-1.555 -0.622,-3.105 -1.998,-4.999 -1.45,-1.989 -3.825,-4.188 -6.684,-6.189 -0.318,-0.226 -0.649,-0.451 -0.986,-0.676 l -7.243,30.86 c 0.367,-0.324 0.755,-0.626 1.166,-0.904 7.649,-5.159 11.41,-9.283 13.22,-11.834 z"
       id="path183447"
       style="fill:#217844;fill-opacity:1" /><path
       d="m 106.4725,120.85031 c -1.486,1.979 -2.146,3.59 -2.152,5.231 0.016,1.234 0.318,3.09 2.531,6.237 1.804,2.545 5.567,6.669 13.214,11.823 0.415,0.282 0.805,0.586 1.169,0.91 l -7.242,-30.864 c -3.261,2.193 -5.981,4.591 -7.52,6.663 z"
       id="path183449"
       style="fill:#217844;fill-opacity:1" /><path
       d="m 108.8695,160.71631 c 1.544,1.043 3.296,1.543 5.03,1.543 2.889,0 5.727,-1.388 7.467,-3.961 2.782,-4.118 1.699,-9.713 -2.419,-12.495 -7.024,-4.737 -11.361,-8.988 -13.732,-12.332 -2.381,-3.386 -2.873,-5.637 -2.895,-7.394 0.006,-1.997 0.742,-4.011 2.546,-6.418 2.336,-3.146 6.507,-6.326 10.431,-8.661 l 10.292,43.851 c -0.142,0.49 -0.265,0.989 -0.353,1.503 l -18.089,105.85 c -1.255,7.351 3.683,14.325 11.034,15.58 0.77,0.132 1.537,0.195 2.292,0.195 6.456,0 12.163,-4.648 13.289,-11.228 l 15.532,-90.897 h 1.409 l 15.532,90.897 c 1.125,6.579 6.833,11.228 13.291,11.228 0.756,0 1.521,-0.063 2.292,-0.195 7.349,-1.255 12.288,-8.23 11.032,-15.58 l -18.087,-105.85 c -0.088,-0.514 -0.211,-1.013 -0.352,-1.502 l 10.291,-43.847 c 1.141,0.678 2.304,1.42 3.44,2.224 2.862,2.002 5.493,4.374 7.155,6.651 1.686,2.322 2.373,4.26 2.379,6.198 -0.02,1.756 -0.512,4.006 -2.894,7.392 -2.373,3.347 -6.707,7.597 -13.731,12.333 -4.119,2.783 -5.201,8.377 -2.417,12.496 1.739,2.574 4.576,3.962 7.465,3.962 1.734,0 3.486,-0.499 5.031,-1.544 8.244,-5.582 14.202,-11.06 18.307,-16.795 4.093,-5.694 6.26,-11.877 6.24,-17.845 0.006,-6.874 -2.763,-12.796 -6.212,-17.306 -5.233,-6.808 -12.043,-11.276 -17.564,-14.391 -5.531,-3.076 -9.847,-4.665 -10.145,-4.778 -1.257,-0.462 -2.549,-0.616 -3.802,-0.517 -0.499,-0.084 -1.006,-0.142 -1.526,-0.142 h -52.857 c -0.521,0 -1.028,0.059 -1.529,0.143 -1.253,-0.098 -2.544,0.056 -3.801,0.517 -0.401,0.163 -7.925,2.891 -15.989,8.379 -4.031,2.768 -8.242,6.232 -11.72,10.788 -3.45,4.51 -6.218,10.433 -6.212,17.307 -0.021,5.968 2.146,12.15 6.24,17.845 4.104,5.736 10.064,11.212 18.309,16.796 z"
       id="path183451" /><circle
       style="fill:#ffffff;fill-opacity:1;stroke-width:1.63025"
       id="circle183453"
       cx="140.94585"
       cy="56.647514"
       r="3.5" /><circle
       style="fill:#ffffff;fill-opacity:1;stroke-width:1.63025"
       id="circle183455"
       cx="158.40569"
       cy="57.251549"
       r="3.5" /><g
       id="g183463"
       transform="translate(-58.65451,-29.314712)"><g
         id="g183461"
         transform="matrix(0.47368421,0,0,0.47368421,184.9698,67.646808)"><g
           id="g183459"><path
             d="M 50,2.5000007 C 23.804033,2.5000007 2.5,23.804034 2.5,50.000001 2.5,76.195967 23.804033,97.5 50,97.5 76.195967,97.5 97.5,76.195969 97.5,50 97.5,23.804031 76.195969,2.5000007 50,2.5000007 Z M 65.625862,24.502834 c 2.92643,0 5.296013,3.647156 5.296013,8.135071 0,4.498844 -2.369583,8.146 -5.296013,8.146 -2.92643,0 -5.295952,-3.647156 -5.295952,-8.146 0,-4.487915 2.369522,-8.135071 5.295952,-8.135071 z m -31.25172,0 c 2.926426,0 5.296016,3.647156 5.296016,8.135071 0,4.498844 -2.36959,8.146 -5.296016,8.146 -2.92643,0 -5.295952,-3.647156 -5.295952,-8.146 0,-4.487915 2.369522,-8.135071 5.295952,-8.135071 z m 46.014957,34.178215 c -0.316643,0.393086 -0.78624,0.600559 -1.26664,0.600559 -0.360359,0 -0.731651,-0.120098 -1.026436,-0.360363 C 77.517258,58.451713 76.92762,58.080421 76.305199,57.80743 75.245972,72.057487 63.856899,83.315529 50,83.315529 c -13.856899,0 -25.245972,-11.258042 -26.305136,-25.508099 -0.622421,0.272991 -1.212118,0.644284 -1.790819,1.113816 -0.294849,0.240264 -0.666077,0.360363 -1.02644,0.360363 -0.480463,0 -0.949995,-0.207474 -1.266637,-0.60056 -0.578768,-0.709797 -0.469599,-1.736236 0.229267,-2.304077 2.981014,-2.413173 6.50807,-3.079315 10.504593,-1.976433 0.87355,0.240265 1.386802,1.135674 1.146537,2.009224 -0.240198,0.873551 -1.135606,1.386803 -2.009157,1.146542 -0.89541,-0.251129 -1.736236,-0.38216 -2.544271,-0.393089 C 27.680458,69.906303 37.737377,80.039665 50,80.039665 c 12.262688,0 22.319542,-10.133362 23.062065,-22.876449 -0.808037,0.01093 -1.648865,0.14196 -2.544205,0.393089 -0.862686,0.229332 -1.768959,-0.272991 -2.009223,-1.146542 -0.240204,-0.87355 0.272987,-1.768959 1.146537,-2.009224 3.99659,-1.102882 7.534508,-0.43674 10.504593,1.976433 0.698868,0.567841 0.808029,1.59428 0.229332,2.304077 z"
             id="path183457" /></g></g></g><g
       id="g183475"
       transform="translate(69.82722,39.516307)"><polygon
         points="470.399,483.11 462,483.11 462,545.11 490,545.11 "
         id="polygon183465"
         style="fill:#ffffff;fill-opacity:1"
         transform="matrix(0.36477352,0,0,0.36477352,-106.59177,-106.07093)" /><polygon
         points="553.602,483.11 534,545.11 562,545.11 562,483.11 "
         id="polygon183467"
         style="fill:#ffffff;fill-opacity:1"
         transform="matrix(0.36477352,0,0,0.36477352,-106.59177,-106.07093)" /><path
         d="m 80.171904,92.535841 c 1.51709,0 2.52934,-1.094685 4.04643,-1.094685 0.75508,0 1.56598,0.349818 2.19558,0.621209 l 0.8718,-2.959772 c -1.02975,-0.29802 -1.89937,-0.944034 -3.06701,-0.944034 -1.51709,0 -2.52898,1.093956 -4.04643,1.093956 v 0 c -1.51783,0 -2.52898,-1.093956 -4.04644,-1.093956 -1.16764,0 -2.03689,0.646014 -3.06665,0.944034 l 0.87181,2.959772 c 0.62887,-0.271391 1.44013,-0.621209 2.19484,-0.621209 1.51746,0 2.52934,1.094685 4.04607,1.094685 z"
         id="path183469"
         style="fill:#2563eb;fill-opacity:1;stroke-width:0.364774" /><path
         d="m 80.172634,76.436197 c 1.50652,0 2.51074,-1.09432 4.01725,-1.09432 1.50688,0 2.5111,1.09432 4.01762,1.09432 1.24351,0 2.14888,-0.737572 3.27311,-0.99802 l -1.12715,3.804223 c -0.37061,0.126576 -1.71735,0.477124 -2.14669,0.477124 -1.50615,0 -2.51037,-1.094686 -4.01725,-1.094686 -1.50652,0 -2.5111,1.094686 -4.01725,1.094686 v 0 c -1.50652,0 -2.51074,-1.094686 -4.01725,-1.094686 -1.50652,0 -2.51111,1.094686 -4.01762,1.094686 -0.42897,0 -1.77572,-0.350183 -2.14633,-0.477124 l -1.12678,-3.804223 c 1.12423,0.260448 2.02887,0.99802 3.27274,0.99802 1.50652,0 2.51074,-1.09432 4.01762,-1.09432 1.50651,0 2.51037,1.09432 4.01725,1.09432 z"
         id="path183471"
         style="fill:#2563eb;fill-opacity:1;stroke-width:0.364774" /><path
         d="m 80.172634,82.844538 c 1.51709,0 2.52825,-1.094685 4.04497,-1.094685 1.5171,0 2.52861,1.094685 4.04571,1.094685 0.36769,0 0.70547,-0.06384 1.02829,-0.160135 l -1.02902,3.442732 c -1.51673,0 -2.52788,-1.093955 -4.04534,-1.093955 -1.51673,0 -2.52825,1.093955 -4.04497,1.093955 v 0 c -1.51673,0 -2.52788,-1.093955 -4.04498,-1.093955 -1.51709,0 -2.52824,1.093955 -4.04534,1.093955 l -1.02866,-3.442732 c 0.32283,0.09667 0.66097,0.160135 1.0283,0.160135 1.51709,0 2.52824,-1.094685 4.04534,-1.094685 1.51709,0 2.52824,1.094685 4.04497,1.094685 z"
         id="path183473"
         style="fill:#2563eb;fill-opacity:1;stroke-width:0.364774" /></g></g><g
     inkscape:groupmode="layer"
     id="g183961"
     inkscape:label="Hero 3"
     style="display:none"><path
       d="m 108.8695,160.71631 c 1.544,1.043 3.296,1.543 5.03,1.543 2.889,0 5.727,-1.388 7.467,-3.961 2.782,-4.118 1.699,-9.713 -2.419,-12.495 -7.024,-4.737 -11.361,-8.988 -13.732,-12.332 -2.381,-3.386 -2.873,-5.637 -2.895,-7.394 0.006,-1.997 0.742,-4.011 2.546,-6.418 2.336,-3.146 6.507,-6.326 10.431,-8.661 l 10.292,43.851 c -0.142,0.49 -0.265,0.989 -0.353,1.503 l -18.089,105.85 c -1.255,7.351 3.683,14.325 11.034,15.58 0.77,0.132 1.537,0.195 2.292,0.195 6.456,0 12.163,-4.648 13.289,-11.228 l 15.532,-90.897 h 1.409 l 15.532,90.897 c 1.125,6.579 6.833,11.228 13.291,11.228 0.756,0 1.521,-0.063 2.292,-0.195 7.349,-1.255 12.288,-8.23 11.032,-15.58 l -18.087,-105.85 c -0.088,-0.514 -0.211,-1.013 -0.352,-1.502 l 10.291,-43.847 c 1.141,0.678 2.304,1.42 3.44,2.224 2.862,2.002 5.493,4.374 7.155,6.651 1.686,2.322 2.373,4.26 2.379,6.198 -0.02,1.756 -0.512,4.006 -2.894,7.392 -2.373,3.347 -6.707,7.597 -13.731,12.333 -4.119,2.783 -5.201,8.377 -2.417,12.496 1.739,2.574 4.576,3.962 7.465,3.962 1.734,0 3.486,-0.499 5.031,-1.544 8.244,-5.582 14.202,-11.06 18.307,-16.795 4.093,-5.694 6.26,-11.877 6.24,-17.845 0.006,-6.874 -2.763,-12.796 -6.212,-17.306 -5.233,-6.808 -12.043,-11.276 -17.564,-14.391 -5.531,-3.076 -9.847,-4.665 -10.145,-4.778 -1.257,-0.462 -2.549,-0.616 -3.802,-0.517 -0.499,-0.084 -1.006,-0.142 -1.526,-0.142 h -52.857 c -0.521,0 -1.028,0.059 -1.529,0.143 -1.253,-0.098 -2.544,0.056 -3.801,0.517 -0.401,0.163 -7.925,2.891 -15.989,8.379 -4.031,2.768 -8.242,6.232 -11.72,10.788 -3.45,4.51 -6.218,10.433 -6.212,17.307 -0.021,5.968 2.146,12.15 6.24,17.845 4.104,5.736 10.064,11.212 18.309,16.796 z"
       id="path183935" /><circle
       style="fill:#ffffff;fill-opacity:1;stroke-width:1.63025"
       id="circle183937"
       cx="140.94585"
       cy="56.647514"
       r="3.5" /><circle
       style="fill:#ffffff;fill-opacity:1;stroke-width:1.63025"
       id="circle183939"
       cx="158.40569"
       cy="57.251549"
       r="3.5" /><g
       id="g183947"
       transform="translate(-58.65451,-29.314712)"><g
         id="g183945"
         transform="matrix(0.47368421,0,0,0.47368421,184.9698,67.646808)"><g
           id="g183943"><path
             d="M 50,2.5000007 C 23.804033,2.5000007 2.5,23.804034 2.5,50.000001 2.5,76.195967 23.804033,97.5 50,97.5 76.195967,97.5 97.5,76.195969 97.5,50 97.5,23.804031 76.195969,2.5000007 50,2.5000007 Z M 65.625862,24.502834 c 2.92643,0 5.296013,3.647156 5.296013,8.135071 0,4.498844 -2.369583,8.146 -5.296013,8.146 -2.92643,0 -5.295952,-3.647156 -5.295952,-8.146 0,-4.487915 2.369522,-8.135071 5.295952,-8.135071 z m -31.25172,0 c 2.926426,0 5.296016,3.647156 5.296016,8.135071 0,4.498844 -2.36959,8.146 -5.296016,8.146 -2.92643,0 -5.295952,-3.647156 -5.295952,-8.146 0,-4.487915 2.369522,-8.135071 5.295952,-8.135071 z m 46.014957,34.178215 c -0.316643,0.393086 -0.78624,0.600559 -1.26664,0.600559 -0.360359,0 -0.731651,-0.120098 -1.026436,-0.360363 C 77.517258,58.451713 76.92762,58.080421 76.305199,57.80743 75.245972,72.057487 63.856899,83.315529 50,83.315529 c -13.856899,0 -25.245972,-11.258042 -26.305136,-25.508099 -0.622421,0.272991 -1.212118,0.644284 -1.790819,1.113816 -0.294849,0.240264 -0.666077,0.360363 -1.02644,0.360363 -0.480463,0 -0.949995,-0.207474 -1.266637,-0.60056 -0.578768,-0.709797 -0.469599,-1.736236 0.229267,-2.304077 2.981014,-2.413173 6.50807,-3.079315 10.504593,-1.976433 0.87355,0.240265 1.386802,1.135674 1.146537,2.009224 -0.240198,0.873551 -1.135606,1.386803 -2.009157,1.146542 -0.89541,-0.251129 -1.736236,-0.38216 -2.544271,-0.393089 C 27.680458,69.906303 37.737377,80.039665 50,80.039665 c 12.262688,0 22.319542,-10.133362 23.062065,-22.876449 -0.808037,0.01093 -1.648865,0.14196 -2.544205,0.393089 -0.862686,0.229332 -1.768959,-0.272991 -2.009223,-1.146542 -0.240204,-0.87355 0.272987,-1.768959 1.146537,-2.009224 3.99659,-1.102882 7.534508,-0.43674 10.504593,1.976433 0.698868,0.567841 0.808029,1.59428 0.229332,2.304077 z"
             id="path183941" /></g></g></g><g
       id="g183959"
       transform="translate(69.82722,39.516307)"><polygon
         points="470.399,483.11 462,483.11 462,545.11 490,545.11 "
         id="polygon183949"
         style="fill:#ffffff;fill-opacity:1"
         transform="matrix(0.36477352,0,0,0.36477352,-106.59177,-106.07093)" /><polygon
         points="553.602,483.11 534,545.11 562,545.11 562,483.11 "
         id="polygon183951"
         style="fill:#ffffff;fill-opacity:1"
         transform="matrix(0.36477352,0,0,0.36477352,-106.59177,-106.07093)" /><path
         d="m 80.171904,92.535841 c 1.51709,0 2.52934,-1.094685 4.04643,-1.094685 0.75508,0 1.56598,0.349818 2.19558,0.621209 l 0.8718,-2.959772 c -1.02975,-0.29802 -1.89937,-0.944034 -3.06701,-0.944034 -1.51709,0 -2.52898,1.093956 -4.04643,1.093956 v 0 c -1.51783,0 -2.52898,-1.093956 -4.04644,-1.093956 -1.16764,0 -2.03689,0.646014 -3.06665,0.944034 l 0.87181,2.959772 c 0.62887,-0.271391 1.44013,-0.621209 2.19484,-0.621209 1.51746,0 2.52934,1.094685 4.04607,1.094685 z"
         id="path183953"
         style="fill:#2563eb;fill-opacity:1;stroke-width:0.364774" /><path
         d="m 80.172634,76.436197 c 1.50652,0 2.51074,-1.09432 4.01725,-1.09432 1.50688,0 2.5111,1.09432 4.01762,1.09432 1.24351,0 2.14888,-0.737572 3.27311,-0.99802 l -1.12715,3.804223 c -0.37061,0.126576 -1.71735,0.477124 -2.14669,0.477124 -1.50615,0 -2.51037,-1.094686 -4.01725,-1.094686 -1.50652,0 -2.5111,1.094686 -4.01725,1.094686 v 0 c -1.50652,0 -2.51074,-1.094686 -4.01725,-1.094686 -1.50652,0 -2.51111,1.094686 -4.01762,1.094686 -0.42897,0 -1.77572,-0.350183 -2.14633,-0.477124 l -1.12678,-3.804223 c 1.12423,0.260448 2.02887,0.99802 3.27274,0.99802 1.50652,0 2.51074,-1.09432 4.01762,-1.09432 1.50651,0 2.51037,1.09432 4.01725,1.09432 z"
         id="path183955"
         style="fill:#2563eb;fill-opacity:1;stroke-width:0.364774" /><path
         d="m 80.172634,82.844538 c 1.51709,0 2.52825,-1.094685 4.04497,-1.094685 1.5171,0 2.52861,1.094685 4.04571,1.094685 0.36769,0 0.70547,-0.06384 1.02829,-0.160135 l -1.02902,3.442732 c -1.51673,0 -2.52788,-1.093955 -4.04534,-1.093955 -1.51673,0 -2.52825,1.093955 -4.04497,1.093955 v 0 c -1.51673,0 -2.52788,-1.093955 -4.04498,-1.093955 -1.51709,0 -2.52824,1.093955 -4.04534,1.093955 l -1.02866,-3.442732 c 0.32283,0.09667 0.66097,0.160135 1.0283,0.160135 1.51709,0 2.52824,-1.094685 4.04534,-1.094685 1.51709,0 2.52824,1.094685 4.04497,1.094685 z"
         id="path183957"
         style="fill:#2563eb;fill-opacity:1;stroke-width:0.364774" /></g></g><g
     inkscape:groupmode="layer"
     id="layer8"
     inkscape:label="Grade"
     style="display:inline"><text
       xml:space="preserve"
       style="font-style:normal;font-weight:normal;font-size:13.3333px;line-height:1.25;font-family:sans-serif;display:inline;fill:#000000;fill-opacity:1;stroke:none"
       x="-292.60873"
       y="251.07524"
       id="text37297-3"
       transform="rotate(-90)"
       inkscape:export-filename="C:\repos\wasserrad\public\result\hero_00_4bf91d34e8a7.png"
       inkscape:export-xdpi="409.60001"
       inkscape:export-ydpi="409.60001"><tspan
         x="-292.60873"
         y="251.07524"
         style="font-style:normal;font-variant:normal;font-weight:normal;font-stretch:normal;font-size:13.3333px;font-family:Roboto;-inkscape-font-specification:Roboto"
         id="tspan83036-5"
         sodipodi:role="line"><tspan
           style="font-style:normal;font-variant:normal;font-weight:normal;font-stretch:normal;font-family:'Roboto Black';-inkscape-font-specification:'Roboto Black, '"
           id="tspan125524">Mein Resultat</tspan></tspan><tspan
         x="-292.60873"
         y="268.23959"
         style="font-style:normal;font-variant:normal;font-weight:normal;font-stretch:normal;font-size:13.3333px;font-family:Roboto;-inkscape-font-specification:Roboto"
         sodipodi:role="line"
         id="tspan1599"><tspan
   style="font-style:normal;font-variant:normal;font-weight:normal;font-stretch:normal;font-family:'Roboto Black';-inkscape-font-specification:'Roboto Black, '"
   id="tspan1601">6 Punkte</tspan> - Cum laude</tspan></text><path
       sodipodi:type="star"
       style="display:inline;fill:#e3e3e3;fill-opacity:1;stroke-width:1.56094"
       id="path54543-0"
       inkscape:flatsided="false"
       sodipodi:sides="5"
       sodipodi:cx="-7.1815534"
       sodipodi:cy="-66.29126"
       sodipodi:r1="57.648628"
       sodipodi:r2="29.096973"
       sodipodi:arg1="-0.32175055"
       sodipodi:arg2="0.30656798"
       inkscape:rounded="0"
       inkscape:randomized="0"
       transform="matrix(0.1823968,0,0,0.1823968,283.7252,89.141897)"
       inkscape:transform-center-x="0.11350843"
       inkscape:transform-center-y="-0.90502672"
       d="m 47.508737,-84.521356 -26.949965,27.011226 6.497756,37.599018 -34.0172001,-17.284013 -33.7508739,17.79847 5.92618,-37.693334 -27.356944,-26.598959 37.679781,-6.011749 16.8433527,-34.237533 17.3612053,33.977872 z" /><path
       sodipodi:type="star"
       style="display:inline;fill:#e3e3e3;fill-opacity:1;stroke-width:1.56094"
       id="path54543-2-1"
       inkscape:flatsided="false"
       sodipodi:sides="5"
       sodipodi:cx="-7.1815534"
       sodipodi:cy="-66.29126"
       sodipodi:r1="57.648628"
       sodipodi:r2="29.096973"
       sodipodi:arg1="-0.32175055"
       sodipodi:arg2="0.30656798"
       inkscape:rounded="0"
       inkscape:randomized="0"
       transform="matrix(0.1823968,0,0,0.1823968,283.7252,59.682522)"
       inkscape:transform-center-x="0.11350843"
       inkscape:transform-center-y="-0.90503234"
       d="m 47.508737,-84.521356 -26.949965,27.011226 6.497756,37.599018 -34.0172001,-17.284013 -33.7508739,17.79847 5.92618,-37.693334 -27.356944,-26.598959 37.679781,-6.011749 16.8433527,-34.237533 17.3612053,33.977872 z" /><path
       sodipodi:type="star"
       style="display:inline;fill:#e3e3e3;fill-opacity:1;stroke-width:1.56094"
       id="path54543-2-0-13"
       inkscape:flatsided="false"
       sodipodi:sides="5"
       sodipodi:cx="-7.1815534"
       sodipodi:cy="-66.29126"
       sodipodi:r1="57.648628"
       sodipodi:r2="29.096973"
       sodipodi:arg1="-0.32175055"
       sodipodi:arg2="0.30656798"
       inkscape:rounded="0"
       inkscape:randomized="0"
       transform="matrix(0.1823968,0,0,0.1823968,283.7252,30.223151)"
       inkscape:transform-center-x="0.11350843"
       inkscape:transform-center-y="-0.90502924"
       d="m 47.508737,-84.521356 -26.949965,27.011226 6.497756,37.599018 -34.0172001,-17.284013 -33.7508739,17.79847 5.92618,-37.693334 -27.356944,-26.598959 37.679781,-6.011749 16.8433527,-34.237533 17.3612053,33.977872 z" /><path
       sodipodi:type="star"
       style="display:inline;fill:#ffcc00;fill-opacity:1;stroke-width:1.56094"
       id="path54543"
       inkscape:flatsided="false"
       sodipodi:sides="5"
       sodipodi:cx="-7.1815534"
       sodipodi:cy="-66.29126"
       sodipodi:r1="57.648628"
       sodipodi:r2="29.096973"
       sodipodi:arg1="-0.32175055"
       sodipodi:arg2="0.30656798"
       inkscape:rounded="0"
       inkscape:randomized="0"
       transform="matrix(0.1823968,0,0,0.1823968,283.7252,265.89815)"
       inkscape:transform-center-x="0.11350843"
       inkscape:transform-center-y="-0.90502406"
       d="m 47.508737,-84.521356 -26.949965,27.011226 6.497756,37.599018 -34.0172001,-17.284013 -33.7508739,17.79847 5.92618,-37.693334 -27.356944,-26.598959 37.679781,-6.011749 16.8433527,-34.237533 17.3612053,33.977872 z"
       inkscape:export-filename="C:\repos\wasserrad\public\result\hero_01_9bc61e7fe22e.png"
       inkscape:export-xdpi="409.60001"
       inkscape:export-ydpi="409.60001" /><path
       sodipodi:type="star"
       style="display:inline;fill:#ffcc00;fill-opacity:1;stroke-width:1.56094"
       id="path54543-6"
       inkscape:flatsided="false"
       sodipodi:sides="5"
       sodipodi:cx="-7.1815534"
       sodipodi:cy="-66.29126"
       sodipodi:r1="57.648628"
       sodipodi:r2="29.096973"
       sodipodi:arg1="-0.32175055"
       sodipodi:arg2="0.30656798"
       inkscape:rounded="0"
       inkscape:randomized="0"
       transform="matrix(0.1823968,0,0,0.1823968,283.7252,295.35754)"
       inkscape:transform-center-x="0.11350843"
       inkscape:transform-center-y="-0.90502717"
       d="m 47.508737,-84.521356 -26.949965,27.011226 6.497756,37.599018 -34.0172001,-17.284013 -33.7508739,17.79847 5.92618,-37.693334 -27.356944,-26.598959 37.679781,-6.011749 16.8433527,-34.237533 17.3612053,33.977872 z" /><path
       sodipodi:type="star"
       style="display:inline;fill:#ffcc00;fill-opacity:1;stroke-width:1.56094"
       id="path54543-2"
       inkscape:flatsided="false"
       sodipodi:sides="5"
       sodipodi:cx="-7.1815534"
       sodipodi:cy="-66.29126"
       sodipodi:r1="57.648628"
       sodipodi:r2="29.096973"
       sodipodi:arg1="-0.32175055"
       sodipodi:arg2="0.30656798"
       inkscape:rounded="0"
       inkscape:randomized="0"
       transform="matrix(0.1823968,0,0,0.1823968,283.7252,236.43877)"
       inkscape:transform-center-x="0.11350843"
       inkscape:transform-center-y="-0.90503096"
       d="m 47.508737,-84.521356 -26.949965,27.011226 6.497756,37.599018 -34.0172001,-17.284013 -33.7508739,17.79847 5.92618,-37.693334 -27.356944,-26.598959 37.679781,-6.011749 16.8433527,-34.237533 17.3612053,33.977872 z" /><path
       sodipodi:type="star"
       style="display:inline;fill:#ffcc00;fill-opacity:1;stroke-width:1.56094"
       id="path54543-2-0"
       inkscape:flatsided="false"
       sodipodi:sides="5"
       sodipodi:cx="-7.1815534"
       sodipodi:cy="-66.29126"
       sodipodi:r1="57.648628"
       sodipodi:r2="29.096973"
       sodipodi:arg1="-0.32175055"
       sodipodi:arg2="0.30656798"
       inkscape:rounded="0"
       inkscape:randomized="0"
       transform="matrix(0.1823968,0,0,0.1823968,283.7252,206.9794)"
       inkscape:transform-center-x="0.11350843"
       inkscape:transform-center-y="-0.90502453"
       d="m 47.508737,-84.521356 -26.949965,27.011226 6.497756,37.599018 -34.0172001,-17.284013 -33.7508739,17.79847 5.92618,-37.693334 -27.356944,-26.598959 37.679781,-6.011749 16.8433527,-34.237533 17.3612053,33.977872 z" /><path
       sodipodi:type="star"
       style="display:inline;fill:#ffcc00;fill-opacity:1;stroke-width:1.56094"
       id="path54543-3"
       inkscape:flatsided="false"
       sodipodi:sides="5"
       sodipodi:cx="-7.1815534"
       sodipodi:cy="-66.29126"
       sodipodi:r1="57.648628"
       sodipodi:r2="29.096973"
       sodipodi:arg1="-0.32175055"
       sodipodi:arg2="0.30656798"
       inkscape:rounded="0"
       inkscape:randomized="0"
       transform="matrix(0.1823968,0,0,0.1823968,283.7252,177.52004)"
       inkscape:transform-center-x="0.11350843"
       inkscape:transform-center-y="-0.90502476"
       d="m 47.508737,-84.521356 -26.949965,27.011226 6.497756,37.599018 -34.0172001,-17.284013 -33.7508739,17.79847 5.92618,-37.693334 -27.356944,-26.598959 37.679781,-6.011749 16.8433527,-34.237533 17.3612053,33.977872 z"
       inkscape:export-filename="C:\repos\wasserrad\public\result\hero_04_b6a79a0c2f08.png"
       inkscape:export-xdpi="409.60001"
       inkscape:export-ydpi="409.60001" /><path
       sodipodi:type="star"
       style="display:inline;fill:#e3e3e3;fill-opacity:1;stroke-width:1.56094"
       id="path54543-2-4"
       inkscape:flatsided="false"
       sodipodi:sides="5"
       sodipodi:cx="-7.1815534"
       sodipodi:cy="-66.29126"
       sodipodi:r1="57.648628"
       sodipodi:r2="29.096973"
       sodipodi:arg1="-0.32175055"
       sodipodi:arg2="0.30656798"
       inkscape:rounded="0"
       inkscape:randomized="0"
       transform="matrix(0.1823968,0,0,0.1823968,283.7252,148.06065)"
       inkscape:transform-center-x="0.11350843"
       inkscape:transform-center-y="-0.9050242"
       d="m 47.508737,-84.521356 -26.949965,27.011226 6.497756,37.599018 -34.0172001,-17.284013 -33.7508739,17.79847 5.92618,-37.693334 -27.356944,-26.598959 37.679781,-6.011749 16.8433527,-34.237533 17.3612053,33.977872 z" /><path
       sodipodi:type="star"
       style="display:inline;fill:#e3e3e3;fill-opacity:1;stroke-width:1.56094"
       id="path54543-2-0-1"
       inkscape:flatsided="false"
       sodipodi:sides="5"
       sodipodi:cx="-7.1815534"
       sodipodi:cy="-66.29126"
       sodipodi:r1="57.648628"
       sodipodi:r2="29.096973"
       sodipodi:arg1="-0.32175055"
       sodipodi:arg2="0.30656798"
       inkscape:rounded="0"
       inkscape:randomized="0"
       transform="matrix(0.1823968,0,0,0.1823968,283.7252,118.60127)"
       inkscape:transform-center-x="0.11350843"
       inkscape:transform-center-y="-0.90503109"
       d="m 47.508737,-84.521356 -26.949965,27.011226 6.497756,37.599018 -34.0172001,-17.284013 -33.7508739,17.79847 5.92618,-37.693334 -27.356944,-26.598959 37.679781,-6.011749 16.8433527,-34.237533 17.3612053,33.977872 z" /></g></svg>
