<?xml version="1.0" encoding="UTF-8" standalone="no"?>
<svg
   version="1.1"
   x="0px"
   y="0px"
   viewBox="0 0 300.00002 299.99997"
   xml:space="preserve"
   id="svg22"
   sodipodi:docname="superhero_10.svg"
   inkscape:version="1.1.1 (3bf5ae0d25, 2021-09-20)"
   width="300"
   height="300"
   xmlns:inkscape="http://www.inkscape.org/namespaces/inkscape"
   xmlns:sodipodi="http://sodipodi.sourceforge.net/DTD/sodipodi-0.dtd"
   xmlns:xlink="http://www.w3.org/1999/xlink"
   xmlns="http://www.w3.org/2000/svg"
   xmlns:svg="http://www.w3.org/2000/svg"><defs
     id="defs26"><rect
       x="-147.15852"
       y="289.62671"
       width="393.39987"
       height="40.453934"
       id="rect9779" /><rect
       x="127.95549"
       y="160.98747"
       width="143.60223"
       height="61.543812"
       id="rect5662" /><linearGradient
       id="linearGradient7135"><stop
         style="stop-color:#ff0000;stop-opacity:1;"
         offset="0"
         id="stop7137" /><stop
         style="stop-color:#df0000;stop-opacity:1;"
         offset="1"
         id="stop7139" /></linearGradient><linearGradient
       id="linearGradient7053"><stop
         style="stop-color:#ffffff;stop-opacity:1;"
         offset="0"
         id="stop7055" /><stop
         style="stop-color:#f3f3f3;stop-opacity:1;"
         offset="1"
         id="stop7057" /></linearGradient><linearGradient
       id="linearGradient4122"><stop
         style="stop-color:#ffff7f;stop-opacity:1;"
         offset="0"
         id="stop4124" /><stop
         id="stop8178"
         offset="0.69999999"
         style="stop-color:#efef5f;stop-opacity:1;" /><stop
         style="stop-color:#dfdf3f;stop-opacity:1;"
         offset="1"
         id="stop4126" /></linearGradient></defs><sodipodi:namedview
     id="namedview24"
     pagecolor="#ffffff"
     bordercolor="#666666"
     borderopacity="1.0"
     inkscape:pageshadow="2"
     inkscape:pageopacity="0.0"
     inkscape:pagecheckerboard="0"
     showgrid="false"
     inkscape:zoom="0.60303612"
     inkscape:cx="-256.20356"
     inkscape:cy="44.773437"
     inkscape:window-width="1920"
     inkscape:window-height="1010"
     inkscape:window-x="3833"
     inkscape:window-y="-6"
     inkscape:window-maximized="1"
     inkscape:current-layer="g12891"
     fit-margin-top="0"
     fit-margin-left="0"
     fit-margin-right="0"
     fit-margin-bottom="0" /><style
     type="text/css"
     id="style1553">
	.st0{fill-rule:evenodd;clip-rule:evenodd;}
</style><g
     id="g12891"
     transform="translate(-143.83918,-291.82469)"><text
       xml:space="preserve"
       transform="translate(462,460.29902)"
       id="text5660"
       style="font-style:normal;font-weight:normal;font-size:40px;line-height:1.25;font-family:sans-serif;white-space:pre;shape-inside:url(#rect5662);fill:#000000;fill-opacity:1;stroke:none" /><g
       id="g53474"
       transform="translate(0,4.8857532)"><g
         id="g16"
         transform="translate(213.56868,343.59218)"><path
           d="m 71.482,195.501 c 3.076,-0.167 6.025,-0.259 8.788,-0.259 2.761,0 5.71,0.092 8.785,0.259 l -8.786,-51.419 z"
           id="path2"
           style="fill:#009645;fill-opacity:1" /><path
           d="m 122.521,122.856 c -1.826,1.234 -3.953,1.887 -6.151,1.887 -3.413,0 -6.606,-1.571 -8.682,-4.234 l 13.4,78.404 c 21.069,3.028 39.453,6.83 39.453,6.83 0,0 -6.687,-51.855 -21.733,-96.969 -4.057,4.786 -9.407,9.424 -16.287,14.082 z"
           id="path4"
           style="fill:#009645;fill-opacity:1" /><path
           d="m 39.451,198.913 13.398,-78.4 c -2.078,2.662 -5.27,4.23 -8.68,4.23 -2.195,0 -4.321,-0.652 -6.149,-1.887 C 31.134,118.191 25.785,113.555 21.733,108.774 6.687,153.888 0,205.742 0,205.742 c 0,0 18.383,-3.801 39.451,-6.829 z"
           id="path6"
           style="fill:#009645;fill-opacity:1" /><path
           d="m 123.421,92.795 c 2.209,-3.141 2.511,-4.996 2.525,-6.258 -0.006,-1.555 -0.622,-3.105 -1.998,-4.999 -1.45,-1.989 -3.825,-4.188 -6.684,-6.189 -0.318,-0.226 -0.649,-0.451 -0.986,-0.676 l -7.243,30.86 c 0.367,-0.324 0.755,-0.626 1.166,-0.904 7.649,-5.159 11.41,-9.283 13.22,-11.834 z"
           id="path8"
           style="fill:#009645;fill-opacity:1" /><path
           d="m 36.743,81.334 c -1.486,1.979 -2.146,3.59 -2.152,5.231 0.016,1.234 0.318,3.09 2.531,6.237 1.804,2.545 5.567,6.669 13.214,11.823 0.415,0.282 0.805,0.586 1.169,0.91 L 44.263,74.671 c -3.261,2.193 -5.981,4.591 -7.52,6.663 z"
           id="path10"
           style="fill:#009645;fill-opacity:1" /><path
           d="m 39.14,121.2 c 1.544,1.043 3.296,1.543 5.03,1.543 2.889,0 5.727,-1.388 7.467,-3.961 2.782,-4.118 1.699,-9.713 -2.419,-12.495 -7.024,-4.737 -11.361,-8.988 -13.732,-12.332 -2.381,-3.386 -2.873,-5.637 -2.895,-7.394 0.006,-1.997 0.742,-4.011 2.546,-6.418 2.336,-3.146 6.507,-6.326 10.431,-8.661 l 10.292,43.851 c -0.142,0.49 -0.265,0.989 -0.353,1.503 l -18.089,105.85 c -1.255,7.351 3.683,14.325 11.034,15.58 0.77,0.132 1.537,0.195 2.292,0.195 6.456,0 12.163,-4.648 13.289,-11.228 l 15.532,-90.897 h 1.409 l 15.532,90.897 c 1.125,6.579 6.833,11.228 13.291,11.228 0.756,0 1.521,-0.063 2.292,-0.195 7.349,-1.255 12.288,-8.23 11.032,-15.58 l -18.087,-105.85 c -0.088,-0.514 -0.211,-1.013 -0.352,-1.502 l 10.291,-43.847 c 1.141,0.678 2.304,1.42 3.44,2.224 2.862,2.002 5.493,4.374 7.155,6.651 1.686,2.322 2.373,4.26 2.379,6.198 -0.02,1.756 -0.512,4.006 -2.894,7.392 -2.373,3.347 -6.707,7.597 -13.731,12.333 -4.119,2.783 -5.201,8.377 -2.417,12.496 1.739,2.574 4.576,3.962 7.465,3.962 1.734,0 3.486,-0.499 5.031,-1.544 8.244,-5.582 14.202,-11.06 18.307,-16.795 4.093,-5.694 6.26,-11.877 6.24,-17.845 0.006,-6.874 -2.763,-12.796 -6.212,-17.306 -5.233,-6.808 -12.043,-11.276 -17.564,-14.391 -5.531,-3.076 -9.847,-4.665 -10.145,-4.778 -1.257,-0.462 -2.549,-0.616 -3.802,-0.517 -0.499,-0.084 -1.006,-0.142 -1.526,-0.142 H 53.842 c -0.521,0 -1.028,0.059 -1.529,0.143 -1.253,-0.098 -2.544,0.056 -3.801,0.517 -0.401,0.163 -7.925,2.891 -15.989,8.379 -4.031,2.768 -8.242,6.232 -11.72,10.788 -3.45,4.51 -6.218,10.433 -6.212,17.307 -0.021,5.968 2.146,12.15 6.24,17.845 4.104,5.736 10.064,11.212 18.309,16.796 z"
           id="path14" /><circle
           style="fill:#ffffff;fill-opacity:1;stroke-width:1.63025"
           id="path966"
           cx="71.216362"
           cy="17.131218"
           r="3.5" /><circle
           style="fill:#ffffff;fill-opacity:1;stroke-width:1.63025"
           id="path966-3"
           cx="88.676193"
           cy="17.735239"
           r="3.5" /><g
           id="g1577"
           transform="translate(-128.38401,-68.831019)"><g
             id="g1559"
             transform="matrix(0.47368421,0,0,0.47368421,184.9698,67.646808)"><g
               id="g1557"><path
                 d="M 50,2.5000007 C 23.804033,2.5000007 2.5,23.804034 2.5,50.000001 2.5,76.195967 23.804033,97.5 50,97.5 76.195967,97.5 97.5,76.195969 97.5,50 97.5,23.804031 76.195969,2.5000007 50,2.5000007 Z M 65.625862,24.502834 c 2.92643,0 5.296013,3.647156 5.296013,8.135071 0,4.498844 -2.369583,8.146 -5.296013,8.146 -2.92643,0 -5.295952,-3.647156 -5.295952,-8.146 0,-4.487915 2.369522,-8.135071 5.295952,-8.135071 z m -31.25172,0 c 2.926426,0 5.296016,3.647156 5.296016,8.135071 0,4.498844 -2.36959,8.146 -5.296016,8.146 -2.92643,0 -5.295952,-3.647156 -5.295952,-8.146 0,-4.487915 2.369522,-8.135071 5.295952,-8.135071 z m 46.014957,34.178215 c -0.316643,0.393086 -0.78624,0.600559 -1.26664,0.600559 -0.360359,0 -0.731651,-0.120098 -1.026436,-0.360363 C 77.517258,58.451713 76.92762,58.080421 76.305199,57.80743 75.245972,72.057487 63.856899,83.315529 50,83.315529 c -13.856899,0 -25.245972,-11.258042 -26.305136,-25.508099 -0.622421,0.272991 -1.212118,0.644284 -1.790819,1.113816 -0.294849,0.240264 -0.666077,0.360363 -1.02644,0.360363 -0.480463,0 -0.949995,-0.207474 -1.266637,-0.60056 -0.578768,-0.709797 -0.469599,-1.736236 0.229267,-2.304077 2.981014,-2.413173 6.50807,-3.079315 10.504593,-1.976433 0.87355,0.240265 1.386802,1.135674 1.146537,2.009224 -0.240198,0.873551 -1.135606,1.386803 -2.009157,1.146542 -0.89541,-0.251129 -1.736236,-0.38216 -2.544271,-0.393089 C 27.680458,69.906303 37.737377,80.039665 50,80.039665 c 12.262688,0 22.319542,-10.133362 23.062065,-22.876449 -0.808037,0.01093 -1.648865,0.14196 -2.544205,0.393089 -0.862686,0.229332 -1.768959,-0.272991 -2.009223,-1.146542 -0.240204,-0.87355 0.272987,-1.768959 1.146537,-2.009224 3.99659,-1.102882 7.534508,-0.43674 10.504593,1.976433 0.698868,0.567841 0.808029,1.59428 0.229332,2.304077 z"
                 id="path1555" /></g></g></g><g
           id="g2076"
           transform="translate(0.0977244)"><polygon
             points="470.399,483.11 462,483.11 462,545.11 490,545.11 "
             id="polygon2"
             style="fill:#ffffff;fill-opacity:1"
             transform="matrix(0.36477352,0,0,0.36477352,-106.59177,-106.07093)" /><polygon
             points="553.602,483.11 534,545.11 562,545.11 562,483.11 "
             id="polygon4"
             style="fill:#ffffff;fill-opacity:1"
             transform="matrix(0.36477352,0,0,0.36477352,-106.59177,-106.07093)" /><path
             d="m 80.171904,92.535841 c 1.51709,0 2.52934,-1.094685 4.04643,-1.094685 0.75508,0 1.56598,0.349818 2.19558,0.621209 l 0.8718,-2.959772 c -1.02975,-0.29802 -1.89937,-0.944034 -3.06701,-0.944034 -1.51709,0 -2.52898,1.093956 -4.04643,1.093956 v 0 c -1.51783,0 -2.52898,-1.093956 -4.04644,-1.093956 -1.16764,0 -2.03689,0.646014 -3.06665,0.944034 l 0.87181,2.959772 c 0.62887,-0.271391 1.44013,-0.621209 2.19484,-0.621209 1.51746,0 2.52934,1.094685 4.04607,1.094685 z"
             id="path6-1"
             style="fill:#2563eb;fill-opacity:1;stroke-width:0.364774" /><path
             d="m 80.172634,76.436197 c 1.50652,0 2.51074,-1.09432 4.01725,-1.09432 1.50688,0 2.5111,1.09432 4.01762,1.09432 1.24351,0 2.14888,-0.737572 3.27311,-0.99802 l -1.12715,3.804223 c -0.37061,0.126576 -1.71735,0.477124 -2.14669,0.477124 -1.50615,0 -2.51037,-1.094686 -4.01725,-1.094686 -1.50652,0 -2.5111,1.094686 -4.01725,1.094686 v 0 c -1.50652,0 -2.51074,-1.094686 -4.01725,-1.094686 -1.50652,0 -2.51111,1.094686 -4.01762,1.094686 -0.42897,0 -1.77572,-0.350183 -2.14633,-0.477124 l -1.12678,-3.804223 c 1.12423,0.260448 2.02887,0.99802 3.27274,0.99802 1.50652,0 2.51074,-1.09432 4.01762,-1.09432 1.50651,0 2.51037,1.09432 4.01725,1.09432 z"
             id="path8-0"
             style="fill:#2563eb;fill-opacity:1;stroke-width:0.364774" /><path
             d="m 80.172634,82.844538 c 1.51709,0 2.52825,-1.094685 4.04497,-1.094685 1.5171,0 2.52861,1.094685 4.04571,1.094685 0.36769,0 0.70547,-0.06384 1.02829,-0.160135 l -1.02902,3.442732 c -1.51673,0 -2.52788,-1.093955 -4.04534,-1.093955 -1.51673,0 -2.52825,1.093955 -4.04497,1.093955 v 0 c -1.51673,0 -2.52788,-1.093955 -4.04498,-1.093955 -1.51709,0 -2.52824,1.093955 -4.04534,1.093955 l -1.02866,-3.442732 c 0.32283,0.09667 0.66097,0.160135 1.0283,0.160135 1.51709,0 2.52824,-1.094685 4.04534,-1.094685 1.51709,0 2.52824,1.094685 4.04497,1.094685 z"
             id="path10-4"
             style="fill:#2563eb;fill-opacity:1;stroke-width:0.364774" /></g><g
           id="g2096"
           transform="translate(-184.17144,0.80243011)"><g
             id="g2080"
             transform="matrix(2.5179097,0,0,2.5179097,242.93736,-31.038628)"
             style="fill:#ffcc00"><path
               style="color:#000000;fill:#ffcc00"
               d="m 8.4646014,2.6955846 a 0.85947485,0.85947485 0 0 0 -0.739376,0.418783 l -2.860994,4.818117 -3.460215,-2.839173 A 0.85947485,0.85947485 0 0 0 0.02093841,5.9468266 L 1.7397154,13.568868 a 0.85947485,0.85947485 0 0 0 0.837569,0.66888 H 14.351919 a 0.85947485,0.85947485 0 0 0 0.840086,-0.66888 l 1.719617,-7.6220414 a 0.85947485,0.85947485 0 0 0 -1.386435,-0.853515 l -3.45686,2.839173 -2.8643486,-4.818117 a 0.85947485,0.85947485 0 0 0 -0.739377,-0.418783 z"
               fill="#000000"
               stroke-width="1"
               stroke-linecap="round"
               stroke-linejoin="round"
               id="path2078" /></g></g><text
           xml:space="preserve"
           transform="translate(0,-23.448962)"
           id="text9777"
           style="font-style:normal;font-weight:normal;font-size:40px;line-height:1.25;font-family:sans-serif;white-space:pre;shape-inside:url(#rect9779);fill:#000000;fill-opacity:1;stroke:none"><tspan
             x="-147.1582"
             y="366.57329"
             id="tspan53526"><tspan
               dx="0 16.835938"
               id="tspan53524">Ic</tspan></tspan></text></g><text
         xml:space="preserve"
         style="font-style:normal;font-weight:normal;font-size:18.6667px;line-height:1.25;font-family:sans-serif;fill:#000000;fill-opacity:1;stroke:none"
         id="text3684"
         transform="translate(-164.73222,63.014467)"><textPath
           xlink:href="#path43294"
           startOffset="50%"
           id="textPath49368"><tspan
             id="tspan3682"
             style="font-style:normal;font-variant:normal;font-weight:normal;font-stretch:normal;font-size:18.6667px;font-family:'Roboto Black';-inkscape-font-specification:'Roboto Black, ';fill:#1a1a1a"><tspan
               style="text-align:center;text-anchor:middle"
               id="tspan45584">Mühlebach Wasserrad Quiz Hero</tspan></tspan></textPath></text></g><circle
       style="fill:none;fill-opacity:1;stroke-width:2.07663"
       id="path43294"
       cx="338.96094"
       cy="-460.10513"
       r="100"
       transform="rotate(90)" /></g></svg>
