<?xml version="1.0" encoding="UTF-8" standalone="no"?>
<svg
   version="1.1"
   x="0px"
   y="0px"
   viewBox="462 462 100.14706 123.17093"
   enable-background="new 462 462 100 100"
   xml:space="preserve"
   id="svg16"
   sodipodi:docname="logo_mit_wappen.svg"
   width="100.14706"
   height="123.17093"
   inkscape:version="1.1.1 (3bf5ae0d25, 2021-09-20)"
   xmlns:inkscape="http://www.inkscape.org/namespaces/inkscape"
   xmlns:sodipodi="http://sodipodi.sourceforge.net/DTD/sodipodi-0.dtd"
   xmlns:xlink="http://www.w3.org/1999/xlink"
   xmlns="http://www.w3.org/2000/svg"
   xmlns:svg="http://www.w3.org/2000/svg"><defs
     id="defs20"><rect
       x="127.95549"
       y="160.98747"
       width="143.60223"
       height="61.543812"
       id="rect5662" /><radialGradient
       inkscape:collect="always"
       xlink:href="#linearGradient7135"
       id="radialGradient7141"
       cx="78.5"
       cy="59.333332"
       fx="78.5"
       fy="59.333332"
       r="62.5"
       gradientTransform="matrix(0.23622052,0,0,0.28346461,461.43463,527.75021)"
       gradientUnits="userSpaceOnUse" /><linearGradient
       id="linearGradient7135"><stop
         style="stop-color:#ff0000;stop-opacity:1;"
         offset="0"
         id="stop7137" /><stop
         style="stop-color:#df0000;stop-opacity:1;"
         offset="1"
         id="stop7139" /></linearGradient><radialGradient
       inkscape:collect="always"
       xlink:href="#linearGradient7053"
       id="radialGradient7067"
       cx="71.5"
       cy="44.536083"
       fx="71.5"
       fy="44.536083"
       r="62.75"
       gradientTransform="matrix(0.23622052,0,0,0.09128841,461.43463,541.9208)"
       gradientUnits="userSpaceOnUse" /><linearGradient
       id="linearGradient7053"><stop
         style="stop-color:#ffffff;stop-opacity:1;"
         offset="0"
         id="stop7055" /><stop
         style="stop-color:#f3f3f3;stop-opacity:1;"
         offset="1"
         id="stop7057" /></linearGradient><radialGradient
       inkscape:collect="always"
       xlink:href="#linearGradient4122"
       id="radialGradient4128"
       cx="70.484375"
       cy="69.663376"
       fx="70.484375"
       fy="69.663376"
       r="32.492985"
       gradientTransform="matrix(0.23622052,0,0,0.46915874,461.43463,514.40979)"
       gradientUnits="userSpaceOnUse" /><linearGradient
       id="linearGradient4122"><stop
         style="stop-color:#ffff7f;stop-opacity:1;"
         offset="0"
         id="stop4124" /><stop
         id="stop8178"
         offset="0.69999999"
         style="stop-color:#efef5f;stop-opacity:1;" /><stop
         style="stop-color:#dfdf3f;stop-opacity:1;"
         offset="1"
         id="stop4126" /></linearGradient></defs><sodipodi:namedview
     id="namedview18"
     pagecolor="#ffffff"
     bordercolor="#666666"
     borderopacity="1.0"
     inkscape:pageshadow="2"
     inkscape:pageopacity="0.0"
     inkscape:pagecheckerboard="0"
     showgrid="false"
     inkscape:zoom="4.0672782"
     inkscape:cx="52.492106"
     inkscape:cy="44.501505"
     inkscape:window-width="1920"
     inkscape:window-height="1010"
     inkscape:window-x="3833"
     inkscape:window-y="-6"
     inkscape:window-maximized="1"
     inkscape:current-layer="svg16"
     fit-margin-top="0"
     fit-margin-left="0"
     fit-margin-right="0"
     fit-margin-bottom="0" /><polygon
     points="462,483.11 462,545.11 490,545.11 470.399,483.11 "
     id="polygon2"
     style="fill:#000000;fill-opacity:1"
     transform="translate(0,-1.7009781)" /><polygon
     points="534,545.11 562,545.11 562,483.11 553.602,483.11 "
     id="polygon4"
     style="fill:#000000;fill-opacity:1"
     transform="translate(0,-1.7009781)" /><path
     d="m 511.999,542.76502 c 4.159,0 6.934,-3.001 11.093,-3.001 2.07,0 4.293,0.959 6.019,1.703 l 2.39,-8.114 c -2.823,-0.817 -5.207,-2.588 -8.408,-2.588 -4.159,0 -6.933,2.999 -11.093,2.999 v 0 c -4.161,0 -6.933,-2.999 -11.093,-2.999 -3.201,0 -5.584,1.771 -8.407,2.588 l 2.39,8.114 c 1.724,-0.744 3.948,-1.703 6.017,-1.703 4.16,0 6.934,3.001 11.092,3.001 z"
     id="path6"
     style="fill:#2563eb;fill-opacity:1" /><path
     d="m 512.001,498.62902 c 4.13,0 6.883,-3 11.013,-3 4.131,0 6.884,3 11.014,3 3.409,0 5.891,-2.022 8.973,-2.736 l -3.09,10.429 c -1.016,0.347 -4.708,1.308 -5.885,1.308 -4.129,0 -6.882,-3.001 -11.013,-3.001 -4.13,0 -6.884,3.001 -11.013,3.001 v 0 c -4.13,0 -6.883,-3.001 -11.013,-3.001 -4.13,0 -6.884,3.001 -11.014,3.001 -1.176,0 -4.868,-0.96 -5.884,-1.308 L 481,495.89302 c 3.082,0.714 5.562,2.736 8.972,2.736 4.13,0 6.883,-3 11.014,-3 4.13,0 6.882,3 11.013,3 z"
     id="path8"
     style="fill:#2563eb;fill-opacity:1" /><path
     d="m 512.001,516.19702 c 4.159,0 6.931,-3.001 11.089,-3.001 4.159,0 6.932,3.001 11.091,3.001 1.008,0 1.934,-0.175 2.819,-0.439 l -2.821,9.438 c -4.158,0 -6.93,-2.999 -11.09,-2.999 -4.158,0 -6.931,2.999 -11.089,2.999 v 0 c -4.158,0 -6.93,-2.999 -11.089,-2.999 -4.159,0 -6.931,2.999 -11.09,2.999 l -2.82,-9.438 c 0.885,0.265 1.812,0.439 2.819,0.439 4.159,0 6.931,-3.001 11.09,-3.001 4.159,0 6.931,3.001 11.089,3.001 z"
     id="path10"
     style="fill:#2563eb;fill-opacity:1" /><text
     xml:space="preserve"
     transform="translate(462,460.29902)"
     id="text5660"
     style="font-style:normal;font-weight:normal;font-size:40px;line-height:1.25;font-family:sans-serif;white-space:pre;shape-inside:url(#rect5662);fill:#000000;fill-opacity:1;stroke:none" /><g
     id="g1030"
     transform="translate(0.712433,17.924668)"><path
       style="fill:url(#radialGradient7141);fill-opacity:1;fill-rule:nonzero;stroke:none;stroke-width:0.118111;stroke-linecap:round;stroke-linejoin:miter;stroke-miterlimit:4;stroke-dasharray:none;stroke-dashoffset:0;stroke-opacity:1"
       d="m 461.67085,531.57697 v 20.6693 c 0,8.17795 6.58583,14.76377 14.76378,14.76377 8.17796,0 14.76378,-6.58582 14.76378,-14.76377 v -20.6693 h -14.76378 z"
       id="rect1370" /><path
       style="fill:url(#radialGradient7067);fill-opacity:1;fill-rule:nonzero;stroke:#000000;stroke-width:0.0708661;stroke-linecap:round;stroke-linejoin:miter;stroke-miterlimit:4;stroke-dasharray:none;stroke-dashoffset:0;stroke-opacity:1"
       d="m 461.67085,542.91555 v 9.33072 c 0,0.68244 0.0514,1.35051 0.14025,2.00787 h 29.24706 c 0.0889,-0.65736 0.14025,-1.32543 0.14025,-2.00787 v -9.33072 z"
       id="path35371" /><path
       id="path3133"
       style="fill:url(#radialGradient4128);fill-opacity:1;stroke:#000000;stroke-width:0.0708661;stroke-miterlimit:4;stroke-dasharray:none;stroke-opacity:1"
       d="m 476.07292,533.26742 c -0.11924,0.002 -0.23285,0.008 -0.33957,0.0148 -0.42684,0.026 -0.81871,0.0874 -1.17372,0.18454 -0.71003,0.19435 -1.27944,0.53805 -1.72736,1.07038 -1.04806,1.24555 -1.67151,3.23814 0.15502,4.90157 1.09458,0.99685 0.95359,1.56116 0.72342,1.92667 -0.45435,0.72151 -0.93428,0.50585 -2.08907,-0.25836 -0.84408,-0.55859 -1.55787,-0.67074 -1.99311,-0.406 -0.43525,0.26472 -0.59113,0.90345 -0.62746,1.56496 -0.053,0.96544 0.26216,1.07821 1.57234,1.74212 1.88402,0.95471 2.69439,1.8081 2.69439,2.84203 0,1.08424 -0.56209,1.2926 -1.88977,0.6939 -1.27751,-0.57608 -2.03885,-0.38053 -2.46555,0.64961 -0.50145,1.21061 0.189,2.25747 2.19981,3.32923 1.86194,0.99241 2.46448,1.70675 2.5246,3.01919 0.0401,0.87559 -0.0485,1.07739 -1.02607,0.70128 -1.63611,-0.62949 -1.77428,0.19679 -1.66093,0.74557 0.15082,0.73024 0.88297,1.03471 2.15551,2.16289 1.02584,0.90947 1.95222,2.07116 2.4434,2.55413 0.21562,0.21202 0.71963,0.81302 0.71998,1.40257 l 7.1e-4,1.63878 c 0,0 0.0453,0.007 0.15747,0.007 0.007,9e-5 0.007,-6e-5 0.0148,0 0.11226,-9.3e-4 0.15748,-0.007 0.15748,-0.007 l -0.007,-1.6314 c -0.002,-0.58955 0.4896,-1.21406 0.71998,-1.40995 0.47544,-0.40422 1.41757,-1.64466 2.44341,-2.55413 1.27253,-1.12818 2.00468,-1.43265 2.15551,-2.16289 0.11334,-0.54878 -0.0249,-1.37506 -1.66093,-0.74557 -0.97754,0.3761 -1.06619,0.18169 -1.02608,-0.6939 0.0601,-1.31244 0.66266,-2.03416 2.52461,-3.02657 2.01081,-1.07176 2.70126,-2.11862 2.1998,-3.32923 -0.4267,-1.03014 -1.18066,-1.22569 -2.45817,-0.64961 -1.32768,0.5987 -1.89714,0.39034 -1.89714,-0.6939 0,-1.03393 0.81037,-1.88732 2.69438,-2.84203 1.31019,-0.66391 1.63277,-0.76931 1.57973,-1.73474 -0.0364,-0.6615 -0.1996,-1.30762 -0.63484,-1.57234 -0.43524,-0.26474 -1.14165,-0.15259 -1.98573,0.406 -1.1548,0.76421 -1.63473,0.97987 -2.08908,0.25836 -0.23017,-0.36551 -0.37854,-0.92982 0.71604,-1.92667 1.82653,-1.66343 1.20309,-3.65602 0.15503,-4.90157 -0.44793,-0.53233 -1.01735,-0.87603 -1.72738,-1.07038 -0.355,-0.0972 -0.73949,-0.15857 -1.16634,-0.18454 -0.21341,-0.013 -0.46912,-0.018 -0.70128,-0.0148 -0.11607,-9.3e-4 -0.24247,-0.002 -0.36171,0 z m 0.18848,30.47491 0.17323,-21.28347 m 0.16536,21.28347 -0.0229,-3.50513 -0.10018,-15.27359 -0.0422,-2.50475" /><path
       style="fill:none;fill-opacity:1;fill-rule:nonzero;stroke:#000000;stroke-width:0.47244;stroke-linecap:round;stroke-linejoin:miter;stroke-miterlimit:4;stroke-dasharray:none;stroke-dashoffset:0;stroke-opacity:1"
       d="m 461.67085,531.57697 v 20.6693 c 0,8.17795 6.58583,14.76377 14.76378,14.76377 8.17796,0 14.76378,-6.58582 14.76378,-14.76377 v -20.6693 h -14.76378 z"
       id="path5073" /></g><g
     id="g1010"
     transform="translate(-6.343182,17.540202)"><path
       inkscape:connector-curvature="0"
       style="fill:#1b63c6;fill-opacity:1;fill-rule:evenodd;stroke:#000000;stroke-width:0.287207;stroke-linecap:butt;stroke-miterlimit:4;stroke-dashoffset:0;stroke-opacity:1"
       id="path4212"
       d="m 503.63731,531.86882 0.5401,22.68979 c 0.38579,16.20697 28.23987,16.20697 28.62567,0 l 0.5401,-22.68979 z" /><path
       style="fill:#009645;fill-opacity:1;stroke:#000000;stroke-width:0.143603;stroke-miterlimit:8;stroke-dasharray:none;stroke-dashoffset:4.58;stroke-opacity:1"
       d="m 519.95518,566.6555 c 1.53139,-6.77634 6.03349,-11.16825 12.86659,-12.88219 -0.0128,8.49107 -5.92382,12.08734 -12.86659,12.88219 z"
       id="path7675"
       inkscape:connector-curvature="0"
       sodipodi:nodetypes="ccc" /><path
       style="fill:#ffffff;fill-opacity:1;stroke:#000000;stroke-width:0.143603;stroke-miterlimit:8;stroke-dasharray:none;stroke-dashoffset:4.58;stroke-opacity:1"
       d="m 516.46582,544.6848 c -0.43507,-0.47225 -0.58409,-1.00641 -0.55849,-1.57393 0.0463,-1.02685 1.04682,-1.9174 2.39895,-2.03085 1.61877,-0.13582 3.74062,0.72809 6.13066,2.89397 1.30938,1.18657 2.63556,1.83049 3.97922,1.86585 -0.58781,0.80197 -1.19379,1.56497 -1.25501,2.72897 -0.309,-0.0899 -0.59756,-0.24561 -1.04241,-0.55849 -0.54982,0.65921 -1.1161,1.30491 -0.74252,2.72263 1.16891,1.00138 2.25761,1.19303 3.33784,1.29923 -2.37908,1.86011 -6.13262,0.49752 -7.12731,-3.1572 -0.35543,-1.30594 -0.8101,-2.07847 -1.42731,-2.33703 z"
       id="path7681"
       inkscape:connector-curvature="0"
       sodipodi:nodetypes="cssscccccscc" /><path
       style="fill:none;fill-opacity:1;stroke:#000000;stroke-width:0.143603;stroke-miterlimit:8;stroke-dasharray:none;stroke-dashoffset:4.58;stroke-opacity:1"
       d="m 520.14675,543.26319 c 1.26314,0.79805 2.29605,2.13549 2.97013,4.17596 0.45356,1.37293 1.26001,2.43154 2.25934,3.2938"
       id="path7683"
       inkscape:connector-curvature="0"
       sodipodi:nodetypes="csc" /><path
       style="fill:none;fill-opacity:1;stroke:#000000;stroke-width:0.143603;stroke-miterlimit:8;stroke-dasharray:none;stroke-dashoffset:4.58;stroke-opacity:1"
       d="m 520.65447,542.94587 c 1.42306,0.53901 2.50637,1.48663 3.35091,2.86859 0.49505,0.81006 1.1606,1.52208 2.11336,2.19586"
       id="path7685"
       inkscape:connector-curvature="0"
       sodipodi:nodetypes="csc" /><path
       style="fill:#feeb00;fill-opacity:1;stroke:#000000;stroke-width:0.143603;stroke-miterlimit:8;stroke-dasharray:none;stroke-dashoffset:4.58;stroke-opacity:1"
       d="m 514.52833,540.93279 c -1.91745,-0.11586 -2.23727,-1.90845 -2.23727,-2.72064 0,-1.76869 1.48913,-3.31196 3.45625,-4.05754 0.97775,0.34969 1.56422,0.71686 0.69763,1.97195 -0.82718,0.4374 -1.69979,0.8183 -2.19593,1.8798 -0.45092,0.96477 -0.16339,2.09772 0.27932,2.92643 z"
       id="path7758"
       inkscape:connector-curvature="0"
       sodipodi:nodetypes="csccsc" /><path
       id="path7702-7-2"
       style="fill:#feeb00;fill-opacity:1;stroke:#000000;stroke-width:0.143603;stroke-miterlimit:8;stroke-dasharray:none;stroke-dashoffset:4.58;stroke-opacity:1"
       d="m 516.4273,536.85146 c -0.26617,-0.64732 -0.23951,-1.28753 0.0944,-1.92027 -0.66354,-0.26753 -1.09728,-0.73917 -1.31203,-1.40531 0.52033,0.22764 1.01501,0.32784 1.29909,0.2556 1.4157,-0.32905 2.93771,-0.19358 4.31133,0.59538 1.41476,0.8126 2.17382,2.12529 2.44841,3.51158 -0.68467,0.95865 -1.39004,1.26948 -2.25186,0.31314 -0.13329,-1.14557 -1.4962,-2.39251 -2.82913,-2.39251 -0.73813,0 -1.39402,0.38744 -1.76022,1.04239 z"
       inkscape:connector-curvature="0"
       sodipodi:nodetypes="ccccsccsc" /><path
       id="path7702-7-0"
       style="fill:#feeb00;fill-opacity:1;stroke:#000000;stroke-width:0.143603;stroke-miterlimit:8;stroke-dasharray:none;stroke-dashoffset:4.58;stroke-opacity:1"
       d="m 520.25888,538.00425 c 0.69123,-0.1098 1.30806,0.0637 1.84681,0.53444 0.41326,-0.58402 0.97217,-0.89739 1.66987,-0.95283 -0.24982,0.43313 -0.40723,0.88686 -0.39473,1.39193 0.0285,1.15165 -0.43643,2.15414 -1.04177,2.95523 -0.64905,0.85893 -1.58636,1.63653 -2.6667,2.00105 l -2.57894,-0.14114 v -0.94239 c 0,-0.16043 0.12346,-0.23089 0.27196,-0.26537 1.89905,-0.44091 3.49702,-1.6599 3.64036,-3.49569 0.0354,-0.4537 -0.39045,-0.79724 -0.74686,-1.08523 z"
       inkscape:connector-curvature="0"
       sodipodi:nodetypes="cccsscccssc" /><circle
       style="fill:#feeb00;fill-opacity:1;stroke:#000000;stroke-width:0.143603;stroke-miterlimit:8;stroke-dasharray:none;stroke-dashoffset:4.58;stroke-opacity:1"
       id="path7679"
       cx="518.49023"
       cy="545.36359"
       r="2.2627969" /><path
       id="path7677-4"
       style="fill:#feeb00;fill-opacity:1;stroke:#000000;stroke-width:0.143603;stroke-miterlimit:8;stroke-dasharray:none;stroke-dashoffset:4.58;stroke-opacity:1"
       d="m 517.03683,561.98517 v -15.11086 c 0,-0.78258 0.74411,-1.2439 1.45342,-1.2439 0.7093,0 1.45342,0.46132 1.45342,1.2439 v 15.11087 l -1.45342,3.40168 z"
       inkscape:connector-curvature="0"
       sodipodi:nodetypes="cscsccc" /><path
       style="fill:#009645;fill-opacity:1;stroke:#000000;stroke-width:0.143603;stroke-miterlimit:8;stroke-dasharray:none;stroke-dashoffset:4.58;stroke-opacity:1"
       d="m 517.02531,566.6555 c -1.53139,-6.77634 -6.0335,-11.16825 -12.86659,-12.88219 0.0128,8.49107 5.92382,12.08734 12.86659,12.88219 z"
       id="path7675-4"
       inkscape:connector-curvature="0"
       sodipodi:nodetypes="ccc" /><path
       inkscape:connector-curvature="0"
       style="fill:none;fill-opacity:1;fill-rule:evenodd;stroke:#000000;stroke-width:0.287207;stroke-linecap:butt;stroke-miterlimit:4;stroke-dashoffset:0;stroke-opacity:1"
       id="path4212-9"
       d="m 503.63731,531.86882 0.5401,22.68979 c 0.38579,16.20697 28.23987,16.20697 28.62567,0 l 0.5401,-22.68979 z" /></g><g
     id="g1024"
     transform="translate(-16.98416,18.351302)"><path
       inkscape:connector-curvature="0"
       style="fill:none;fill-opacity:1;fill-rule:evenodd;stroke:#000000;stroke-width:0.287207;stroke-linecap:butt;stroke-miterlimit:4;stroke-dashoffset:0;stroke-opacity:1"
       id="path4212-9-5"
       d="m 549.27829,531.05772 0.5401,22.68979 c 0.38579,16.20696 28.23987,16.20696 28.62566,0 l 0.54011,-22.68979 z" /><g
       id="l64IuzCzcFayKAFXGR3f1MA"
       fill="#0000cb"
       transform="matrix(0.01709584,0,0,0.01709584,549.42412,530.6744)"
       style="stroke:none;stroke-width:55.599;stroke-miterlimit:4;stroke-dasharray:none;stroke-opacity:0.611479"><g
         id="g9"
         style="stroke:#000000;stroke-width:16.7998;stroke-miterlimit:4;stroke-dasharray:none;stroke-opacity:1"><path
           id="p18RcwgqrC"
           d="m 1253.6551,1500.1629 c 0,217.2588 -176.123,393.3818 -393.38171,393.3818 -217.25873,0 -393.38173,-176.123 -393.38173,-393.3818 0,-217.2587 176.123,-393.3817 393.38173,-393.3817 217.25871,0 393.38171,176.123 393.38171,393.3817 z M 796,1889"
           style="stroke:#000000;stroke-width:16.7998;stroke-miterlimit:4;stroke-dasharray:none;stroke-opacity:1" /></g></g><path
       style="fill:none;stroke:#000000;stroke-width:0.287351;stroke-linecap:butt;stroke-linejoin:miter;stroke-miterlimit:4;stroke-dasharray:none;stroke-opacity:1"
       d="m 549.70906,547.21313 c 28.84635,0.14355 28.84635,0.0718 28.84635,0.0718"
       id="path1270" /><path
       style="fill:#ff0000;fill-opacity:1;stroke:#000000;stroke-width:0.143603px;stroke-linecap:butt;stroke-linejoin:miter;stroke-opacity:1"
       d="m 549.67319,547.19516 28.90896,0.0928 0.41569,-16.23419 h -29.72988 z"
       id="path1385" /><path
       id="pLkEbxMl8"
       d="m 563.70494,543.17816 c 0.14074,-0.29595 0.0704,-0.14798 0,0 z"
       sodipodi:nodetypes="cc"
       style="fill:#080707;stroke-width:0.00906378" /><g
       id="g13030"
       transform="matrix(0.28775372,0,0,0.28775372,513.47877,506.8472)"><path
         style="fill:#fffe02;fill-opacity:1;stroke:#fffe02;stroke-width:4.15748;stroke-miterlimit:4;stroke-dasharray:none;stroke-opacity:1"
         d="m 371.86137,411.33696 c -2.15096,-0.79569 -2.44241,-1.66284 -9.17312,-27.29313 -7.12123,-27.11739 -11.12687,-39.5441 -15.72095,-48.77109 -4.59324,-9.22531 -6.96715,-11.85771 -16.76853,-18.59438 -10.12067,-6.95611 -10.64717,-8.26041 -4.47508,-11.08608 10.21696,-4.67748 23.83443,-6.34504 31.23167,-3.82454 4.46636,1.52184 8.85738,6.16356 9.60609,10.15452 0.33641,1.79321 0.0397,5.23427 -0.78046,9.05086 -0.72777,3.38672 -1.10413,6.84797 -0.83635,7.69166 0.73534,2.31688 5.01928,1.96031 11.56969,-0.963 7.43009,-3.31589 15.15542,-3.89618 19.86733,-1.49234 6.07514,3.09931 9.53645,10.0277 9.53645,19.08886 0,6.33155 -2.21017,10.85273 -6.51503,13.3273 -4.73184,2.72001 -7.66638,3.0841 -15.82709,1.96367 -4.01806,-0.55166 -7.56409,-0.7445 -7.88006,-0.42853 -0.88888,0.88888 2.68051,10.4455 6.0285,16.14054 8.29388,14.10819 18.93604,17.42121 32.77042,10.20178 l 6.36664,-3.32241 5.36735,1.22078 c 14.92239,3.39402 25.1274,-0.48273 30.04779,-11.41477 1.66586,-3.70117 2.23241,-6.19157 2.27546,-10.0022 0.0525,-4.6483 -0.0862,-5.0944 -1.65358,-5.31746 -0.94099,-0.13392 -4.5597,0.65645 -8.04157,1.75638 -13.92512,4.39894 -25.23966,0.77992 -27.00652,-8.63818 -1.31865,-7.02901 1.79792,-16.71006 6.05529,-18.80962 3.57376,-1.76244 5.07122,-1.74173 13.00747,0.17994 4.42092,1.07047 8.55934,1.94631 9.19649,1.94631 1.69937,0 4.98698,-3.8575 4.98698,-5.85146 0,-1.68091 -0.8925,-3.03342 -8.1604,-12.36635 -7.07122,-9.08038 -4.82795,-13.63169 13.86943,-28.13924 5.38142,-4.17553 8.31282,-5.94394 9.85294,-5.94394 4.43601,0 24.98643,16.50866 27.71918,22.26751 1.83051,3.8575 1.04578,6.53296 -3.6105,12.30978 -7.13921,8.85726 -8.711,14.1494 -4.93687,16.6223 2.20466,1.44456 4.52043,1.19898 13.15746,-1.39527 6.13217,-1.84188 9.58397,-1.30213 13.67218,2.13788 4.25882,3.58355 5.99193,12.36052 3.5804,18.13212 -3.95356,9.4622 -13.79742,11.96875 -27.86993,7.09653 -6.87422,-2.38001 -7.11289,-2.40848 -8.17919,-0.97576 -1.53398,2.0611 -0.64066,8.97533 1.8248,14.12373 2.41424,5.04147 8.19028,10.33321 13.2514,12.14033 4.7569,1.69849 12.46347,1.75975 18.22683,0.14488 l 4.34457,-1.21733 6.24489,2.88664 c 8.30072,3.83695 16.36593,4.5481 21.79176,1.9215 4.29538,-2.07935 8.69114,-6.90286 12.0729,-13.24768 2.78301,-5.22147 5.55624,-12.75327 5.55624,-15.09019 0,-1.69472 -1.02936,-1.66951 -11.04941,0.27062 -4.11813,0.79737 -5.8501,0.80952 -8.3564,0.0586 -3.66621,-1.09842 -7.51776,-4.10733 -9.02225,-7.04837 -3.06348,-5.98858 -1.99319,-16.69823 2.22095,-22.22332 5.65877,-7.41916 12.65602,-8.60055 23.86527,-4.02935 10.9429,4.46259 13.94316,3.41724 12.44674,-4.33667 -1.77712,-9.20835 -0.14701,-16.00159 4.66134,-19.42543 1.27149,-0.90538 4.68374,-2.23148 7.58276,-2.94689 4.85573,-1.19827 5.82807,-1.20392 12.34235,-0.0717 7.87818,1.36925 14.88658,3.78499 17.93314,6.18142 2.74819,2.16173 1.77723,3.72412 -4.49382,7.23109 -6.91889,3.86927 -12.34198,8.98484 -16.92385,15.96418 -6.2687,9.54881 -11.14278,23.90597 -19.52437,57.51112 -5.95066,23.85865 -5.89572,23.69798 -8.31231,24.30451 -1.98657,0.4986 -3.0709,0.23875 -20.1533,-4.82956 -27.11241,-8.04418 -49.94432,-11.33635 -78.4736,-11.31522 -28.6469,0.0212 -48.66591,2.96993 -79.58912,11.72315 -19.64818,5.56168 -18.84763,5.38227 -20.79749,4.66096 z"
         id="path9879"
         transform="matrix(0.26458333,0,0,0.26458333,49.901308,14.052386)" /><path
         style="fill:#fffe02;fill-opacity:1;stroke:#fffe02;stroke-width:1.56094;stroke-miterlimit:4;stroke-dasharray:none;stroke-opacity:1"
         d="m 374.25791,429.24863 c -0.69104,-1.33632 -1.44169,-4.23434 -1.66811,-6.44005 -0.54422,-5.30145 -1.03678,-6.83523 11.08478,-10.69146 21.4803,-6.83352 45.60875,-12.27986 65.75205,-14.17375 12.44099,-1.16971 43.53929,-1.00314 56.01557,0.71853 24.1419,3.33146 59.3988,12.21447 65.53904,16.51495 1.72796,1.21022 -0.35406,3.94094 -0.35406,6.43172 0,1.7019 -0.50899,4.31254 -1.13108,5.80143 -1.41909,3.39636 -2.46598,3.43137 -12.62326,0.42216 -29.89815,-8.85767 -52.0237,-12.01327 -84.60274,-12.06627 -33.70526,-0.0548 -61.15823,4.11904 -86.25759,13.11432 -4.29337,1.53869 -8.41183,2.79772 -9.15215,2.79785 -0.74031,1.3e-4 -1.91141,-1.09312 -2.60245,-2.42943 z"
         id="path9918"
         transform="matrix(0.26458333,0,0,0.26458333,49.901308,14.052386)"
         sodipodi:nodetypes="sssssssssssss" /><path
         style="fill:#fffe02;fill-opacity:1;stroke:#fffe02;stroke-width:1.56094;stroke-miterlimit:4;stroke-dasharray:none;stroke-opacity:1"
         d="m 444.21207,458.17714 c -21.10951,-2.00686 -52.3409,-9.93447 -61.30029,-16.42462 -3.2199,-2.33248 -4.91502,-4.68559 -3.50046,-6.27653 1.85286,-2.08388 9.12188,-4.81185 11.8656,-4.83381 1.17809,-0.009 8.32084,2.38677 15.10868,4.91736 16.63965,6.20346 27.85831,9.92938 54.56238,11.87031 10.18458,0.74024 15.70386,0.7399 25.45535,-0.002 22.88802,-1.74036 36.38495,-6.20217 57.39588,-14.2724 7.95646,-3.05605 18.27748,-2.97984 20.26756,0.73865 0.64542,1.20598 -0.65338,3.72402 -1.76895,4.95859 -4.85977,5.3782 -33.03058,14.72449 -54.90019,18.21434 -9.59434,1.53101 -51.08834,2.25973 -63.18556,1.10967 z"
         id="path9957"
         transform="matrix(0.26458333,0,0,0.26458333,49.901308,14.052386)"
         sodipodi:nodetypes="csscsscsssscc" /></g><path
       style="fill:#000000;fill-opacity:1;stroke:none;stroke-width:0.0761348"
       d="m 561.02292,546.04844 c -2.60037,-0.3566 -4.89263,-1.35915 -5.0575,-2.21198 -0.0398,-0.20589 -0.46521,-2.12122 -0.65948,-2.96926 -0.0863,-0.37686 -0.21996,-0.89077 -0.29695,-1.14202 -0.077,-0.25124 -0.25095,-0.83367 -0.38661,-1.29429 -0.63124,-2.14336 -1.22552,-2.92749 -2.75997,-3.64164 -0.56846,-0.26457 -0.55064,-0.39168 0.10046,-0.71661 2.30103,-1.14834 4.17604,-0.77404 4.13382,0.82521 -0.0188,0.71268 0.0156,0.73712 0.66779,0.4737 1.23639,-0.4994 2.31485,0.30663 2.31068,1.72698 -0.003,1.0526 -0.51611,1.629 -1.45879,1.63903 -0.75995,0.008 -0.80883,0.25631 -0.19506,0.99057 0.58147,0.69562 1.25468,0.741 2.04803,0.13804 0.27859,-0.21174 0.41574,-0.22027 0.89823,-0.0559 0.75812,0.25832 1.38127,0.0674 1.82442,-0.55903 0.39573,-0.55936 0.16486,-0.74195 -0.68894,-0.54487 -0.88244,0.20368 -1.66311,-0.2174 -1.85039,-0.99808 -0.30385,-1.26659 0.47992,-2.24022 1.57704,-1.95904 0.79738,0.20436 0.98592,0.085 0.56466,-0.35756 -1.03747,-1.08983 -0.8325,-1.68055 1.04385,-3.00833 0.98037,-0.69376 0.91332,-0.71264 2.77217,0.78079 0.82119,0.65976 0.84783,1.52379 0.0683,2.21408 -0.362,0.32055 -0.11119,0.61415 0.34059,0.39871 1.15756,-0.552 2.24662,0.64825 1.78751,1.97002 -0.30958,0.89129 -0.99533,1.19623 -2.06569,0.91858 -0.69522,-0.18033 -0.83204,0.17159 -0.29375,0.75556 0.48003,0.52078 0.91845,0.60372 1.75393,0.33184 l 0.50629,-0.16476 0.47311,0.31592 c 0.74142,0.49511 1.29213,0.42006 1.8884,-0.25735 0.60052,-0.68222 0.49036,-1.02555 -0.32907,-1.02555 -0.88541,0 -1.33199,-0.52161 -1.33199,-1.55577 0,-1.43552 0.98532,-2.20906 2.285,-1.79386 0.5924,0.18925 0.67532,0.1393 0.62572,-0.37689 -0.16093,-1.67483 1.86899,-2.1176 4.23429,-0.9236 0.66566,0.33602 0.65592,0.41122 -0.0998,0.77026 -1.80433,0.85724 -2.44825,2.22639 -3.57926,7.61046 -0.37096,1.76594 -0.43677,1.93977 -0.82782,2.18664 -0.89502,0.565 -2.24246,1.02669 -4.20197,1.43977 -0.80933,0.17062 -4.74303,0.21805 -5.82123,0.0702 z m 5.00615,-0.30792 c 1.53964,-0.18237 3.2546,-0.6641 4.37746,-1.22961 0.96441,-0.48571 -0.14154,-1.06097 -1.17061,-0.60889 -0.3625,0.15925 -0.92143,0.35866 -1.62734,0.58062 -0.64915,0.2041 -2.65188,0.45623 -3.63129,0.45716 -1.43886,10e-4 -4.15327,-0.35493 -4.61288,-0.60547 -0.16326,-0.089 -1.61617,-0.61207 -1.70011,-0.61207 -0.29448,0 -0.9114,0.33466 -0.89027,0.48295 0.0653,0.45807 2.68584,1.32661 4.62956,1.53438 1.23763,0.13229 3.51259,0.13275 4.62548,8.6e-4 z m -0.6284,-1.10456 c 1.16376,-0.12706 3.54027,-0.71475 3.54027,-0.87548 0,-0.0142 0.0198,-0.0773 0.044,-0.14035 0.0923,-0.24043 -0.55408,-0.41296 -2.48029,-0.66207 -2.73726,-0.354 -4.22362,-0.28994 -7.30724,0.31492 -2.68011,0.52571 2.81443,1.73296 6.20329,1.36298 z m -8.28419,-1.05728 c 3.67492,-1.35499 8.82671,-1.43218 12.86182,-0.19273 1.20775,0.37098 1.21926,0.36789 1.35269,-0.36267 0.0752,-0.41151 -0.097,-0.52514 -1.34591,-0.88829 -3.44006,-1.00031 -6.65117,-1.21629 -9.72351,-0.65403 -1.4006,0.25633 -3.76884,0.91788 -4.02426,1.12414 -0.13663,0.11035 -0.078,0.73695 0.0935,0.99863 0.1546,0.23596 0.0705,0.23865 0.78569,-0.0251 z m 0.43312,-1.67695 c 4.43392,-1.35101 8.54885,-1.30579 12.98125,0.14265 0.95172,0.31101 0.9687,0.29927 1.21758,-0.84185 0.2045,-0.93764 0.50133,-2.05742 0.91633,-3.45685 0.47628,-1.60606 1.12114,-2.52983 2.11895,-3.03546 0.65938,-0.33414 0.58713,-0.55263 -0.28493,-0.86168 -1.8454,-0.65398 -3.10892,0.0245 -2.72421,1.4629 0.17068,0.63818 -0.0896,0.78103 -0.77399,0.42484 -1.31855,-0.68623 -2.38108,0.0246 -2.27287,1.52061 0.0661,0.91438 0.85756,1.30922 1.89237,0.94412 0.44663,-0.15758 0.4931,-0.0715 0.27464,0.50894 -0.63365,1.68346 -1.50161,2.16766 -2.75774,1.53845 -0.55138,-0.2762 -0.55138,-0.2762 -0.9151,-0.15227 -1.27753,0.4353 -2.54449,-0.4343 -2.54449,-1.74645 0,-0.33913 0.0742,-0.3656 0.5059,-0.18054 1.30994,0.56151 2.38722,0.13274 2.38722,-0.95014 0,-1.00013 -0.67464,-1.47637 -1.58261,-1.11719 -1.05613,0.41779 -1.32706,-0.13773 -0.51243,-1.0507 0.71782,-0.80448 0.58283,-1.14921 -0.88223,-2.25282 -0.8759,-0.65981 -0.91068,-0.66699 -1.40857,-0.29108 -1.83436,1.38497 -1.9915,1.73944 -1.172,2.64372 0.48987,0.54055 0.53785,0.68863 0.31308,0.9662 -0.1561,0.19278 -0.15419,0.19292 -1.25158,-0.0931 -0.64867,-0.1691 -1.09544,0.24183 -1.17663,1.08221 -0.10606,1.09786 0.85799,1.6084 2.1532,1.14027 0.76197,-0.2754 0.82854,-0.21619 0.65071,0.57877 -0.24667,1.10266 -1.1344,1.58036 -2.36375,1.27196 -0.49487,-0.12414 -0.49487,-0.12414 -0.94721,0.15163 -1.19446,0.72824 -2.23599,0.13022 -2.86446,-1.64471 -0.12853,-0.36302 -0.0685,-0.41477 0.35108,-0.30256 1.3789,0.3688 2.18536,-0.38124 1.84846,-1.71917 -0.25818,-1.02534 -1.15888,-1.34664 -2.24703,-0.80157 -0.7675,0.38446 -0.97574,0.24597 -0.7502,-0.49892 0.38418,-1.26889 -0.74488,-1.92544 -2.45576,-1.42804 -1.22018,0.35474 -1.28172,0.53969 -0.3658,1.09939 0.69667,0.42572 0.9742,0.72408 1.3233,1.42258 0.39817,0.79668 0.73178,1.87527 1.46201,4.72682 0.35335,1.37984 0.18674,1.30817 1.85751,0.79909 z"
       id="path6187" /></g><text
     xml:space="preserve"
     style="font-style:normal;font-weight:normal;font-size:18.6667px;line-height:1.25;font-family:sans-serif;fill:#000000;fill-opacity:1;stroke:none"
     x="461.99731"
     y="476.00003"
     id="text3684"><tspan
       sodipodi:role="line"
       id="tspan3682"
       x="461.99731"
       y="476.00003"
       style="font-style:normal;font-variant:normal;font-weight:normal;font-stretch:normal;font-size:18.6667px;font-family:'Roboto Black';-inkscape-font-specification:'Roboto Black, ';fill:#1a1a1a">Nuolenbach</tspan></text></svg>
