<?xml version="1.0" encoding="UTF-8" standalone="no"?>
<!-- Created with Inkscape (http://www.inkscape.org/) -->
<svg
   xmlns:dc="http://purl.org/dc/elements/1.1/"
   xmlns:cc="http://web.resource.org/cc/"
   xmlns:rdf="http://www.w3.org/1999/02/22-rdf-syntax-ns#"
   xmlns:svg="http://www.w3.org/2000/svg"
   xmlns="http://www.w3.org/2000/svg"
   xmlns:xlink="http://www.w3.org/1999/xlink"
   xmlns:sodipodi="http://sodipodi.sourceforge.net/DTD/sodipodi-0.dtd"
   xmlns:inkscape="http://www.inkscape.org/namespaces/inkscape"
   id="svg2"
   inkscape:version="0.45.1"
   width="127"
   height="152"
   version="1.0"
   sodipodi:version="0.32"
   sodipodi:docname="Wappen_Siebnen.svg"
   sodipodi:docbase="/home/simon/Bilder/wikipedia"
   inkscape:output_extension="org.inkscape.output.svg.inkscape">
  <defs
     id="defs8">
    <linearGradient
       id="linearGradient7135">
      <stop
         style="stop-color:#ff0000;stop-opacity:1;"
         offset="0"
         id="stop7137" />
      <stop
         style="stop-color:#df0000;stop-opacity:1;"
         offset="1"
         id="stop7139" />
    </linearGradient>
    <linearGradient
       id="linearGradient7053">
      <stop
         style="stop-color:#ffffff;stop-opacity:1;"
         offset="0"
         id="stop7055" />
      <stop
         style="stop-color:#f3f3f3;stop-opacity:1;"
         offset="1"
         id="stop7057" />
    </linearGradient>
    <linearGradient
       id="linearGradient4122">
      <stop
         style="stop-color:#ffff7f;stop-opacity:1;"
         offset="0"
         id="stop4124" />
      <stop
         id="stop8178"
         offset="0.69999999"
         style="stop-color:#efef5f;stop-opacity:1;" />
      <stop
         style="stop-color:#dfdf3f;stop-opacity:1;"
         offset="1"
         id="stop4126" />
    </linearGradient>
    <radialGradient
       inkscape:collect="always"
       xlink:href="#linearGradient4122"
       id="radialGradient4128"
       cx="70.484375"
       cy="69.663376"
       fx="70.484375"
       fy="69.663376"
       r="32.492985"
       gradientTransform="matrix(1,0,0,1.986105,0,-71.674415)"
       gradientUnits="userSpaceOnUse" />
    <radialGradient
       inkscape:collect="always"
       xlink:href="#linearGradient7053"
       id="radialGradient7067"
       cx="71.5"
       cy="44.536083"
       fx="71.5"
       fy="44.536083"
       r="62.75"
       gradientTransform="matrix(1,0,0,0.3864542,0,44.788845)"
       gradientUnits="userSpaceOnUse" />
    <radialGradient
       inkscape:collect="always"
       xlink:href="#linearGradient7135"
       id="radialGradient7141"
       cx="78.5"
       cy="59.333332"
       fx="78.5"
       fy="59.333332"
       r="62.5"
       gradientTransform="matrix(1,0,0,1.2,0,-15.2)"
       gradientUnits="userSpaceOnUse" />
  </defs>
  <sodipodi:namedview
     inkscape:window-height="825"
     inkscape:window-width="1440"
     inkscape:pageshadow="2"
     inkscape:pageopacity="0.54117647"
     guidetolerance="10.0"
     gridtolerance="10.0"
     objecttolerance="10.0"
     borderopacity="1.0"
     bordercolor="#666666"
     pagecolor="#ffffff"
     id="base"
     inkscape:zoom="1"
     inkscape:cx="40.055144"
     inkscape:cy="87.036062"
     inkscape:window-x="0"
     inkscape:window-y="25"
     inkscape:current-layer="svg2" />
  <metadata
     id="metadata7">
    <rdf:RDF>
      <cc:Work
         rdf:about="">
        <dc:format>image/svg+xml</dc:format>
        <dc:type
           rdf:resource="http://purl.org/dc/dcmitype/StillImage" />
        <dc:title>Sin escudo</dc:title>
        <dc:creator>
          <cc:Agent>
            <dc:title>Thiemo Mättig</dc:title>
          </cc:Agent>
        </dc:creator>
        <dc:date>29. April 2006</dc:date>
        <cc:license
           rdf:resource="http://web.resource.org/cc/PublicDomain" />
      </cc:Work>
      <cc:License
         rdf:about="http://web.resource.org/cc/PublicDomain">
        <cc:permits
           rdf:resource="http://web.resource.org/cc/Reproduction" />
        <cc:permits
           rdf:resource="http://web.resource.org/cc/Distribution" />
        <cc:permits
           rdf:resource="http://web.resource.org/cc/DerivativeWorks" />
      </cc:License>
    </rdf:RDF>
  </metadata>
  <path
     style="fill:url(#radialGradient7141);fill-opacity:1.0;fill-rule:nonzero;stroke:none;stroke-width:0.5;stroke-linecap:round;stroke-linejoin:miter;stroke-miterlimit:4;stroke-dasharray:none;stroke-dashoffset:0;stroke-opacity:1"
     d="M 1,1 L 1,88.5 C 1,123.12 28.88,151 63.5,151 C 98.12,151 126,123.12 126,88.5 L 126,1 L 63.5,1 L 1,1 z "
     id="rect1370" />
  <path
     style="fill:url(#radialGradient7067);fill-opacity:1.0;fill-rule:nonzero;stroke:#000000;stroke-width:0.3;stroke-linecap:round;stroke-linejoin:miter;stroke-miterlimit:4;stroke-dasharray:none;stroke-dashoffset:0;stroke-opacity:1"
     d="M 1 49 L 1 88.5 C 1 91.389007 1.2177362 94.217149 1.59375 97 L 125.40625 97 C 125.78226 94.217149 126 91.389007 126 88.5 L 126 49 L 1 49 z "
     id="path35371" />
  <path
     id="path3133"
     style="fill:url(#radialGradient4128);fill-opacity:1;stroke:#000000;stroke-width:0.3;stroke-miterlimit:4;stroke-opacity:1;stroke-dasharray:none"
     d="M 61.96875,8.15625 C 61.46398,8.166362 60.982989,8.1912634 60.53125,8.21875 C 58.724295,8.3286962 57.065394,8.5886222 55.5625,9 C 52.556708,9.822755 50.14619,11.277753 48.25,13.53125 C 43.813204,18.804082 41.173956,27.23938 48.90625,34.28125 C 53.539977,38.501228 52.943141,40.890148 51.96875,42.4375 C 50.045358,45.491876 48.013637,44.578897 43.125,41.34375 C 39.551724,38.979068 36.530032,38.504284 34.6875,39.625 C 32.844968,40.745715 32.185085,43.449652 32.03125,46.25 C 31.806734,50.337026 33.141092,50.814422 38.6875,53.625 C 46.663181,57.666583 50.09375,61.279309 50.09375,65.65625 C 50.09375,70.246206 47.714254,71.128245 42.09375,68.59375 C 36.685625,66.155026 33.462601,66.982835 31.65625,71.34375 C 29.533418,76.468719 32.456324,80.900427 40.96875,85.4375 C 48.851001,89.638696 51.401729,92.662771 51.65625,98.21875 C 51.826054,101.92542 51.450732,102.77967 47.3125,101.1875 C 40.386341,98.522689 39.801414,102.02057 40.28125,104.34375 C 40.919747,107.4351 44.019204,108.72402 49.40625,113.5 C 53.748951,117.35009 57.670643,122.26792 59.75,124.3125 C 60.662803,125.21004 62.796418,127.75426 62.797917,130.25 L 62.802083,137.1875 C 62.802083,137.1875 62.993488,137.21382 63.46875,137.21875 C 63.498427,137.21906 63.501906,137.21844 63.53125,137.21875 C 64.006512,137.21382 64.197917,137.1875 64.197917,137.1875 L 64.170833,130.28125 C 64.161046,127.78552 66.243465,125.14172 67.21875,124.3125 C 69.231437,122.60126 73.219799,117.35009 77.5625,113.5 C 82.949545,108.72402 86.049003,107.4351 86.6875,104.34375 C 87.167336,102.02058 86.582409,98.522689 79.65625,101.1875 C 75.518022,102.77966 75.142696,101.95667 75.3125,98.25 C 75.567021,92.694026 78.117749,89.638696 86,85.4375 C 94.51243,80.900424 97.435332,76.468719 95.3125,71.34375 C 93.506149,66.982833 90.314375,66.155026 84.90625,68.59375 C 79.285746,71.128243 76.875,70.246206 76.875,65.65625 C 76.875,61.279306 80.305569,57.666583 88.28125,53.625 C 93.827662,50.814419 95.193266,50.368276 94.96875,46.28125 C 94.814919,43.480903 94.123782,40.745715 92.28125,39.625 C 90.438722,38.504285 87.448276,38.979068 83.875,41.34375 C 78.986359,44.578899 76.954642,45.491876 75.03125,42.4375 C 74.056858,40.89015 73.428773,38.501228 78.0625,34.28125 C 85.79479,27.239382 83.155546,18.804082 78.71875,13.53125 C 76.82256,11.277755 74.412042,9.822756 71.40625,9 C 69.903356,8.5886231 68.275705,8.328696 66.46875,8.21875 C 65.565275,8.1637769 64.482824,8.142897 63.5,8.15625 C 63.008588,8.1495735 62.47352,8.146138 61.96875,8.15625 z M 62.76667,137.16667 L 63.499997,47.06666M 64.199997,137.16667 L 64.102663,122.32829 L 63.678531,57.670121 L 63.5,47.06666" />
  <path
     style="fill:none;fill-opacity:1;fill-rule:nonzero;stroke:#000000;stroke-width:2;stroke-linecap:round;stroke-linejoin:miter;stroke-miterlimit:4;stroke-dasharray:none;stroke-dashoffset:0;stroke-opacity:1"
     d="M 1,1 L 1,88.5 C 1,123.12 28.88,151 63.5,151 C 98.12,151 126,123.12 126,88.5 L 126,1 L 63.5,1 L 1,1 z "
     id="path5073" />
</svg>
